%TF.GenerationSoftware,KiCad,Pcbnew,6.0.2+dfsg-1*%
%TF.CreationDate,2024-04-05T14:20:15-05:00*%
%TF.ProjectId,Dick Smith RDF KK-8345,4469636b-2053-46d6-9974-682052444620,001*%
%TF.SameCoordinates,Original*%
%TF.FileFunction,Copper,L2,Bot*%
%TF.FilePolarity,Positive*%
%FSLAX46Y46*%
G04 Gerber Fmt 4.6, Leading zero omitted, Abs format (unit mm)*
G04 Created by KiCad (PCBNEW 6.0.2+dfsg-1) date 2024-04-05 14:20:15*
%MOMM*%
%LPD*%
G01*
G04 APERTURE LIST*
%TA.AperFunction,ComponentPad*%
%ADD10C,2.500000*%
%TD*%
%TA.AperFunction,ComponentPad*%
%ADD11R,6.000000X4.000000*%
%TD*%
%TA.AperFunction,ComponentPad*%
%ADD12R,4.000000X6.000000*%
%TD*%
%TA.AperFunction,ComponentPad*%
%ADD13R,1.750000X1.000000*%
%TD*%
%TA.AperFunction,ComponentPad*%
%ADD14C,1.524000*%
%TD*%
%TA.AperFunction,ComponentPad*%
%ADD15C,1.600000*%
%TD*%
%TA.AperFunction,ViaPad*%
%ADD16C,0.800000*%
%TD*%
%TA.AperFunction,Conductor*%
%ADD17C,1.750000*%
%TD*%
G04 APERTURE END LIST*
D10*
%TO.P,J6,1,Pin_1*%
%TO.N,Net-(J6-Pad1)*%
X113000000Y-101000000D03*
%TO.P,J6,2,Pin_2*%
%TO.N,Net-(J6-Pad2)*%
X113000000Y-91000000D03*
%TO.P,J6,3,Pin_3*%
%TO.N,Net-(J6-Pad3)*%
X123000000Y-91000000D03*
%TO.P,J6,4,Pin_4*%
%TO.N,Net-(J6-Pad4)*%
X123000000Y-101000000D03*
%TO.P,J6,SH,Shield*%
%TO.N,GNDREF*%
X104500000Y-96000000D03*
%TD*%
%TO.P,J3,1,In*%
%TO.N,Net-(D203-Pad1)*%
X158000000Y-103500000D03*
D11*
%TO.P,J3,2,Ext*%
%TO.N,GNDREF*%
X158000000Y-109000000D03*
%TD*%
D10*
%TO.P,J5,1,In*%
%TO.N,Net-(C1-Pad2)*%
X177000000Y-90500000D03*
D12*
%TO.P,J5,2,Ext*%
%TO.N,GNDREF*%
X182500000Y-90500000D03*
%TD*%
D13*
%TO.P,D201,1,K*%
%TO.N,Net-(D201-Pad1)*%
X144000000Y-81500000D03*
%TO.P,D201,2,A*%
%TO.N,Net-(C1-Pad1)*%
X144000000Y-86500000D03*
%TD*%
%TO.P,D203,1,K*%
%TO.N,Net-(D203-Pad1)*%
X154000000Y-99500000D03*
%TO.P,D203,2,A*%
%TO.N,Net-(C1-Pad1)*%
X154000000Y-94500000D03*
%TD*%
D10*
%TO.P,J4,1,In*%
%TO.N,Net-(D204-Pad1)*%
X140000000Y-103500000D03*
D11*
%TO.P,J4,2,Ext*%
%TO.N,GNDREF*%
X140000000Y-109000000D03*
%TD*%
D14*
%TO.P,L5,1,1*%
%TO.N,GNDREF*%
X174270000Y-80500000D03*
%TO.P,L5,2,2*%
%TO.N,Net-(C1-Pad1)*%
X171730000Y-80500000D03*
%TD*%
%TO.P,L2,1,1*%
%TO.N,Net-(D202-Pad1)*%
X162460000Y-82000000D03*
%TO.P,L2,2,2*%
%TO.N,Net-(J6-Pad2)*%
X165000000Y-82000000D03*
%TD*%
D13*
%TO.P,D204,1,K*%
%TO.N,Net-(D204-Pad1)*%
X144000000Y-99500000D03*
%TO.P,D204,2,A*%
%TO.N,Net-(C1-Pad1)*%
X144000000Y-94500000D03*
%TD*%
D14*
%TO.P,L4,1,1*%
%TO.N,Net-(D204-Pad1)*%
X136040000Y-99500000D03*
%TO.P,L4,2,2*%
%TO.N,Net-(J6-Pad4)*%
X133500000Y-99500000D03*
%TD*%
D15*
%TO.P,C1,1*%
%TO.N,Net-(C1-Pad1)*%
X169000000Y-87500000D03*
%TO.P,C1,2*%
%TO.N,Net-(C1-Pad2)*%
X169000000Y-92500000D03*
%TD*%
D10*
%TO.P,J2,1,In*%
%TO.N,Net-(D202-Pad1)*%
X158000000Y-78000000D03*
D11*
%TO.P,J2,2,Ext*%
%TO.N,GNDREF*%
X158000000Y-72500000D03*
%TD*%
D14*
%TO.P,L1,1,1*%
%TO.N,Net-(D201-Pad1)*%
X136270000Y-82000000D03*
%TO.P,L1,2,2*%
%TO.N,Net-(J6-Pad1)*%
X133730000Y-82000000D03*
%TD*%
D10*
%TO.P,J1,1,In*%
%TO.N,Net-(D201-Pad1)*%
X140000000Y-78000000D03*
D11*
%TO.P,J1,2,Ext*%
%TO.N,GNDREF*%
X140000000Y-72500000D03*
%TD*%
D13*
%TO.P,D202,1,K*%
%TO.N,Net-(D202-Pad1)*%
X154000000Y-81500000D03*
%TO.P,D202,2,A*%
%TO.N,Net-(C1-Pad1)*%
X154000000Y-86500000D03*
%TD*%
D14*
%TO.P,L3,1,1*%
%TO.N,Net-(D203-Pad1)*%
X162230000Y-99000000D03*
%TO.P,L3,2,2*%
%TO.N,Net-(J6-Pad3)*%
X164770000Y-99000000D03*
%TD*%
D16*
%TO.N,*%
X70000000Y-120000000D03*
%TO.N,GNDREF*%
X190000000Y-135000000D03*
X180000000Y-135000000D03*
X170000000Y-135000000D03*
X160000000Y-135000000D03*
X150000000Y-135000000D03*
X110000000Y-135000000D03*
X120000000Y-135000000D03*
X130000000Y-135000000D03*
X140000000Y-135000000D03*
X135000000Y-130000000D03*
X145000000Y-130000000D03*
X155000000Y-130000000D03*
X165000000Y-130000000D03*
X140000000Y-125000000D03*
X150000000Y-125000000D03*
X160000000Y-125000000D03*
X170000000Y-125000000D03*
X195000000Y-120000000D03*
X185000000Y-120000000D03*
X175000000Y-120000000D03*
X165000000Y-120000000D03*
X155000000Y-120000000D03*
X145000000Y-120000000D03*
X135000000Y-120000000D03*
X125000000Y-120000000D03*
X115000000Y-120000000D03*
X105000000Y-120000000D03*
X110000000Y-115000000D03*
X120000000Y-115000000D03*
X130000000Y-115000000D03*
X140000000Y-115000000D03*
X150000000Y-115000000D03*
X160000000Y-115000000D03*
X170000000Y-115000000D03*
X180000000Y-115000000D03*
X190000000Y-115000000D03*
X195000000Y-110000000D03*
X185000000Y-110000000D03*
X175000000Y-110000000D03*
X165000000Y-110000000D03*
X145000000Y-110000000D03*
X135000000Y-110000000D03*
X125000000Y-110000000D03*
X115000000Y-110000000D03*
X105000000Y-100000000D03*
X105000000Y-110000000D03*
X110000000Y-105000000D03*
X120000000Y-105000000D03*
X130000000Y-105000000D03*
X150000000Y-105000000D03*
X170000000Y-105000000D03*
X180000000Y-105000000D03*
X190000000Y-105000000D03*
X195000000Y-100000000D03*
X185000000Y-100000000D03*
X175000000Y-100000000D03*
X115000000Y-100000000D03*
X120000000Y-95000000D03*
X130000000Y-95000000D03*
X140000000Y-95000000D03*
X170000000Y-95000000D03*
X180000000Y-95000000D03*
X190000000Y-95000000D03*
X195000000Y-90000000D03*
X165000000Y-90000000D03*
X105000000Y-90000000D03*
X110000000Y-85000000D03*
X120000000Y-85000000D03*
X130000000Y-85000000D03*
X140000000Y-85000000D03*
X160000000Y-85000000D03*
X180000000Y-85000000D03*
X190000000Y-85000000D03*
X195000000Y-80000000D03*
X185000000Y-80000000D03*
X165000000Y-80000000D03*
X145000000Y-80000000D03*
X135000000Y-80000000D03*
X125000000Y-80000000D03*
X115000000Y-80000000D03*
X105000000Y-80000000D03*
X110000000Y-75000000D03*
X120000000Y-75000000D03*
X130000000Y-75000000D03*
X150000000Y-75000000D03*
X170000000Y-75000000D03*
X180000000Y-75000000D03*
X190000000Y-75000000D03*
X195000000Y-70000000D03*
X185000000Y-70000000D03*
X175000000Y-70000000D03*
X165000000Y-70000000D03*
X145000000Y-70000000D03*
X135000000Y-70000000D03*
X125000000Y-70000000D03*
X115000000Y-70000000D03*
X105000000Y-70000000D03*
X110000000Y-65000000D03*
X120000000Y-65000000D03*
X130000000Y-65000000D03*
X140000000Y-65000000D03*
X150000000Y-65000000D03*
X160000000Y-65000000D03*
X170000000Y-65000000D03*
X180000000Y-65000000D03*
X190000000Y-65000000D03*
X195000000Y-60000000D03*
X185000000Y-60000000D03*
X175000000Y-60000000D03*
X165000000Y-60000000D03*
X155000000Y-60000000D03*
X145000000Y-60000000D03*
X135000000Y-60000000D03*
X125000000Y-60000000D03*
X120000000Y-55000000D03*
X130000000Y-55000000D03*
X140000000Y-55000000D03*
X150000000Y-55000000D03*
X160000000Y-55000000D03*
X170000000Y-55000000D03*
X180000000Y-55000000D03*
X190000000Y-55000000D03*
X195000000Y-50000000D03*
X185000000Y-50000000D03*
X175000000Y-50000000D03*
X165000000Y-50000000D03*
X155000000Y-50000000D03*
X145000000Y-50000000D03*
X135000000Y-50000000D03*
X125000000Y-50000000D03*
X115000000Y-60000000D03*
X105000000Y-60000000D03*
X110000000Y-55000000D03*
X115000000Y-50000000D03*
X105000000Y-50000000D03*
%TD*%
D17*
%TO.N,Net-(J6-Pad3)*%
X164770000Y-99000000D02*
X164770000Y-97922370D01*
X164770000Y-97922370D02*
X157847630Y-91000000D01*
X157847630Y-91000000D02*
X123000000Y-91000000D01*
%TO.N,Net-(J6-Pad4)*%
X133500000Y-99500000D02*
X124500000Y-99500000D01*
X124500000Y-99500000D02*
X123000000Y-101000000D01*
%TO.N,Net-(J6-Pad1)*%
X116000000Y-82000000D02*
X110000000Y-88000000D01*
X110000000Y-98000000D02*
X113000000Y-101000000D01*
X133730000Y-82000000D02*
X116000000Y-82000000D01*
X110000000Y-88000000D02*
X110000000Y-98000000D01*
%TO.N,Net-(J6-Pad2)*%
X115500000Y-88500000D02*
X113000000Y-91000000D01*
X165000000Y-82000000D02*
X165000000Y-83077630D01*
X159577630Y-88500000D02*
X115500000Y-88500000D01*
X165000000Y-83077630D02*
X159577630Y-88500000D01*
%TD*%
%TA.AperFunction,Conductor*%
%TO.N,GNDREF*%
G36*
X198434121Y-45028002D02*
G01*
X198480614Y-45081658D01*
X198492000Y-45134000D01*
X198492000Y-138866000D01*
X198471998Y-138934121D01*
X198418342Y-138980614D01*
X198366000Y-138992000D01*
X99634000Y-138992000D01*
X99565879Y-138971998D01*
X99519386Y-138918342D01*
X99508000Y-138866000D01*
X99508000Y-111044669D01*
X136492001Y-111044669D01*
X136492371Y-111051490D01*
X136497895Y-111102352D01*
X136501521Y-111117604D01*
X136546676Y-111238054D01*
X136555214Y-111253649D01*
X136631715Y-111355724D01*
X136644276Y-111368285D01*
X136746351Y-111444786D01*
X136761946Y-111453324D01*
X136882394Y-111498478D01*
X136897649Y-111502105D01*
X136948514Y-111507631D01*
X136955328Y-111508000D01*
X139727885Y-111508000D01*
X139743124Y-111503525D01*
X139744329Y-111502135D01*
X139746000Y-111494452D01*
X139746000Y-111489884D01*
X140254000Y-111489884D01*
X140258475Y-111505123D01*
X140259865Y-111506328D01*
X140267548Y-111507999D01*
X143044669Y-111507999D01*
X143051490Y-111507629D01*
X143102352Y-111502105D01*
X143117604Y-111498479D01*
X143238054Y-111453324D01*
X143253649Y-111444786D01*
X143355724Y-111368285D01*
X143368285Y-111355724D01*
X143444786Y-111253649D01*
X143453324Y-111238054D01*
X143498478Y-111117606D01*
X143502105Y-111102351D01*
X143507631Y-111051486D01*
X143508000Y-111044672D01*
X143508000Y-111044669D01*
X154492001Y-111044669D01*
X154492371Y-111051490D01*
X154497895Y-111102352D01*
X154501521Y-111117604D01*
X154546676Y-111238054D01*
X154555214Y-111253649D01*
X154631715Y-111355724D01*
X154644276Y-111368285D01*
X154746351Y-111444786D01*
X154761946Y-111453324D01*
X154882394Y-111498478D01*
X154897649Y-111502105D01*
X154948514Y-111507631D01*
X154955328Y-111508000D01*
X157727885Y-111508000D01*
X157743124Y-111503525D01*
X157744329Y-111502135D01*
X157746000Y-111494452D01*
X157746000Y-111489884D01*
X158254000Y-111489884D01*
X158258475Y-111505123D01*
X158259865Y-111506328D01*
X158267548Y-111507999D01*
X161044669Y-111507999D01*
X161051490Y-111507629D01*
X161102352Y-111502105D01*
X161117604Y-111498479D01*
X161238054Y-111453324D01*
X161253649Y-111444786D01*
X161355724Y-111368285D01*
X161368285Y-111355724D01*
X161444786Y-111253649D01*
X161453324Y-111238054D01*
X161498478Y-111117606D01*
X161502105Y-111102351D01*
X161507631Y-111051486D01*
X161508000Y-111044672D01*
X161508000Y-109272115D01*
X161503525Y-109256876D01*
X161502135Y-109255671D01*
X161494452Y-109254000D01*
X158272115Y-109254000D01*
X158256876Y-109258475D01*
X158255671Y-109259865D01*
X158254000Y-109267548D01*
X158254000Y-111489884D01*
X157746000Y-111489884D01*
X157746000Y-109272115D01*
X157741525Y-109256876D01*
X157740135Y-109255671D01*
X157732452Y-109254000D01*
X154510116Y-109254000D01*
X154494877Y-109258475D01*
X154493672Y-109259865D01*
X154492001Y-109267548D01*
X154492001Y-111044669D01*
X143508000Y-111044669D01*
X143508000Y-109272115D01*
X143503525Y-109256876D01*
X143502135Y-109255671D01*
X143494452Y-109254000D01*
X140272115Y-109254000D01*
X140256876Y-109258475D01*
X140255671Y-109259865D01*
X140254000Y-109267548D01*
X140254000Y-111489884D01*
X139746000Y-111489884D01*
X139746000Y-109272115D01*
X139741525Y-109256876D01*
X139740135Y-109255671D01*
X139732452Y-109254000D01*
X136510116Y-109254000D01*
X136494877Y-109258475D01*
X136493672Y-109259865D01*
X136492001Y-109267548D01*
X136492001Y-111044669D01*
X99508000Y-111044669D01*
X99508000Y-108727885D01*
X136492000Y-108727885D01*
X136496475Y-108743124D01*
X136497865Y-108744329D01*
X136505548Y-108746000D01*
X139727885Y-108746000D01*
X139743124Y-108741525D01*
X139744329Y-108740135D01*
X139746000Y-108732452D01*
X139746000Y-108727885D01*
X140254000Y-108727885D01*
X140258475Y-108743124D01*
X140259865Y-108744329D01*
X140267548Y-108746000D01*
X143489884Y-108746000D01*
X143505123Y-108741525D01*
X143506328Y-108740135D01*
X143507999Y-108732452D01*
X143507999Y-108727885D01*
X154492000Y-108727885D01*
X154496475Y-108743124D01*
X154497865Y-108744329D01*
X154505548Y-108746000D01*
X157727885Y-108746000D01*
X157743124Y-108741525D01*
X157744329Y-108740135D01*
X157746000Y-108732452D01*
X157746000Y-108727885D01*
X158254000Y-108727885D01*
X158258475Y-108743124D01*
X158259865Y-108744329D01*
X158267548Y-108746000D01*
X161489884Y-108746000D01*
X161505123Y-108741525D01*
X161506328Y-108740135D01*
X161507999Y-108732452D01*
X161507999Y-106955331D01*
X161507629Y-106948510D01*
X161502105Y-106897648D01*
X161498479Y-106882396D01*
X161453324Y-106761946D01*
X161444786Y-106746351D01*
X161368285Y-106644276D01*
X161355724Y-106631715D01*
X161253649Y-106555214D01*
X161238054Y-106546676D01*
X161117606Y-106501522D01*
X161102351Y-106497895D01*
X161051486Y-106492369D01*
X161044672Y-106492000D01*
X158272115Y-106492000D01*
X158256876Y-106496475D01*
X158255671Y-106497865D01*
X158254000Y-106505548D01*
X158254000Y-108727885D01*
X157746000Y-108727885D01*
X157746000Y-106510116D01*
X157741525Y-106494877D01*
X157740135Y-106493672D01*
X157732452Y-106492001D01*
X154955331Y-106492001D01*
X154948510Y-106492371D01*
X154897648Y-106497895D01*
X154882396Y-106501521D01*
X154761946Y-106546676D01*
X154746351Y-106555214D01*
X154644276Y-106631715D01*
X154631715Y-106644276D01*
X154555214Y-106746351D01*
X154546676Y-106761946D01*
X154501522Y-106882394D01*
X154497895Y-106897649D01*
X154492369Y-106948514D01*
X154492000Y-106955328D01*
X154492000Y-108727885D01*
X143507999Y-108727885D01*
X143507999Y-106955331D01*
X143507629Y-106948510D01*
X143502105Y-106897648D01*
X143498479Y-106882396D01*
X143453324Y-106761946D01*
X143444786Y-106746351D01*
X143368285Y-106644276D01*
X143355724Y-106631715D01*
X143253649Y-106555214D01*
X143238054Y-106546676D01*
X143117606Y-106501522D01*
X143102351Y-106497895D01*
X143051486Y-106492369D01*
X143044672Y-106492000D01*
X140272115Y-106492000D01*
X140256876Y-106496475D01*
X140255671Y-106497865D01*
X140254000Y-106505548D01*
X140254000Y-108727885D01*
X139746000Y-108727885D01*
X139746000Y-106510116D01*
X139741525Y-106494877D01*
X139740135Y-106493672D01*
X139732452Y-106492001D01*
X136955331Y-106492001D01*
X136948510Y-106492371D01*
X136897648Y-106497895D01*
X136882396Y-106501521D01*
X136761946Y-106546676D01*
X136746351Y-106555214D01*
X136644276Y-106631715D01*
X136631715Y-106644276D01*
X136555214Y-106746351D01*
X136546676Y-106761946D01*
X136501522Y-106882394D01*
X136497895Y-106897649D01*
X136492369Y-106948514D01*
X136492000Y-106955328D01*
X136492000Y-108727885D01*
X99508000Y-108727885D01*
X99508000Y-103453839D01*
X138237173Y-103453839D01*
X138249713Y-103714908D01*
X138300704Y-103971256D01*
X138389026Y-104217252D01*
X138391242Y-104221376D01*
X138455753Y-104341437D01*
X138512737Y-104447491D01*
X138515532Y-104451234D01*
X138515534Y-104451237D01*
X138666330Y-104653177D01*
X138666335Y-104653183D01*
X138669122Y-104656915D01*
X138672431Y-104660195D01*
X138672436Y-104660201D01*
X138851426Y-104837635D01*
X138854743Y-104840923D01*
X138858505Y-104843681D01*
X138858508Y-104843684D01*
X139061750Y-104992707D01*
X139065524Y-104995474D01*
X139069667Y-104997654D01*
X139069669Y-104997655D01*
X139292684Y-105114989D01*
X139292689Y-105114991D01*
X139296834Y-105117172D01*
X139543590Y-105203344D01*
X139548183Y-105204216D01*
X139795785Y-105251224D01*
X139795788Y-105251224D01*
X139800374Y-105252095D01*
X139930959Y-105257226D01*
X140056875Y-105262174D01*
X140056881Y-105262174D01*
X140061543Y-105262357D01*
X140140977Y-105253657D01*
X140316707Y-105234412D01*
X140316712Y-105234411D01*
X140321360Y-105233902D01*
X140434116Y-105204216D01*
X140569594Y-105168548D01*
X140569596Y-105168547D01*
X140574117Y-105167357D01*
X140814262Y-105064182D01*
X141036519Y-104926646D01*
X141040082Y-104923629D01*
X141040087Y-104923626D01*
X141232439Y-104760787D01*
X141232440Y-104760786D01*
X141236005Y-104757768D01*
X141327729Y-104653177D01*
X141405257Y-104564774D01*
X141405261Y-104564769D01*
X141408339Y-104561259D01*
X141549733Y-104341437D01*
X141657083Y-104103129D01*
X141728030Y-103851572D01*
X141744832Y-103719496D01*
X141760616Y-103595421D01*
X141760616Y-103595417D01*
X141761014Y-103592291D01*
X141763431Y-103500000D01*
X141760001Y-103453839D01*
X156237173Y-103453839D01*
X156249713Y-103714908D01*
X156300704Y-103971256D01*
X156389026Y-104217252D01*
X156391242Y-104221376D01*
X156455753Y-104341437D01*
X156512737Y-104447491D01*
X156515532Y-104451234D01*
X156515534Y-104451237D01*
X156666330Y-104653177D01*
X156666335Y-104653183D01*
X156669122Y-104656915D01*
X156672431Y-104660195D01*
X156672436Y-104660201D01*
X156851426Y-104837635D01*
X156854743Y-104840923D01*
X156858505Y-104843681D01*
X156858508Y-104843684D01*
X157061750Y-104992707D01*
X157065524Y-104995474D01*
X157069667Y-104997654D01*
X157069669Y-104997655D01*
X157292684Y-105114989D01*
X157292689Y-105114991D01*
X157296834Y-105117172D01*
X157543590Y-105203344D01*
X157548183Y-105204216D01*
X157795785Y-105251224D01*
X157795788Y-105251224D01*
X157800374Y-105252095D01*
X157930959Y-105257226D01*
X158056875Y-105262174D01*
X158056881Y-105262174D01*
X158061543Y-105262357D01*
X158140977Y-105253657D01*
X158316707Y-105234412D01*
X158316712Y-105234411D01*
X158321360Y-105233902D01*
X158434116Y-105204216D01*
X158569594Y-105168548D01*
X158569596Y-105168547D01*
X158574117Y-105167357D01*
X158814262Y-105064182D01*
X159036519Y-104926646D01*
X159040082Y-104923629D01*
X159040087Y-104923626D01*
X159232439Y-104760787D01*
X159232440Y-104760786D01*
X159236005Y-104757768D01*
X159327729Y-104653177D01*
X159405257Y-104564774D01*
X159405261Y-104564769D01*
X159408339Y-104561259D01*
X159549733Y-104341437D01*
X159657083Y-104103129D01*
X159728030Y-103851572D01*
X159744832Y-103719496D01*
X159760616Y-103595421D01*
X159760616Y-103595417D01*
X159761014Y-103592291D01*
X159763431Y-103500000D01*
X159744061Y-103239348D01*
X159732725Y-103189248D01*
X159687408Y-102988980D01*
X159686377Y-102984423D01*
X159596102Y-102752278D01*
X159593340Y-102745176D01*
X159593339Y-102745173D01*
X159591647Y-102740823D01*
X159587692Y-102733902D01*
X159490688Y-102564182D01*
X159461951Y-102513902D01*
X159300138Y-102308643D01*
X159109763Y-102129557D01*
X158895009Y-101980576D01*
X158890816Y-101978508D01*
X158664781Y-101867040D01*
X158664778Y-101867039D01*
X158660593Y-101864975D01*
X158614449Y-101850204D01*
X158416123Y-101786720D01*
X158411665Y-101785293D01*
X158153693Y-101743279D01*
X158039942Y-101741790D01*
X157897022Y-101739919D01*
X157897019Y-101739919D01*
X157892345Y-101739858D01*
X157633362Y-101775104D01*
X157382433Y-101848243D01*
X157378180Y-101850203D01*
X157378179Y-101850204D01*
X157341659Y-101867040D01*
X157145072Y-101957668D01*
X157106067Y-101983241D01*
X156930404Y-102098410D01*
X156930399Y-102098414D01*
X156926491Y-102100976D01*
X156731494Y-102275018D01*
X156564363Y-102475970D01*
X156561934Y-102479973D01*
X156448227Y-102667357D01*
X156428771Y-102699419D01*
X156327697Y-102940455D01*
X156263359Y-103193783D01*
X156237173Y-103453839D01*
X141760001Y-103453839D01*
X141744061Y-103239348D01*
X141732725Y-103189248D01*
X141687408Y-102988980D01*
X141686377Y-102984423D01*
X141596102Y-102752278D01*
X141593340Y-102745176D01*
X141593339Y-102745173D01*
X141591647Y-102740823D01*
X141587692Y-102733902D01*
X141490688Y-102564182D01*
X141461951Y-102513902D01*
X141300138Y-102308643D01*
X141109763Y-102129557D01*
X140895009Y-101980576D01*
X140890816Y-101978508D01*
X140664781Y-101867040D01*
X140664778Y-101867039D01*
X140660593Y-101864975D01*
X140614449Y-101850204D01*
X140416123Y-101786720D01*
X140411665Y-101785293D01*
X140153693Y-101743279D01*
X140039942Y-101741790D01*
X139897022Y-101739919D01*
X139897019Y-101739919D01*
X139892345Y-101739858D01*
X139633362Y-101775104D01*
X139382433Y-101848243D01*
X139378180Y-101850203D01*
X139378179Y-101850204D01*
X139341659Y-101867040D01*
X139145072Y-101957668D01*
X139106067Y-101983241D01*
X138930404Y-102098410D01*
X138930399Y-102098414D01*
X138926491Y-102100976D01*
X138731494Y-102275018D01*
X138564363Y-102475970D01*
X138561934Y-102479973D01*
X138448227Y-102667357D01*
X138428771Y-102699419D01*
X138327697Y-102940455D01*
X138263359Y-103193783D01*
X138237173Y-103453839D01*
X99508000Y-103453839D01*
X99508000Y-98019387D01*
X108611633Y-98019387D01*
X108617343Y-98077098D01*
X108622154Y-98125733D01*
X108622315Y-98127484D01*
X108624946Y-98158489D01*
X108631349Y-98233948D01*
X108632690Y-98239115D01*
X108633423Y-98243402D01*
X108634223Y-98247722D01*
X108634749Y-98253035D01*
X108636161Y-98258179D01*
X108636162Y-98258184D01*
X108663038Y-98356090D01*
X108663492Y-98357790D01*
X108663607Y-98358233D01*
X108690333Y-98461206D01*
X108692523Y-98466067D01*
X108693941Y-98470095D01*
X108695485Y-98474293D01*
X108696900Y-98479447D01*
X108699160Y-98484282D01*
X108699162Y-98484288D01*
X108742146Y-98576258D01*
X108742880Y-98577856D01*
X108749827Y-98593277D01*
X108786766Y-98675278D01*
X108789748Y-98679708D01*
X108791909Y-98683590D01*
X108794055Y-98687323D01*
X108796312Y-98692151D01*
X108799351Y-98696531D01*
X108799354Y-98696537D01*
X108857266Y-98780017D01*
X108858258Y-98781469D01*
X108914907Y-98865614D01*
X108914911Y-98865618D01*
X108917888Y-98870041D01*
X108921567Y-98873898D01*
X108924801Y-98877920D01*
X108925172Y-98878412D01*
X108925185Y-98878402D01*
X108927776Y-98881656D01*
X108930140Y-98885064D01*
X108932932Y-98888132D01*
X108932934Y-98888135D01*
X108945707Y-98902173D01*
X108945721Y-98902187D01*
X108946714Y-98903279D01*
X109008207Y-98964772D01*
X109010282Y-98966895D01*
X109079951Y-99039927D01*
X109084236Y-99043115D01*
X109084237Y-99043116D01*
X109085902Y-99044355D01*
X109099784Y-99056349D01*
X110168100Y-100124664D01*
X111220542Y-101177106D01*
X111255026Y-101241619D01*
X111300704Y-101471256D01*
X111389026Y-101717252D01*
X111391242Y-101721376D01*
X111459410Y-101848243D01*
X111512737Y-101947491D01*
X111515532Y-101951234D01*
X111515534Y-101951237D01*
X111666330Y-102153177D01*
X111666335Y-102153183D01*
X111669122Y-102156915D01*
X111672431Y-102160195D01*
X111672436Y-102160201D01*
X111818952Y-102305443D01*
X111854743Y-102340923D01*
X111858505Y-102343681D01*
X111858508Y-102343684D01*
X112034018Y-102472373D01*
X112065524Y-102495474D01*
X112069667Y-102497654D01*
X112069669Y-102497655D01*
X112292684Y-102614989D01*
X112292689Y-102614991D01*
X112296834Y-102617172D01*
X112435254Y-102665511D01*
X112532351Y-102699419D01*
X112543590Y-102703344D01*
X112548183Y-102704216D01*
X112795785Y-102751224D01*
X112795788Y-102751224D01*
X112800374Y-102752095D01*
X112930959Y-102757226D01*
X113056875Y-102762174D01*
X113056881Y-102762174D01*
X113061543Y-102762357D01*
X113140977Y-102753657D01*
X113316707Y-102734412D01*
X113316712Y-102734411D01*
X113321360Y-102733902D01*
X113435951Y-102703733D01*
X113569594Y-102668548D01*
X113569596Y-102668547D01*
X113574117Y-102667357D01*
X113814262Y-102564182D01*
X114036519Y-102426646D01*
X114040082Y-102423629D01*
X114040087Y-102423626D01*
X114232439Y-102260787D01*
X114232440Y-102260786D01*
X114236005Y-102257768D01*
X114345632Y-102132763D01*
X114405257Y-102064774D01*
X114405261Y-102064769D01*
X114408339Y-102061259D01*
X114549733Y-101841437D01*
X114657083Y-101603129D01*
X114694275Y-101471256D01*
X114726760Y-101356076D01*
X114726761Y-101356073D01*
X114728030Y-101351572D01*
X114740527Y-101253334D01*
X114760616Y-101095421D01*
X114760616Y-101095417D01*
X114761014Y-101092291D01*
X114763431Y-101000000D01*
X114760001Y-100953839D01*
X121237173Y-100953839D01*
X121249713Y-101214908D01*
X121300704Y-101471256D01*
X121389026Y-101717252D01*
X121391242Y-101721376D01*
X121459410Y-101848243D01*
X121512737Y-101947491D01*
X121515532Y-101951234D01*
X121515534Y-101951237D01*
X121666330Y-102153177D01*
X121666335Y-102153183D01*
X121669122Y-102156915D01*
X121672431Y-102160195D01*
X121672436Y-102160201D01*
X121818952Y-102305443D01*
X121854743Y-102340923D01*
X121858505Y-102343681D01*
X121858508Y-102343684D01*
X122034018Y-102472373D01*
X122065524Y-102495474D01*
X122069667Y-102497654D01*
X122069669Y-102497655D01*
X122292684Y-102614989D01*
X122292689Y-102614991D01*
X122296834Y-102617172D01*
X122435254Y-102665511D01*
X122532351Y-102699419D01*
X122543590Y-102703344D01*
X122548183Y-102704216D01*
X122795785Y-102751224D01*
X122795788Y-102751224D01*
X122800374Y-102752095D01*
X122930959Y-102757226D01*
X123056875Y-102762174D01*
X123056881Y-102762174D01*
X123061543Y-102762357D01*
X123140977Y-102753657D01*
X123316707Y-102734412D01*
X123316712Y-102734411D01*
X123321360Y-102733902D01*
X123435951Y-102703733D01*
X123569594Y-102668548D01*
X123569596Y-102668547D01*
X123574117Y-102667357D01*
X123814262Y-102564182D01*
X124036519Y-102426646D01*
X124040082Y-102423629D01*
X124040087Y-102423626D01*
X124232439Y-102260787D01*
X124232440Y-102260786D01*
X124236005Y-102257768D01*
X124345632Y-102132763D01*
X124405257Y-102064774D01*
X124405261Y-102064769D01*
X124408339Y-102061259D01*
X124549733Y-101841437D01*
X124657083Y-101603129D01*
X124694275Y-101471256D01*
X124726760Y-101356076D01*
X124726761Y-101356073D01*
X124728030Y-101351572D01*
X124740527Y-101253334D01*
X124768966Y-101188282D01*
X124776425Y-101180140D01*
X125036160Y-100920405D01*
X125098472Y-100886379D01*
X125125255Y-100883500D01*
X133558950Y-100883500D01*
X133640299Y-100876597D01*
X133728637Y-100869102D01*
X133728641Y-100869101D01*
X133733948Y-100868651D01*
X133739103Y-100867313D01*
X133739109Y-100867312D01*
X133956035Y-100811009D01*
X133956034Y-100811009D01*
X133961206Y-100809667D01*
X133966072Y-100807475D01*
X133966075Y-100807474D01*
X134170417Y-100715424D01*
X134170420Y-100715423D01*
X134175278Y-100713234D01*
X134370041Y-100582112D01*
X134539927Y-100420049D01*
X134680078Y-100231679D01*
X134682496Y-100226923D01*
X134682501Y-100226915D01*
X134720087Y-100152990D01*
X134768790Y-100101332D01*
X134837690Y-100084206D01*
X134904911Y-100107049D01*
X134935616Y-100137825D01*
X135059860Y-100315265D01*
X135059864Y-100315270D01*
X135063023Y-100319781D01*
X135220219Y-100476977D01*
X135224727Y-100480134D01*
X135224730Y-100480136D01*
X135255591Y-100501745D01*
X135402323Y-100604488D01*
X135407305Y-100606811D01*
X135407310Y-100606814D01*
X135593817Y-100693783D01*
X135603804Y-100698440D01*
X135609112Y-100699862D01*
X135609114Y-100699863D01*
X135667189Y-100715424D01*
X135818537Y-100755978D01*
X136040000Y-100775353D01*
X136261463Y-100755978D01*
X136412811Y-100715424D01*
X136470886Y-100699863D01*
X136470888Y-100699862D01*
X136476196Y-100698440D01*
X136486183Y-100693783D01*
X136672690Y-100606814D01*
X136672695Y-100606811D01*
X136677677Y-100604488D01*
X136824409Y-100501745D01*
X136855270Y-100480136D01*
X136855273Y-100480134D01*
X136859781Y-100476977D01*
X137016977Y-100319781D01*
X137020140Y-100315265D01*
X137141331Y-100142185D01*
X137141332Y-100142183D01*
X137144488Y-100137676D01*
X137146811Y-100132694D01*
X137146814Y-100132689D01*
X137186243Y-100048134D01*
X142616500Y-100048134D01*
X142623255Y-100110316D01*
X142674385Y-100246705D01*
X142761739Y-100363261D01*
X142878295Y-100450615D01*
X143014684Y-100501745D01*
X143076866Y-100508500D01*
X144923134Y-100508500D01*
X144985316Y-100501745D01*
X145121705Y-100450615D01*
X145238261Y-100363261D01*
X145325615Y-100246705D01*
X145376745Y-100110316D01*
X145383500Y-100048134D01*
X152616500Y-100048134D01*
X152623255Y-100110316D01*
X152674385Y-100246705D01*
X152761739Y-100363261D01*
X152878295Y-100450615D01*
X153014684Y-100501745D01*
X153076866Y-100508500D01*
X154923134Y-100508500D01*
X154985316Y-100501745D01*
X155121705Y-100450615D01*
X155238261Y-100363261D01*
X155325615Y-100246705D01*
X155376745Y-100110316D01*
X155383500Y-100048134D01*
X155383500Y-98951866D01*
X155376745Y-98889684D01*
X155325615Y-98753295D01*
X155238261Y-98636739D01*
X155121705Y-98549385D01*
X154985316Y-98498255D01*
X154923134Y-98491500D01*
X153076866Y-98491500D01*
X153014684Y-98498255D01*
X152878295Y-98549385D01*
X152761739Y-98636739D01*
X152674385Y-98753295D01*
X152623255Y-98889684D01*
X152616500Y-98951866D01*
X152616500Y-100048134D01*
X145383500Y-100048134D01*
X145383500Y-98951866D01*
X145376745Y-98889684D01*
X145325615Y-98753295D01*
X145238261Y-98636739D01*
X145121705Y-98549385D01*
X144985316Y-98498255D01*
X144923134Y-98491500D01*
X143076866Y-98491500D01*
X143014684Y-98498255D01*
X142878295Y-98549385D01*
X142761739Y-98636739D01*
X142674385Y-98753295D01*
X142623255Y-98889684D01*
X142616500Y-98951866D01*
X142616500Y-100048134D01*
X137186243Y-100048134D01*
X137236117Y-99941178D01*
X137236118Y-99941177D01*
X137238440Y-99936196D01*
X137295978Y-99721463D01*
X137315353Y-99500000D01*
X137295978Y-99278537D01*
X137255246Y-99126524D01*
X137239863Y-99069114D01*
X137239862Y-99069112D01*
X137238440Y-99063804D01*
X137206135Y-98994525D01*
X137146814Y-98867311D01*
X137146811Y-98867306D01*
X137144488Y-98862324D01*
X137138254Y-98853421D01*
X137020136Y-98684730D01*
X137020134Y-98684727D01*
X137016977Y-98680219D01*
X136859781Y-98523023D01*
X136855273Y-98519866D01*
X136855270Y-98519864D01*
X136764127Y-98456045D01*
X136677677Y-98395512D01*
X136672695Y-98393189D01*
X136672690Y-98393186D01*
X136481178Y-98303883D01*
X136481177Y-98303882D01*
X136476196Y-98301560D01*
X136470888Y-98300138D01*
X136470886Y-98300137D01*
X136405051Y-98282497D01*
X136261463Y-98244022D01*
X136040000Y-98224647D01*
X135818537Y-98244022D01*
X135674949Y-98282497D01*
X135609114Y-98300137D01*
X135609112Y-98300138D01*
X135603804Y-98301560D01*
X135598823Y-98303882D01*
X135598822Y-98303883D01*
X135407311Y-98393186D01*
X135407306Y-98393189D01*
X135402324Y-98395512D01*
X135397817Y-98398668D01*
X135397815Y-98398669D01*
X135224730Y-98519864D01*
X135224727Y-98519866D01*
X135220219Y-98523023D01*
X135063023Y-98680219D01*
X135059866Y-98684727D01*
X135059864Y-98684730D01*
X134936910Y-98860327D01*
X134881453Y-98904655D01*
X134810834Y-98911964D01*
X134747473Y-98879933D01*
X134725978Y-98853421D01*
X134624667Y-98686466D01*
X134624665Y-98686464D01*
X134621896Y-98681900D01*
X134468015Y-98504568D01*
X134408837Y-98456045D01*
X134290584Y-98359083D01*
X134290578Y-98359079D01*
X134286456Y-98355699D01*
X134281820Y-98353060D01*
X134281817Y-98353058D01*
X134106101Y-98253035D01*
X134082410Y-98239549D01*
X133861711Y-98159439D01*
X133856462Y-98158490D01*
X133856459Y-98158489D01*
X133732987Y-98136162D01*
X133630670Y-98117660D01*
X133626531Y-98117465D01*
X133626524Y-98117464D01*
X133607560Y-98116570D01*
X133607551Y-98116570D01*
X133606071Y-98116500D01*
X124553790Y-98116500D01*
X124544891Y-98116185D01*
X124485941Y-98112011D01*
X124485938Y-98112011D01*
X124480613Y-98111634D01*
X124422247Y-98117408D01*
X124374305Y-98122151D01*
X124372553Y-98122312D01*
X124313558Y-98127318D01*
X124266052Y-98131349D01*
X124260884Y-98132690D01*
X124256598Y-98133423D01*
X124252280Y-98134223D01*
X124246965Y-98134749D01*
X124143860Y-98163052D01*
X124142272Y-98163476D01*
X124038794Y-98190333D01*
X124033923Y-98192527D01*
X124029801Y-98193979D01*
X124025699Y-98195488D01*
X124020552Y-98196901D01*
X123923673Y-98242179D01*
X123922173Y-98242868D01*
X123888172Y-98258184D01*
X123829587Y-98284574D01*
X123829582Y-98284577D01*
X123824722Y-98286766D01*
X123820295Y-98289746D01*
X123816418Y-98291904D01*
X123812683Y-98294052D01*
X123807848Y-98296312D01*
X123796935Y-98303883D01*
X123720021Y-98357240D01*
X123718568Y-98358233D01*
X123712492Y-98362324D01*
X123629959Y-98417888D01*
X123626094Y-98421575D01*
X123622089Y-98424795D01*
X123621586Y-98425175D01*
X123621596Y-98425187D01*
X123618345Y-98427776D01*
X123614935Y-98430141D01*
X123596721Y-98446714D01*
X123535229Y-98508206D01*
X123533106Y-98510281D01*
X123460073Y-98579951D01*
X123456890Y-98584229D01*
X123455649Y-98585897D01*
X123443656Y-98599779D01*
X123131472Y-98911964D01*
X122819622Y-99223814D01*
X122757309Y-99257839D01*
X122747517Y-99259568D01*
X122682034Y-99268480D01*
X122633362Y-99275104D01*
X122628876Y-99276412D01*
X122628874Y-99276412D01*
X122602786Y-99284016D01*
X122382433Y-99348243D01*
X122378180Y-99350203D01*
X122378179Y-99350204D01*
X122342340Y-99366726D01*
X122145072Y-99457668D01*
X122106067Y-99483241D01*
X121930404Y-99598410D01*
X121930399Y-99598414D01*
X121926491Y-99600976D01*
X121731494Y-99775018D01*
X121564363Y-99975970D01*
X121561934Y-99979973D01*
X121442441Y-100176892D01*
X121428771Y-100199419D01*
X121327697Y-100440455D01*
X121263359Y-100693783D01*
X121237173Y-100953839D01*
X114760001Y-100953839D01*
X114757516Y-100920405D01*
X114744407Y-100744000D01*
X114744406Y-100743996D01*
X114744061Y-100739348D01*
X114735127Y-100699863D01*
X114691742Y-100508131D01*
X114686377Y-100484423D01*
X114684684Y-100480069D01*
X114593340Y-100245176D01*
X114593339Y-100245173D01*
X114591647Y-100240823D01*
X114568237Y-100199863D01*
X114515189Y-100107049D01*
X114461951Y-100013902D01*
X114300138Y-99808643D01*
X114109763Y-99629557D01*
X113930901Y-99505475D01*
X113898851Y-99483241D01*
X113898848Y-99483239D01*
X113895009Y-99480576D01*
X113890816Y-99478508D01*
X113664781Y-99367040D01*
X113664778Y-99367039D01*
X113660593Y-99364975D01*
X113650397Y-99361711D01*
X113416123Y-99286720D01*
X113411665Y-99285293D01*
X113248928Y-99258789D01*
X113180087Y-99223523D01*
X111420405Y-97463841D01*
X111386379Y-97401529D01*
X111383500Y-97374746D01*
X111383500Y-95048134D01*
X142616500Y-95048134D01*
X142623255Y-95110316D01*
X142674385Y-95246705D01*
X142761739Y-95363261D01*
X142878295Y-95450615D01*
X143014684Y-95501745D01*
X143076866Y-95508500D01*
X144923134Y-95508500D01*
X144985316Y-95501745D01*
X145121705Y-95450615D01*
X145238261Y-95363261D01*
X145325615Y-95246705D01*
X145376745Y-95110316D01*
X145383500Y-95048134D01*
X152616500Y-95048134D01*
X152623255Y-95110316D01*
X152674385Y-95246705D01*
X152761739Y-95363261D01*
X152878295Y-95450615D01*
X153014684Y-95501745D01*
X153076866Y-95508500D01*
X154923134Y-95508500D01*
X154985316Y-95501745D01*
X155121705Y-95450615D01*
X155238261Y-95363261D01*
X155325615Y-95246705D01*
X155376745Y-95110316D01*
X155383500Y-95048134D01*
X155383500Y-93951866D01*
X155376745Y-93889684D01*
X155325615Y-93753295D01*
X155238261Y-93636739D01*
X155121705Y-93549385D01*
X154985316Y-93498255D01*
X154923134Y-93491500D01*
X153076866Y-93491500D01*
X153014684Y-93498255D01*
X152878295Y-93549385D01*
X152761739Y-93636739D01*
X152674385Y-93753295D01*
X152623255Y-93889684D01*
X152616500Y-93951866D01*
X152616500Y-95048134D01*
X145383500Y-95048134D01*
X145383500Y-93951866D01*
X145376745Y-93889684D01*
X145325615Y-93753295D01*
X145238261Y-93636739D01*
X145121705Y-93549385D01*
X144985316Y-93498255D01*
X144923134Y-93491500D01*
X143076866Y-93491500D01*
X143014684Y-93498255D01*
X142878295Y-93549385D01*
X142761739Y-93636739D01*
X142674385Y-93753295D01*
X142623255Y-93889684D01*
X142616500Y-93951866D01*
X142616500Y-95048134D01*
X111383500Y-95048134D01*
X111383500Y-92153744D01*
X111403502Y-92085623D01*
X111457158Y-92039130D01*
X111527432Y-92029026D01*
X111592012Y-92058520D01*
X111610458Y-92078355D01*
X111666330Y-92153177D01*
X111666335Y-92153183D01*
X111669122Y-92156915D01*
X111672431Y-92160195D01*
X111672436Y-92160201D01*
X111775488Y-92262357D01*
X111854743Y-92340923D01*
X111858505Y-92343681D01*
X111858508Y-92343684D01*
X112061750Y-92492707D01*
X112065524Y-92495474D01*
X112069667Y-92497654D01*
X112069669Y-92497655D01*
X112292684Y-92614989D01*
X112292689Y-92614991D01*
X112296834Y-92617172D01*
X112543590Y-92703344D01*
X112548183Y-92704216D01*
X112795785Y-92751224D01*
X112795788Y-92751224D01*
X112800374Y-92752095D01*
X112930959Y-92757226D01*
X113056875Y-92762174D01*
X113056881Y-92762174D01*
X113061543Y-92762357D01*
X113140977Y-92753657D01*
X113316707Y-92734412D01*
X113316712Y-92734411D01*
X113321360Y-92733902D01*
X113434116Y-92704216D01*
X113569594Y-92668548D01*
X113569596Y-92668547D01*
X113574117Y-92667357D01*
X113814262Y-92564182D01*
X114036519Y-92426646D01*
X114040082Y-92423629D01*
X114040087Y-92423626D01*
X114232439Y-92260787D01*
X114232440Y-92260786D01*
X114236005Y-92257768D01*
X114314249Y-92168548D01*
X114405257Y-92064774D01*
X114405261Y-92064769D01*
X114408339Y-92061259D01*
X114449251Y-91997655D01*
X114547205Y-91845367D01*
X114549733Y-91841437D01*
X114657083Y-91603129D01*
X114728030Y-91351572D01*
X114728820Y-91345367D01*
X114740527Y-91253333D01*
X114768966Y-91188281D01*
X114776425Y-91180139D01*
X116036159Y-89920405D01*
X116098471Y-89886379D01*
X116125254Y-89883500D01*
X121396633Y-89883500D01*
X121464754Y-89903502D01*
X121511247Y-89957158D01*
X121521351Y-90027432D01*
X121504352Y-90074865D01*
X121434943Y-90189248D01*
X121428771Y-90199419D01*
X121327697Y-90440455D01*
X121263359Y-90693783D01*
X121262891Y-90698434D01*
X121262890Y-90698438D01*
X121257127Y-90755671D01*
X121237173Y-90953839D01*
X121237397Y-90958505D01*
X121237397Y-90958511D01*
X121243443Y-91084374D01*
X121249713Y-91214908D01*
X121300704Y-91471256D01*
X121389026Y-91717252D01*
X121391242Y-91721376D01*
X121501537Y-91926646D01*
X121512737Y-91947491D01*
X121515532Y-91951234D01*
X121515534Y-91951237D01*
X121666330Y-92153177D01*
X121666335Y-92153183D01*
X121669122Y-92156915D01*
X121672431Y-92160195D01*
X121672436Y-92160201D01*
X121775488Y-92262357D01*
X121854743Y-92340923D01*
X121858505Y-92343681D01*
X121858508Y-92343684D01*
X122061750Y-92492707D01*
X122065524Y-92495474D01*
X122069667Y-92497654D01*
X122069669Y-92497655D01*
X122292684Y-92614989D01*
X122292689Y-92614991D01*
X122296834Y-92617172D01*
X122543590Y-92703344D01*
X122548183Y-92704216D01*
X122795785Y-92751224D01*
X122795788Y-92751224D01*
X122800374Y-92752095D01*
X122930959Y-92757226D01*
X123056875Y-92762174D01*
X123056881Y-92762174D01*
X123061543Y-92762357D01*
X123140977Y-92753657D01*
X123316707Y-92734412D01*
X123316712Y-92734411D01*
X123321360Y-92733902D01*
X123434116Y-92704216D01*
X123569594Y-92668548D01*
X123569596Y-92668547D01*
X123574117Y-92667357D01*
X123814262Y-92564182D01*
X124036519Y-92426646D01*
X124040082Y-92423630D01*
X124040094Y-92423621D01*
X124052246Y-92413333D01*
X124117161Y-92384584D01*
X124133657Y-92383500D01*
X157222375Y-92383500D01*
X157290496Y-92403502D01*
X157311470Y-92420405D01*
X162407905Y-97516840D01*
X162441931Y-97579152D01*
X162436866Y-97649967D01*
X162394319Y-97706803D01*
X162327799Y-97731614D01*
X162307829Y-97731456D01*
X162235475Y-97725126D01*
X162230000Y-97724647D01*
X162008537Y-97744022D01*
X161864949Y-97782497D01*
X161799114Y-97800137D01*
X161799112Y-97800138D01*
X161793804Y-97801560D01*
X161788823Y-97803882D01*
X161788822Y-97803883D01*
X161597311Y-97893186D01*
X161597306Y-97893189D01*
X161592324Y-97895512D01*
X161587817Y-97898668D01*
X161587815Y-97898669D01*
X161414730Y-98019864D01*
X161414727Y-98019866D01*
X161410219Y-98023023D01*
X161253023Y-98180219D01*
X161249866Y-98184727D01*
X161249864Y-98184730D01*
X161129072Y-98357240D01*
X161125512Y-98362324D01*
X161123189Y-98367306D01*
X161123186Y-98367311D01*
X161038284Y-98549385D01*
X161031560Y-98563804D01*
X160974022Y-98778537D01*
X160954647Y-99000000D01*
X160974022Y-99221463D01*
X161031560Y-99436196D01*
X161033882Y-99441177D01*
X161033883Y-99441178D01*
X161123186Y-99632689D01*
X161123189Y-99632694D01*
X161125512Y-99637676D01*
X161128668Y-99642183D01*
X161128669Y-99642185D01*
X161229689Y-99786456D01*
X161253023Y-99819781D01*
X161410219Y-99976977D01*
X161414727Y-99980134D01*
X161414730Y-99980136D01*
X161475072Y-100022388D01*
X161592323Y-100104488D01*
X161597305Y-100106811D01*
X161597310Y-100106814D01*
X161759612Y-100182496D01*
X161793804Y-100198440D01*
X161799112Y-100199862D01*
X161799114Y-100199863D01*
X161864949Y-100217503D01*
X162008537Y-100255978D01*
X162230000Y-100275353D01*
X162451463Y-100255978D01*
X162595051Y-100217503D01*
X162660886Y-100199863D01*
X162660888Y-100199862D01*
X162666196Y-100198440D01*
X162700388Y-100182496D01*
X162862690Y-100106814D01*
X162862695Y-100106811D01*
X162867677Y-100104488D01*
X162984928Y-100022388D01*
X163045270Y-99980136D01*
X163045273Y-99980134D01*
X163049781Y-99976977D01*
X163206977Y-99819781D01*
X163230312Y-99786456D01*
X163332351Y-99640728D01*
X163387808Y-99596400D01*
X163458427Y-99589091D01*
X163521788Y-99621122D01*
X163550446Y-99661249D01*
X163556766Y-99675278D01*
X163687888Y-99870041D01*
X163849951Y-100039927D01*
X164038321Y-100180078D01*
X164043072Y-100182494D01*
X164043076Y-100182496D01*
X164183500Y-100253891D01*
X164247612Y-100286487D01*
X164471840Y-100356111D01*
X164477129Y-100356812D01*
X164699310Y-100386261D01*
X164699313Y-100386261D01*
X164704593Y-100386961D01*
X164709922Y-100386761D01*
X164709923Y-100386761D01*
X164794638Y-100383580D01*
X164939216Y-100378152D01*
X165051802Y-100354529D01*
X165163774Y-100331035D01*
X165163777Y-100331034D01*
X165169001Y-100329938D01*
X165387377Y-100243698D01*
X165561850Y-100137825D01*
X165583539Y-100124664D01*
X165583542Y-100124662D01*
X165588100Y-100121896D01*
X165765432Y-99968015D01*
X165795876Y-99930886D01*
X165910917Y-99790584D01*
X165910921Y-99790578D01*
X165914301Y-99786456D01*
X165975069Y-99679703D01*
X166027808Y-99587053D01*
X166030451Y-99582410D01*
X166110561Y-99361711D01*
X166112997Y-99348243D01*
X166151601Y-99134754D01*
X166152340Y-99130670D01*
X166153500Y-99106071D01*
X166153500Y-97976175D01*
X166153815Y-97967276D01*
X166157990Y-97908312D01*
X166157990Y-97908309D01*
X166158367Y-97902984D01*
X166147839Y-97796568D01*
X166147683Y-97794866D01*
X166138651Y-97688422D01*
X166137310Y-97683253D01*
X166136565Y-97678896D01*
X166135778Y-97674648D01*
X166135252Y-97669336D01*
X166129935Y-97649967D01*
X166106970Y-97566305D01*
X166106516Y-97564607D01*
X166081007Y-97466327D01*
X166079667Y-97461164D01*
X166077476Y-97456300D01*
X166076050Y-97452251D01*
X166074515Y-97448079D01*
X166073100Y-97442923D01*
X166070840Y-97438088D01*
X166070838Y-97438082D01*
X166027854Y-97346112D01*
X166027120Y-97344514D01*
X165985426Y-97251959D01*
X165983234Y-97247092D01*
X165980252Y-97242662D01*
X165978091Y-97238780D01*
X165975945Y-97235047D01*
X165973688Y-97230219D01*
X165970649Y-97225839D01*
X165970646Y-97225833D01*
X165912734Y-97142353D01*
X165911742Y-97140901D01*
X165855093Y-97056756D01*
X165855089Y-97056752D01*
X165852112Y-97052329D01*
X165848433Y-97048472D01*
X165845199Y-97044450D01*
X165844829Y-97043959D01*
X165844816Y-97043969D01*
X165842223Y-97040712D01*
X165839860Y-97037306D01*
X165823286Y-97019092D01*
X165761814Y-96957620D01*
X165759739Y-96955497D01*
X165693733Y-96886305D01*
X165690049Y-96882443D01*
X165684090Y-96878009D01*
X165670212Y-96866018D01*
X161304194Y-92500000D01*
X167686502Y-92500000D01*
X167706457Y-92728087D01*
X167707881Y-92733400D01*
X167707881Y-92733402D01*
X167715591Y-92762174D01*
X167765716Y-92949243D01*
X167768039Y-92954224D01*
X167768039Y-92954225D01*
X167860151Y-93151762D01*
X167860154Y-93151767D01*
X167862477Y-93156749D01*
X167993802Y-93344300D01*
X168155700Y-93506198D01*
X168160208Y-93509355D01*
X168160211Y-93509357D01*
X168210642Y-93544669D01*
X168343251Y-93637523D01*
X168348233Y-93639846D01*
X168348238Y-93639849D01*
X168545775Y-93731961D01*
X168550757Y-93734284D01*
X168556065Y-93735706D01*
X168556067Y-93735707D01*
X168766598Y-93792119D01*
X168766600Y-93792119D01*
X168771913Y-93793543D01*
X169000000Y-93813498D01*
X169228087Y-93793543D01*
X169233400Y-93792119D01*
X169233402Y-93792119D01*
X169443933Y-93735707D01*
X169443935Y-93735706D01*
X169449243Y-93734284D01*
X169454225Y-93731961D01*
X169651762Y-93639849D01*
X169651767Y-93639846D01*
X169656749Y-93637523D01*
X169789358Y-93544669D01*
X179992001Y-93544669D01*
X179992371Y-93551490D01*
X179997895Y-93602352D01*
X180001521Y-93617604D01*
X180046676Y-93738054D01*
X180055214Y-93753649D01*
X180131715Y-93855724D01*
X180144276Y-93868285D01*
X180246351Y-93944786D01*
X180261946Y-93953324D01*
X180382394Y-93998478D01*
X180397649Y-94002105D01*
X180448514Y-94007631D01*
X180455328Y-94008000D01*
X182227885Y-94008000D01*
X182243124Y-94003525D01*
X182244329Y-94002135D01*
X182246000Y-93994452D01*
X182246000Y-93989884D01*
X182754000Y-93989884D01*
X182758475Y-94005123D01*
X182759865Y-94006328D01*
X182767548Y-94007999D01*
X184544669Y-94007999D01*
X184551490Y-94007629D01*
X184602352Y-94002105D01*
X184617604Y-93998479D01*
X184738054Y-93953324D01*
X184753649Y-93944786D01*
X184855724Y-93868285D01*
X184868285Y-93855724D01*
X184944786Y-93753649D01*
X184953324Y-93738054D01*
X184998478Y-93617606D01*
X185002105Y-93602351D01*
X185007631Y-93551486D01*
X185008000Y-93544672D01*
X185008000Y-90772115D01*
X185003525Y-90756876D01*
X185002135Y-90755671D01*
X184994452Y-90754000D01*
X182772115Y-90754000D01*
X182756876Y-90758475D01*
X182755671Y-90759865D01*
X182754000Y-90767548D01*
X182754000Y-93989884D01*
X182246000Y-93989884D01*
X182246000Y-90772115D01*
X182241525Y-90756876D01*
X182240135Y-90755671D01*
X182232452Y-90754000D01*
X180010116Y-90754000D01*
X179994877Y-90758475D01*
X179993672Y-90759865D01*
X179992001Y-90767548D01*
X179992001Y-93544669D01*
X169789358Y-93544669D01*
X169839789Y-93509357D01*
X169839792Y-93509355D01*
X169844300Y-93506198D01*
X170006198Y-93344300D01*
X170137523Y-93156749D01*
X170139846Y-93151767D01*
X170139849Y-93151762D01*
X170231961Y-92954225D01*
X170231961Y-92954224D01*
X170234284Y-92949243D01*
X170284410Y-92762174D01*
X170292119Y-92733402D01*
X170292119Y-92733400D01*
X170293543Y-92728087D01*
X170313498Y-92500000D01*
X170293543Y-92271913D01*
X170292119Y-92266598D01*
X170235707Y-92056067D01*
X170235706Y-92056065D01*
X170234284Y-92050757D01*
X170224151Y-92029026D01*
X170139849Y-91848238D01*
X170139846Y-91848233D01*
X170137523Y-91843251D01*
X170046214Y-91712848D01*
X170009357Y-91660211D01*
X170009355Y-91660208D01*
X170006198Y-91655700D01*
X169844300Y-91493802D01*
X169839792Y-91490645D01*
X169839789Y-91490643D01*
X169761611Y-91435902D01*
X169656749Y-91362477D01*
X169651767Y-91360154D01*
X169651762Y-91360151D01*
X169454225Y-91268039D01*
X169454224Y-91268039D01*
X169449243Y-91265716D01*
X169443935Y-91264294D01*
X169443933Y-91264293D01*
X169233402Y-91207881D01*
X169233400Y-91207881D01*
X169228087Y-91206457D01*
X169000000Y-91186502D01*
X168771913Y-91206457D01*
X168766600Y-91207881D01*
X168766598Y-91207881D01*
X168556067Y-91264293D01*
X168556065Y-91264294D01*
X168550757Y-91265716D01*
X168545776Y-91268039D01*
X168545775Y-91268039D01*
X168348238Y-91360151D01*
X168348233Y-91360154D01*
X168343251Y-91362477D01*
X168238389Y-91435902D01*
X168160211Y-91490643D01*
X168160208Y-91490645D01*
X168155700Y-91493802D01*
X167993802Y-91655700D01*
X167990645Y-91660208D01*
X167990643Y-91660211D01*
X167953786Y-91712848D01*
X167862477Y-91843251D01*
X167860154Y-91848233D01*
X167860151Y-91848238D01*
X167775849Y-92029026D01*
X167765716Y-92050757D01*
X167764294Y-92056065D01*
X167764293Y-92056067D01*
X167707881Y-92266598D01*
X167706457Y-92271913D01*
X167686502Y-92500000D01*
X161304194Y-92500000D01*
X159258033Y-90453839D01*
X175237173Y-90453839D01*
X175249713Y-90714908D01*
X175300704Y-90971256D01*
X175389026Y-91217252D01*
X175391242Y-91221376D01*
X175455753Y-91341437D01*
X175512737Y-91447491D01*
X175515532Y-91451234D01*
X175515534Y-91451237D01*
X175666330Y-91653177D01*
X175666335Y-91653183D01*
X175669122Y-91656915D01*
X175672431Y-91660195D01*
X175672436Y-91660201D01*
X175850963Y-91837176D01*
X175854743Y-91840923D01*
X175858505Y-91843681D01*
X175858508Y-91843684D01*
X175994464Y-91943371D01*
X176065524Y-91995474D01*
X176069667Y-91997654D01*
X176069669Y-91997655D01*
X176292684Y-92114989D01*
X176292689Y-92114991D01*
X176296834Y-92117172D01*
X176543590Y-92203344D01*
X176548183Y-92204216D01*
X176795785Y-92251224D01*
X176795788Y-92251224D01*
X176800374Y-92252095D01*
X176930958Y-92257226D01*
X177056875Y-92262174D01*
X177056881Y-92262174D01*
X177061543Y-92262357D01*
X177140977Y-92253657D01*
X177316707Y-92234412D01*
X177316712Y-92234411D01*
X177321360Y-92233902D01*
X177434116Y-92204216D01*
X177569594Y-92168548D01*
X177569596Y-92168547D01*
X177574117Y-92167357D01*
X177598422Y-92156915D01*
X177764357Y-92085623D01*
X177814262Y-92064182D01*
X178036519Y-91926646D01*
X178040082Y-91923629D01*
X178040087Y-91923626D01*
X178232439Y-91760787D01*
X178232440Y-91760786D01*
X178236005Y-91757768D01*
X178285034Y-91701861D01*
X178405257Y-91564774D01*
X178405261Y-91564769D01*
X178408339Y-91561259D01*
X178549733Y-91341437D01*
X178657083Y-91103129D01*
X178697870Y-90958511D01*
X178726760Y-90856076D01*
X178726761Y-90856073D01*
X178728030Y-90851572D01*
X178740230Y-90755671D01*
X178760616Y-90595421D01*
X178760616Y-90595417D01*
X178761014Y-90592291D01*
X178763431Y-90500000D01*
X178749117Y-90307379D01*
X178744407Y-90244000D01*
X178744406Y-90243996D01*
X178744061Y-90239348D01*
X178741468Y-90227885D01*
X179992000Y-90227885D01*
X179996475Y-90243124D01*
X179997865Y-90244329D01*
X180005548Y-90246000D01*
X182227885Y-90246000D01*
X182243124Y-90241525D01*
X182244329Y-90240135D01*
X182246000Y-90232452D01*
X182246000Y-90227885D01*
X182754000Y-90227885D01*
X182758475Y-90243124D01*
X182759865Y-90244329D01*
X182767548Y-90246000D01*
X184989884Y-90246000D01*
X185005123Y-90241525D01*
X185006328Y-90240135D01*
X185007999Y-90232452D01*
X185007999Y-87455331D01*
X185007629Y-87448510D01*
X185002105Y-87397648D01*
X184998479Y-87382396D01*
X184953324Y-87261946D01*
X184944786Y-87246351D01*
X184868285Y-87144276D01*
X184855724Y-87131715D01*
X184753649Y-87055214D01*
X184738054Y-87046676D01*
X184617606Y-87001522D01*
X184602351Y-86997895D01*
X184551486Y-86992369D01*
X184544672Y-86992000D01*
X182772115Y-86992000D01*
X182756876Y-86996475D01*
X182755671Y-86997865D01*
X182754000Y-87005548D01*
X182754000Y-90227885D01*
X182246000Y-90227885D01*
X182246000Y-87010116D01*
X182241525Y-86994877D01*
X182240135Y-86993672D01*
X182232452Y-86992001D01*
X180455331Y-86992001D01*
X180448510Y-86992371D01*
X180397648Y-86997895D01*
X180382396Y-87001521D01*
X180261946Y-87046676D01*
X180246351Y-87055214D01*
X180144276Y-87131715D01*
X180131715Y-87144276D01*
X180055214Y-87246351D01*
X180046676Y-87261946D01*
X180001522Y-87382394D01*
X179997895Y-87397649D01*
X179992369Y-87448514D01*
X179992000Y-87455328D01*
X179992000Y-90227885D01*
X178741468Y-90227885D01*
X178687408Y-89988980D01*
X178686377Y-89984423D01*
X178648250Y-89886379D01*
X178593340Y-89745176D01*
X178593339Y-89745173D01*
X178591647Y-89740823D01*
X178577132Y-89715426D01*
X178543626Y-89656804D01*
X178461951Y-89513902D01*
X178300138Y-89308643D01*
X178109763Y-89129557D01*
X177895009Y-88980576D01*
X177890816Y-88978508D01*
X177664781Y-88867040D01*
X177664778Y-88867039D01*
X177660593Y-88864975D01*
X177614449Y-88850204D01*
X177416123Y-88786720D01*
X177411665Y-88785293D01*
X177153693Y-88743279D01*
X177039942Y-88741790D01*
X176897022Y-88739919D01*
X176897019Y-88739919D01*
X176892345Y-88739858D01*
X176633362Y-88775104D01*
X176628876Y-88776412D01*
X176628874Y-88776412D01*
X176568457Y-88794022D01*
X176382433Y-88848243D01*
X176378180Y-88850203D01*
X176378179Y-88850204D01*
X176341659Y-88867040D01*
X176145072Y-88957668D01*
X176106067Y-88983241D01*
X175930404Y-89098410D01*
X175930399Y-89098414D01*
X175926491Y-89100976D01*
X175731494Y-89275018D01*
X175564363Y-89475970D01*
X175561934Y-89479973D01*
X175463452Y-89642267D01*
X175428771Y-89699419D01*
X175327697Y-89940455D01*
X175263359Y-90193783D01*
X175262891Y-90198434D01*
X175262890Y-90198438D01*
X175258552Y-90241525D01*
X175237173Y-90453839D01*
X159258033Y-90453839D01*
X158902789Y-90098595D01*
X158868763Y-90036283D01*
X158873828Y-89965468D01*
X158916375Y-89908632D01*
X158982895Y-89883821D01*
X158991884Y-89883500D01*
X159523830Y-89883500D01*
X159532729Y-89883815D01*
X159591689Y-89887990D01*
X159591692Y-89887990D01*
X159597017Y-89888367D01*
X159654728Y-89882657D01*
X159703363Y-89877846D01*
X159705114Y-89877685D01*
X159766166Y-89872504D01*
X159811578Y-89868651D01*
X159816745Y-89867310D01*
X159821032Y-89866577D01*
X159825352Y-89865777D01*
X159830665Y-89865251D01*
X159835809Y-89863839D01*
X159835814Y-89863838D01*
X159933720Y-89836962D01*
X159935420Y-89836508D01*
X159967889Y-89828081D01*
X160038836Y-89809667D01*
X160043697Y-89807477D01*
X160047725Y-89806059D01*
X160051923Y-89804515D01*
X160057077Y-89803100D01*
X160061912Y-89800840D01*
X160061918Y-89800838D01*
X160153888Y-89757854D01*
X160155486Y-89757120D01*
X160201105Y-89736570D01*
X160252908Y-89713234D01*
X160257339Y-89710251D01*
X160261180Y-89708113D01*
X160264946Y-89705948D01*
X160269781Y-89703688D01*
X160274162Y-89700649D01*
X160274172Y-89700643D01*
X160357647Y-89642734D01*
X160359099Y-89641742D01*
X160443244Y-89585093D01*
X160443248Y-89585089D01*
X160447671Y-89582112D01*
X160451528Y-89578433D01*
X160455550Y-89575199D01*
X160456042Y-89574828D01*
X160456032Y-89574815D01*
X160459286Y-89572224D01*
X160462694Y-89569860D01*
X160465765Y-89567066D01*
X160479803Y-89554293D01*
X160479817Y-89554279D01*
X160480909Y-89553286D01*
X160542402Y-89491793D01*
X160544525Y-89489718D01*
X160578122Y-89457668D01*
X160617557Y-89420049D01*
X160621985Y-89414098D01*
X160633979Y-89400216D01*
X162534195Y-87500000D01*
X167686502Y-87500000D01*
X167706457Y-87728087D01*
X167707881Y-87733400D01*
X167707881Y-87733402D01*
X167750895Y-87893929D01*
X167765716Y-87949243D01*
X167768039Y-87954224D01*
X167768039Y-87954225D01*
X167860151Y-88151762D01*
X167860154Y-88151767D01*
X167862477Y-88156749D01*
X167993802Y-88344300D01*
X168155700Y-88506198D01*
X168160208Y-88509355D01*
X168160211Y-88509357D01*
X168198490Y-88536160D01*
X168343251Y-88637523D01*
X168348233Y-88639846D01*
X168348238Y-88639849D01*
X168545775Y-88731961D01*
X168550757Y-88734284D01*
X168556065Y-88735706D01*
X168556067Y-88735707D01*
X168766598Y-88792119D01*
X168766600Y-88792119D01*
X168771913Y-88793543D01*
X169000000Y-88813498D01*
X169228087Y-88793543D01*
X169233400Y-88792119D01*
X169233402Y-88792119D01*
X169443933Y-88735707D01*
X169443935Y-88735706D01*
X169449243Y-88734284D01*
X169454225Y-88731961D01*
X169651762Y-88639849D01*
X169651767Y-88639846D01*
X169656749Y-88637523D01*
X169801510Y-88536160D01*
X169839789Y-88509357D01*
X169839792Y-88509355D01*
X169844300Y-88506198D01*
X170006198Y-88344300D01*
X170137523Y-88156749D01*
X170139846Y-88151767D01*
X170139849Y-88151762D01*
X170231961Y-87954225D01*
X170231961Y-87954224D01*
X170234284Y-87949243D01*
X170249106Y-87893929D01*
X170292119Y-87733402D01*
X170292119Y-87733400D01*
X170293543Y-87728087D01*
X170313498Y-87500000D01*
X170293543Y-87271913D01*
X170285764Y-87242880D01*
X170235707Y-87056067D01*
X170235706Y-87056065D01*
X170234284Y-87050757D01*
X170230593Y-87042842D01*
X170139849Y-86848238D01*
X170139846Y-86848233D01*
X170137523Y-86843251D01*
X170006198Y-86655700D01*
X169844300Y-86493802D01*
X169839792Y-86490645D01*
X169839789Y-86490643D01*
X169761611Y-86435902D01*
X169656749Y-86362477D01*
X169651767Y-86360154D01*
X169651762Y-86360151D01*
X169454225Y-86268039D01*
X169454224Y-86268039D01*
X169449243Y-86265716D01*
X169443935Y-86264294D01*
X169443933Y-86264293D01*
X169233402Y-86207881D01*
X169233400Y-86207881D01*
X169228087Y-86206457D01*
X169000000Y-86186502D01*
X168771913Y-86206457D01*
X168766600Y-86207881D01*
X168766598Y-86207881D01*
X168556067Y-86264293D01*
X168556065Y-86264294D01*
X168550757Y-86265716D01*
X168545776Y-86268039D01*
X168545775Y-86268039D01*
X168348238Y-86360151D01*
X168348233Y-86360154D01*
X168343251Y-86362477D01*
X168238389Y-86435902D01*
X168160211Y-86490643D01*
X168160208Y-86490645D01*
X168155700Y-86493802D01*
X167993802Y-86655700D01*
X167862477Y-86843251D01*
X167860154Y-86848233D01*
X167860151Y-86848238D01*
X167769407Y-87042842D01*
X167765716Y-87050757D01*
X167764294Y-87056065D01*
X167764293Y-87056067D01*
X167714236Y-87242880D01*
X167706457Y-87271913D01*
X167686502Y-87500000D01*
X162534195Y-87500000D01*
X165940234Y-84093960D01*
X165946749Y-84087890D01*
X165991394Y-84049149D01*
X165995432Y-84045645D01*
X166063200Y-83962996D01*
X166064324Y-83961644D01*
X166129767Y-83884065D01*
X166133208Y-83879986D01*
X166135913Y-83875386D01*
X166138453Y-83871798D01*
X166140915Y-83868216D01*
X166144301Y-83864086D01*
X166197154Y-83771237D01*
X166198032Y-83769718D01*
X166249491Y-83682185D01*
X166249493Y-83682181D01*
X166252196Y-83677583D01*
X166254088Y-83672590D01*
X166255981Y-83668638D01*
X166257811Y-83664678D01*
X166260451Y-83660040D01*
X166262270Y-83655028D01*
X166262274Y-83655020D01*
X166296932Y-83559538D01*
X166297544Y-83557889D01*
X166333488Y-83463016D01*
X166335380Y-83458022D01*
X166336404Y-83452778D01*
X166337606Y-83448558D01*
X166338738Y-83444364D01*
X166340561Y-83439341D01*
X166359592Y-83334101D01*
X166359909Y-83332415D01*
X166364352Y-83309667D01*
X166380380Y-83227587D01*
X166380506Y-83222253D01*
X166381062Y-83217133D01*
X166381147Y-83216513D01*
X166381133Y-83216511D01*
X166381602Y-83212383D01*
X166382340Y-83208300D01*
X166383500Y-83183701D01*
X166383500Y-83096689D01*
X166383535Y-83093720D01*
X166385786Y-82998201D01*
X166385912Y-82992864D01*
X166384836Y-82985532D01*
X166383500Y-82967235D01*
X166383500Y-81941050D01*
X166376597Y-81859701D01*
X166369102Y-81771363D01*
X166369101Y-81771359D01*
X166368651Y-81766052D01*
X166367313Y-81760897D01*
X166367312Y-81760891D01*
X166314865Y-81558822D01*
X166309667Y-81538794D01*
X166283244Y-81480136D01*
X166215424Y-81329583D01*
X166215423Y-81329580D01*
X166213234Y-81324722D01*
X166082112Y-81129959D01*
X166053331Y-81099788D01*
X165992591Y-81036117D01*
X165920049Y-80960073D01*
X165731679Y-80819922D01*
X165726928Y-80817506D01*
X165726924Y-80817504D01*
X165527144Y-80715931D01*
X165527143Y-80715931D01*
X165522388Y-80713513D01*
X165298160Y-80643889D01*
X165244216Y-80636739D01*
X165070690Y-80613739D01*
X165070687Y-80613739D01*
X165065407Y-80613039D01*
X165060078Y-80613239D01*
X165060077Y-80613239D01*
X164981615Y-80616185D01*
X164830784Y-80621848D01*
X164745978Y-80639642D01*
X164606226Y-80668965D01*
X164606223Y-80668966D01*
X164600999Y-80670062D01*
X164382623Y-80756302D01*
X164336032Y-80784574D01*
X164186461Y-80875336D01*
X164186458Y-80875338D01*
X164181900Y-80878104D01*
X164004568Y-81031985D01*
X164001180Y-81036117D01*
X163859083Y-81209416D01*
X163859079Y-81209422D01*
X163855699Y-81213544D01*
X163794932Y-81320297D01*
X163776907Y-81351962D01*
X163725825Y-81401268D01*
X163656195Y-81415130D01*
X163590124Y-81389147D01*
X163564192Y-81361901D01*
X163440136Y-81184730D01*
X163440134Y-81184727D01*
X163436977Y-81180219D01*
X163279781Y-81023023D01*
X163275273Y-81019866D01*
X163275270Y-81019864D01*
X163189879Y-80960073D01*
X163097677Y-80895512D01*
X163092695Y-80893189D01*
X163092690Y-80893186D01*
X162901178Y-80803883D01*
X162901177Y-80803882D01*
X162896196Y-80801560D01*
X162890888Y-80800138D01*
X162890886Y-80800137D01*
X162825051Y-80782497D01*
X162681463Y-80744022D01*
X162460000Y-80724647D01*
X162238537Y-80744022D01*
X162094949Y-80782497D01*
X162029114Y-80800137D01*
X162029112Y-80800138D01*
X162023804Y-80801560D01*
X162018823Y-80803882D01*
X162018822Y-80803883D01*
X161827311Y-80893186D01*
X161827306Y-80893189D01*
X161822324Y-80895512D01*
X161817817Y-80898668D01*
X161817815Y-80898669D01*
X161644730Y-81019864D01*
X161644727Y-81019866D01*
X161640219Y-81023023D01*
X161483023Y-81180219D01*
X161479866Y-81184727D01*
X161479864Y-81184730D01*
X161361746Y-81353421D01*
X161355512Y-81362324D01*
X161353189Y-81367306D01*
X161353186Y-81367311D01*
X161332364Y-81411964D01*
X161261560Y-81563804D01*
X161260138Y-81569112D01*
X161260137Y-81569114D01*
X161250665Y-81604464D01*
X161204022Y-81778537D01*
X161184647Y-82000000D01*
X161204022Y-82221463D01*
X161261560Y-82436196D01*
X161263882Y-82441177D01*
X161263883Y-82441178D01*
X161353186Y-82632689D01*
X161353189Y-82632694D01*
X161355512Y-82637676D01*
X161358668Y-82642183D01*
X161358669Y-82642185D01*
X161479861Y-82815265D01*
X161483023Y-82819781D01*
X161640219Y-82976977D01*
X161644727Y-82980134D01*
X161644730Y-82980136D01*
X161662908Y-82992864D01*
X161822323Y-83104488D01*
X161827305Y-83106811D01*
X161827310Y-83106814D01*
X161989007Y-83182214D01*
X162023804Y-83198440D01*
X162029112Y-83199862D01*
X162029114Y-83199863D01*
X162087189Y-83215424D01*
X162238537Y-83255978D01*
X162460000Y-83275353D01*
X162537829Y-83268544D01*
X162607433Y-83282533D01*
X162658426Y-83331933D01*
X162674616Y-83401059D01*
X162650863Y-83467964D01*
X162637905Y-83483160D01*
X159041471Y-87079595D01*
X158979159Y-87113621D01*
X158952376Y-87116500D01*
X155509500Y-87116500D01*
X155441379Y-87096498D01*
X155394886Y-87042842D01*
X155383500Y-86990500D01*
X155383500Y-85951866D01*
X155376745Y-85889684D01*
X155325615Y-85753295D01*
X155238261Y-85636739D01*
X155121705Y-85549385D01*
X154985316Y-85498255D01*
X154923134Y-85491500D01*
X153076866Y-85491500D01*
X153014684Y-85498255D01*
X152878295Y-85549385D01*
X152761739Y-85636739D01*
X152674385Y-85753295D01*
X152623255Y-85889684D01*
X152616500Y-85951866D01*
X152616500Y-86990500D01*
X152596498Y-87058621D01*
X152542842Y-87105114D01*
X152490500Y-87116500D01*
X145509500Y-87116500D01*
X145441379Y-87096498D01*
X145394886Y-87042842D01*
X145383500Y-86990500D01*
X145383500Y-85951866D01*
X145376745Y-85889684D01*
X145325615Y-85753295D01*
X145238261Y-85636739D01*
X145121705Y-85549385D01*
X144985316Y-85498255D01*
X144923134Y-85491500D01*
X143076866Y-85491500D01*
X143014684Y-85498255D01*
X142878295Y-85549385D01*
X142761739Y-85636739D01*
X142674385Y-85753295D01*
X142623255Y-85889684D01*
X142616500Y-85951866D01*
X142616500Y-86990500D01*
X142596498Y-87058621D01*
X142542842Y-87105114D01*
X142490500Y-87116500D01*
X115553800Y-87116500D01*
X115544901Y-87116185D01*
X115485941Y-87112010D01*
X115485938Y-87112010D01*
X115480613Y-87111633D01*
X115422902Y-87117343D01*
X115374267Y-87122154D01*
X115372516Y-87122315D01*
X115311464Y-87127496D01*
X115266052Y-87131349D01*
X115260885Y-87132690D01*
X115256598Y-87133423D01*
X115252278Y-87134223D01*
X115246965Y-87134749D01*
X115241821Y-87136161D01*
X115241816Y-87136162D01*
X115143910Y-87163038D01*
X115142210Y-87163492D01*
X115109741Y-87171919D01*
X115038794Y-87190333D01*
X115033933Y-87192523D01*
X115029905Y-87193941D01*
X115025707Y-87195485D01*
X115020553Y-87196900D01*
X115015718Y-87199160D01*
X115015712Y-87199162D01*
X114923742Y-87242146D01*
X114922144Y-87242880D01*
X114879820Y-87261946D01*
X114824722Y-87286766D01*
X114820291Y-87289749D01*
X114816450Y-87291887D01*
X114812684Y-87294052D01*
X114807849Y-87296312D01*
X114803468Y-87299351D01*
X114803458Y-87299357D01*
X114719983Y-87357266D01*
X114718531Y-87358258D01*
X114634386Y-87414907D01*
X114634382Y-87414911D01*
X114629959Y-87417888D01*
X114626102Y-87421567D01*
X114622080Y-87424801D01*
X114621588Y-87425172D01*
X114621598Y-87425185D01*
X114618344Y-87427776D01*
X114614936Y-87430140D01*
X114611868Y-87432932D01*
X114611865Y-87432934D01*
X114597827Y-87445707D01*
X114597813Y-87445721D01*
X114596721Y-87446714D01*
X114535229Y-87508206D01*
X114533106Y-87510281D01*
X114460073Y-87579951D01*
X114456885Y-87584236D01*
X114456884Y-87584237D01*
X114455645Y-87585902D01*
X114443651Y-87599784D01*
X112819622Y-89223814D01*
X112757310Y-89257839D01*
X112747518Y-89259568D01*
X112694750Y-89266750D01*
X112633362Y-89275104D01*
X112382433Y-89348243D01*
X112145072Y-89457668D01*
X112141163Y-89460231D01*
X111930404Y-89598410D01*
X111930399Y-89598414D01*
X111926491Y-89600976D01*
X111731494Y-89775018D01*
X111728505Y-89778612D01*
X111728500Y-89778617D01*
X111606374Y-89925457D01*
X111547436Y-89965041D01*
X111476454Y-89966477D01*
X111415964Y-89929310D01*
X111385171Y-89865339D01*
X111383500Y-89844888D01*
X111383500Y-88625255D01*
X111403502Y-88557134D01*
X111420405Y-88536160D01*
X116536160Y-83420405D01*
X116598472Y-83386379D01*
X116625255Y-83383500D01*
X133788950Y-83383500D01*
X133870299Y-83376597D01*
X133958637Y-83369102D01*
X133958641Y-83369101D01*
X133963948Y-83368651D01*
X133969103Y-83367313D01*
X133969109Y-83367312D01*
X134186035Y-83311009D01*
X134186034Y-83311009D01*
X134191206Y-83309667D01*
X134196072Y-83307475D01*
X134196075Y-83307474D01*
X134400417Y-83215424D01*
X134400420Y-83215423D01*
X134405278Y-83213234D01*
X134600041Y-83082112D01*
X134769927Y-82920049D01*
X134910078Y-82731679D01*
X134912496Y-82726923D01*
X134912501Y-82726915D01*
X134950087Y-82652990D01*
X134998790Y-82601332D01*
X135067690Y-82584206D01*
X135134911Y-82607049D01*
X135165616Y-82637825D01*
X135289860Y-82815265D01*
X135289864Y-82815270D01*
X135293023Y-82819781D01*
X135450219Y-82976977D01*
X135454727Y-82980134D01*
X135454730Y-82980136D01*
X135472908Y-82992864D01*
X135632323Y-83104488D01*
X135637305Y-83106811D01*
X135637310Y-83106814D01*
X135799007Y-83182214D01*
X135833804Y-83198440D01*
X135839112Y-83199862D01*
X135839114Y-83199863D01*
X135897189Y-83215424D01*
X136048537Y-83255978D01*
X136270000Y-83275353D01*
X136491463Y-83255978D01*
X136642811Y-83215424D01*
X136700886Y-83199863D01*
X136700888Y-83199862D01*
X136706196Y-83198440D01*
X136740993Y-83182214D01*
X136902690Y-83106814D01*
X136902695Y-83106811D01*
X136907677Y-83104488D01*
X137067092Y-82992864D01*
X137085270Y-82980136D01*
X137085273Y-82980134D01*
X137089781Y-82976977D01*
X137246977Y-82819781D01*
X137250140Y-82815265D01*
X137371331Y-82642185D01*
X137371332Y-82642183D01*
X137374488Y-82637676D01*
X137376811Y-82632694D01*
X137376814Y-82632689D01*
X137466117Y-82441178D01*
X137466118Y-82441177D01*
X137468440Y-82436196D01*
X137525978Y-82221463D01*
X137541142Y-82048134D01*
X142616500Y-82048134D01*
X142623255Y-82110316D01*
X142674385Y-82246705D01*
X142761739Y-82363261D01*
X142878295Y-82450615D01*
X143014684Y-82501745D01*
X143076866Y-82508500D01*
X144923134Y-82508500D01*
X144985316Y-82501745D01*
X145121705Y-82450615D01*
X145238261Y-82363261D01*
X145325615Y-82246705D01*
X145376745Y-82110316D01*
X145383500Y-82048134D01*
X152616500Y-82048134D01*
X152623255Y-82110316D01*
X152674385Y-82246705D01*
X152761739Y-82363261D01*
X152878295Y-82450615D01*
X153014684Y-82501745D01*
X153076866Y-82508500D01*
X154923134Y-82508500D01*
X154985316Y-82501745D01*
X155121705Y-82450615D01*
X155238261Y-82363261D01*
X155325615Y-82246705D01*
X155376745Y-82110316D01*
X155383500Y-82048134D01*
X155383500Y-80951866D01*
X155376745Y-80889684D01*
X155325615Y-80753295D01*
X155238261Y-80636739D01*
X155121705Y-80549385D01*
X154989971Y-80500000D01*
X170454647Y-80500000D01*
X170474022Y-80721463D01*
X170490933Y-80784574D01*
X170529938Y-80930141D01*
X170531560Y-80936196D01*
X170533882Y-80941177D01*
X170533883Y-80941178D01*
X170623186Y-81132689D01*
X170623189Y-81132694D01*
X170625512Y-81137676D01*
X170628668Y-81142183D01*
X170628669Y-81142185D01*
X170675745Y-81209416D01*
X170753023Y-81319781D01*
X170910219Y-81476977D01*
X170914727Y-81480134D01*
X170914730Y-81480136D01*
X170990495Y-81533187D01*
X171092323Y-81604488D01*
X171097305Y-81606811D01*
X171097310Y-81606814D01*
X171287810Y-81695645D01*
X171293804Y-81698440D01*
X171299112Y-81699862D01*
X171299114Y-81699863D01*
X171364949Y-81717503D01*
X171508537Y-81755978D01*
X171730000Y-81775353D01*
X171951463Y-81755978D01*
X172095051Y-81717503D01*
X172160886Y-81699863D01*
X172160888Y-81699862D01*
X172166196Y-81698440D01*
X172172190Y-81695645D01*
X172362690Y-81606814D01*
X172362695Y-81606811D01*
X172367677Y-81604488D01*
X172432959Y-81558777D01*
X173575777Y-81558777D01*
X173585074Y-81570793D01*
X173628069Y-81600898D01*
X173637555Y-81606376D01*
X173828993Y-81695645D01*
X173839285Y-81699391D01*
X174043309Y-81754059D01*
X174054104Y-81755962D01*
X174264525Y-81774372D01*
X174275475Y-81774372D01*
X174485896Y-81755962D01*
X174496691Y-81754059D01*
X174700715Y-81699391D01*
X174711007Y-81695645D01*
X174902445Y-81606376D01*
X174911931Y-81600898D01*
X174955764Y-81570207D01*
X174964139Y-81559729D01*
X174957071Y-81546281D01*
X174282812Y-80872022D01*
X174268868Y-80864408D01*
X174267035Y-80864539D01*
X174260420Y-80868790D01*
X173582207Y-81547003D01*
X173575777Y-81558777D01*
X172432959Y-81558777D01*
X172469505Y-81533187D01*
X172545270Y-81480136D01*
X172545273Y-81480134D01*
X172549781Y-81476977D01*
X172706977Y-81319781D01*
X172784256Y-81209416D01*
X172831331Y-81142185D01*
X172831332Y-81142183D01*
X172834488Y-81137676D01*
X172836811Y-81132694D01*
X172836814Y-81132689D01*
X172886081Y-81027035D01*
X172932999Y-80973750D01*
X173001276Y-80954289D01*
X173069236Y-80974831D01*
X173114471Y-81027035D01*
X173163623Y-81132441D01*
X173169103Y-81141932D01*
X173199794Y-81185765D01*
X173210271Y-81194140D01*
X173223718Y-81187072D01*
X173897978Y-80512812D01*
X173904356Y-80501132D01*
X174634408Y-80501132D01*
X174634539Y-80502965D01*
X174638790Y-80509580D01*
X175317003Y-81187793D01*
X175328777Y-81194223D01*
X175340793Y-81184926D01*
X175370897Y-81141932D01*
X175376377Y-81132441D01*
X175465645Y-80941007D01*
X175469391Y-80930715D01*
X175524059Y-80726691D01*
X175525962Y-80715896D01*
X175544372Y-80505475D01*
X175544372Y-80494525D01*
X175525962Y-80284104D01*
X175524059Y-80273309D01*
X175469391Y-80069285D01*
X175465645Y-80058993D01*
X175376377Y-79867559D01*
X175370897Y-79858068D01*
X175340206Y-79814235D01*
X175329729Y-79805860D01*
X175316282Y-79812928D01*
X174642022Y-80487188D01*
X174634408Y-80501132D01*
X173904356Y-80501132D01*
X173905592Y-80498868D01*
X173905461Y-80497035D01*
X173901210Y-80490420D01*
X173222997Y-79812207D01*
X173211223Y-79805777D01*
X173199207Y-79815074D01*
X173169103Y-79858068D01*
X173163623Y-79867559D01*
X173114471Y-79972965D01*
X173067553Y-80026250D01*
X172999276Y-80045711D01*
X172931316Y-80025169D01*
X172886081Y-79972965D01*
X172836814Y-79867311D01*
X172836811Y-79867306D01*
X172834488Y-79862324D01*
X172831331Y-79857815D01*
X172710136Y-79684730D01*
X172710134Y-79684727D01*
X172706977Y-79680219D01*
X172549781Y-79523023D01*
X172545273Y-79519866D01*
X172545270Y-79519864D01*
X172469505Y-79466813D01*
X172431599Y-79440271D01*
X173575860Y-79440271D01*
X173582928Y-79453718D01*
X174257188Y-80127978D01*
X174271132Y-80135592D01*
X174272965Y-80135461D01*
X174279580Y-80131210D01*
X174957793Y-79452997D01*
X174964223Y-79441223D01*
X174954926Y-79429207D01*
X174911931Y-79399102D01*
X174902445Y-79393624D01*
X174711007Y-79304355D01*
X174700715Y-79300609D01*
X174496691Y-79245941D01*
X174485896Y-79244038D01*
X174275475Y-79225628D01*
X174264525Y-79225628D01*
X174054104Y-79244038D01*
X174043309Y-79245941D01*
X173839285Y-79300609D01*
X173828993Y-79304355D01*
X173637559Y-79393623D01*
X173628068Y-79399103D01*
X173584235Y-79429794D01*
X173575860Y-79440271D01*
X172431599Y-79440271D01*
X172367677Y-79395512D01*
X172362695Y-79393189D01*
X172362690Y-79393186D01*
X172171178Y-79303883D01*
X172171177Y-79303882D01*
X172166196Y-79301560D01*
X172160888Y-79300138D01*
X172160886Y-79300137D01*
X172014030Y-79260787D01*
X171951463Y-79244022D01*
X171730000Y-79224647D01*
X171508537Y-79244022D01*
X171445970Y-79260787D01*
X171299114Y-79300137D01*
X171299112Y-79300138D01*
X171293804Y-79301560D01*
X171288823Y-79303882D01*
X171288822Y-79303883D01*
X171097311Y-79393186D01*
X171097306Y-79393189D01*
X171092324Y-79395512D01*
X171087817Y-79398668D01*
X171087815Y-79398669D01*
X170914730Y-79519864D01*
X170914727Y-79519866D01*
X170910219Y-79523023D01*
X170753023Y-79680219D01*
X170749866Y-79684727D01*
X170749864Y-79684730D01*
X170628669Y-79857815D01*
X170625512Y-79862324D01*
X170623189Y-79867306D01*
X170623186Y-79867311D01*
X170573919Y-79972965D01*
X170531560Y-80063804D01*
X170474022Y-80278537D01*
X170454647Y-80500000D01*
X154989971Y-80500000D01*
X154985316Y-80498255D01*
X154923134Y-80491500D01*
X153076866Y-80491500D01*
X153014684Y-80498255D01*
X152878295Y-80549385D01*
X152761739Y-80636739D01*
X152674385Y-80753295D01*
X152623255Y-80889684D01*
X152616500Y-80951866D01*
X152616500Y-82048134D01*
X145383500Y-82048134D01*
X145383500Y-80951866D01*
X145376745Y-80889684D01*
X145325615Y-80753295D01*
X145238261Y-80636739D01*
X145121705Y-80549385D01*
X144985316Y-80498255D01*
X144923134Y-80491500D01*
X143076866Y-80491500D01*
X143014684Y-80498255D01*
X142878295Y-80549385D01*
X142761739Y-80636739D01*
X142674385Y-80753295D01*
X142623255Y-80889684D01*
X142616500Y-80951866D01*
X142616500Y-82048134D01*
X137541142Y-82048134D01*
X137545353Y-82000000D01*
X137525978Y-81778537D01*
X137479335Y-81604464D01*
X137469863Y-81569114D01*
X137469862Y-81569112D01*
X137468440Y-81563804D01*
X137397636Y-81411964D01*
X137376814Y-81367311D01*
X137376811Y-81367306D01*
X137374488Y-81362324D01*
X137368254Y-81353421D01*
X137250136Y-81184730D01*
X137250134Y-81184727D01*
X137246977Y-81180219D01*
X137089781Y-81023023D01*
X137085273Y-81019866D01*
X137085270Y-81019864D01*
X136999879Y-80960073D01*
X136907677Y-80895512D01*
X136902695Y-80893189D01*
X136902690Y-80893186D01*
X136711178Y-80803883D01*
X136711177Y-80803882D01*
X136706196Y-80801560D01*
X136700888Y-80800138D01*
X136700886Y-80800137D01*
X136635051Y-80782497D01*
X136491463Y-80744022D01*
X136270000Y-80724647D01*
X136048537Y-80744022D01*
X135904949Y-80782497D01*
X135839114Y-80800137D01*
X135839112Y-80800138D01*
X135833804Y-80801560D01*
X135828823Y-80803882D01*
X135828822Y-80803883D01*
X135637311Y-80893186D01*
X135637306Y-80893189D01*
X135632324Y-80895512D01*
X135627817Y-80898668D01*
X135627815Y-80898669D01*
X135454730Y-81019864D01*
X135454727Y-81019866D01*
X135450219Y-81023023D01*
X135293023Y-81180219D01*
X135289866Y-81184727D01*
X135289864Y-81184730D01*
X135166910Y-81360327D01*
X135111453Y-81404655D01*
X135040834Y-81411964D01*
X134977473Y-81379933D01*
X134955978Y-81353421D01*
X134854667Y-81186466D01*
X134854665Y-81186464D01*
X134851896Y-81181900D01*
X134698015Y-81004568D01*
X134660430Y-80973750D01*
X134520584Y-80859083D01*
X134520578Y-80859079D01*
X134516456Y-80855699D01*
X134511820Y-80853060D01*
X134511817Y-80853058D01*
X134323934Y-80746109D01*
X134312410Y-80739549D01*
X134091711Y-80659439D01*
X134086462Y-80658490D01*
X134086459Y-80658489D01*
X133962987Y-80636162D01*
X133860670Y-80617660D01*
X133856531Y-80617465D01*
X133856524Y-80617464D01*
X133837560Y-80616570D01*
X133837551Y-80616570D01*
X133836071Y-80616500D01*
X116053790Y-80616500D01*
X116044891Y-80616185D01*
X115985941Y-80612011D01*
X115985938Y-80612011D01*
X115980613Y-80611634D01*
X115922247Y-80617408D01*
X115874305Y-80622151D01*
X115872553Y-80622312D01*
X115813558Y-80627318D01*
X115766052Y-80631349D01*
X115760884Y-80632690D01*
X115756598Y-80633423D01*
X115752280Y-80634223D01*
X115746965Y-80634749D01*
X115643860Y-80663052D01*
X115642272Y-80663476D01*
X115538794Y-80690333D01*
X115533923Y-80692527D01*
X115529801Y-80693979D01*
X115525699Y-80695488D01*
X115520552Y-80696901D01*
X115423673Y-80742179D01*
X115422173Y-80742868D01*
X115392350Y-80756302D01*
X115329587Y-80784574D01*
X115329582Y-80784577D01*
X115324722Y-80786766D01*
X115320295Y-80789746D01*
X115316418Y-80791904D01*
X115312683Y-80794052D01*
X115307848Y-80796312D01*
X115296935Y-80803883D01*
X115220021Y-80857240D01*
X115218568Y-80858233D01*
X115189053Y-80878104D01*
X115129959Y-80917888D01*
X115126094Y-80921575D01*
X115122089Y-80924795D01*
X115121588Y-80925173D01*
X115121598Y-80925185D01*
X115118341Y-80927778D01*
X115114935Y-80930141D01*
X115111868Y-80932932D01*
X115111864Y-80932935D01*
X115102994Y-80941007D01*
X115096721Y-80946715D01*
X115035250Y-81008186D01*
X115033127Y-81010261D01*
X114960073Y-81079951D01*
X114956888Y-81084232D01*
X114955642Y-81085907D01*
X114943648Y-81099788D01*
X109059766Y-86983670D01*
X109053251Y-86989740D01*
X109004568Y-87031985D01*
X108936760Y-87114683D01*
X108935732Y-87115919D01*
X108866791Y-87197644D01*
X108864088Y-87202242D01*
X108861580Y-87205785D01*
X108859086Y-87209414D01*
X108855699Y-87213544D01*
X108810929Y-87292195D01*
X108802845Y-87306396D01*
X108802014Y-87307834D01*
X108747804Y-87400047D01*
X108745911Y-87405045D01*
X108744020Y-87408991D01*
X108742191Y-87412949D01*
X108739549Y-87417590D01*
X108737730Y-87422602D01*
X108737726Y-87422610D01*
X108703068Y-87518092D01*
X108702467Y-87519711D01*
X108664620Y-87619608D01*
X108663596Y-87624852D01*
X108662394Y-87629072D01*
X108661262Y-87633266D01*
X108659439Y-87638289D01*
X108658489Y-87643543D01*
X108640425Y-87743436D01*
X108640100Y-87745165D01*
X108619619Y-87850043D01*
X108619493Y-87855377D01*
X108618937Y-87860500D01*
X108618838Y-87861115D01*
X108618867Y-87861118D01*
X108618398Y-87865248D01*
X108617660Y-87869330D01*
X108616500Y-87893929D01*
X108616500Y-87980924D01*
X108616465Y-87983892D01*
X108614088Y-88084767D01*
X108614864Y-88090053D01*
X108615164Y-88092099D01*
X108616500Y-88110396D01*
X108616500Y-97946200D01*
X108616185Y-97955099D01*
X108611633Y-98019387D01*
X99508000Y-98019387D01*
X99508000Y-97409133D01*
X103455612Y-97409133D01*
X103464325Y-97420653D01*
X103562018Y-97492284D01*
X103569928Y-97497227D01*
X103792890Y-97614533D01*
X103801453Y-97618256D01*
X104039304Y-97701318D01*
X104048313Y-97703732D01*
X104295842Y-97750727D01*
X104305098Y-97751781D01*
X104556857Y-97761673D01*
X104566171Y-97761347D01*
X104816615Y-97733920D01*
X104825792Y-97732219D01*
X105069431Y-97668074D01*
X105078251Y-97665037D01*
X105309736Y-97565583D01*
X105318008Y-97561276D01*
X105532249Y-97428700D01*
X105539188Y-97423658D01*
X105547518Y-97411019D01*
X105541456Y-97400666D01*
X104512812Y-96372022D01*
X104498868Y-96364408D01*
X104497035Y-96364539D01*
X104490420Y-96368790D01*
X103462270Y-97396940D01*
X103455612Y-97409133D01*
X99508000Y-97409133D01*
X99508000Y-95958523D01*
X102737898Y-95958523D01*
X102749987Y-96210175D01*
X102751124Y-96219435D01*
X102800274Y-96466535D01*
X102802768Y-96475528D01*
X102887900Y-96712639D01*
X102891700Y-96721174D01*
X103010946Y-96943101D01*
X103015957Y-96950968D01*
X103079446Y-97035990D01*
X103090704Y-97044439D01*
X103103123Y-97037667D01*
X104127978Y-96012812D01*
X104134356Y-96001132D01*
X104864408Y-96001132D01*
X104864539Y-96002965D01*
X104868790Y-96009580D01*
X105899913Y-97040703D01*
X105912293Y-97047463D01*
X105920634Y-97041219D01*
X106046765Y-96845127D01*
X106051212Y-96836936D01*
X106154691Y-96607222D01*
X106157882Y-96598455D01*
X106226269Y-96355976D01*
X106228129Y-96346834D01*
X106260116Y-96095396D01*
X106260597Y-96089108D01*
X106262847Y-96003160D01*
X106262696Y-95996851D01*
X106243912Y-95744074D01*
X106242536Y-95734868D01*
X106186929Y-95489126D01*
X106184205Y-95480215D01*
X106092888Y-95245392D01*
X106088877Y-95236983D01*
X105963854Y-95018240D01*
X105958643Y-95010514D01*
X105921391Y-94963261D01*
X105909466Y-94954790D01*
X105897934Y-94961276D01*
X104872022Y-95987188D01*
X104864408Y-96001132D01*
X104134356Y-96001132D01*
X104135592Y-95998868D01*
X104135461Y-95997035D01*
X104131210Y-95990420D01*
X103101321Y-94960531D01*
X103088013Y-94953264D01*
X103077974Y-94960386D01*
X103067761Y-94972666D01*
X103062346Y-94980258D01*
X102931646Y-95195646D01*
X102927408Y-95203963D01*
X102829981Y-95436299D01*
X102827020Y-95445149D01*
X102765006Y-95689331D01*
X102763384Y-95698528D01*
X102738143Y-95949198D01*
X102737898Y-95958523D01*
X99508000Y-95958523D01*
X99508000Y-94588803D01*
X103453216Y-94588803D01*
X103457789Y-94598579D01*
X104487188Y-95627978D01*
X104501132Y-95635592D01*
X104502965Y-95635461D01*
X104509580Y-95631210D01*
X105538419Y-94602371D01*
X105544803Y-94590681D01*
X105535391Y-94578570D01*
X105398593Y-94483670D01*
X105390565Y-94478942D01*
X105164593Y-94367505D01*
X105155960Y-94364017D01*
X104915998Y-94287205D01*
X104906938Y-94285029D01*
X104658260Y-94244529D01*
X104648973Y-94243717D01*
X104397053Y-94240419D01*
X104387742Y-94240989D01*
X104138097Y-94274964D01*
X104128978Y-94276902D01*
X103887098Y-94347404D01*
X103878367Y-94350667D01*
X103649558Y-94456151D01*
X103641406Y-94460670D01*
X103462353Y-94578062D01*
X103453216Y-94588803D01*
X99508000Y-94588803D01*
X99508000Y-77953839D01*
X138237173Y-77953839D01*
X138249713Y-78214908D01*
X138300704Y-78471256D01*
X138389026Y-78717252D01*
X138391242Y-78721376D01*
X138455753Y-78841437D01*
X138512737Y-78947491D01*
X138515532Y-78951234D01*
X138515534Y-78951237D01*
X138666330Y-79153177D01*
X138666335Y-79153183D01*
X138669122Y-79156915D01*
X138672431Y-79160195D01*
X138672436Y-79160201D01*
X138815035Y-79301560D01*
X138854743Y-79340923D01*
X138858505Y-79343681D01*
X138858508Y-79343684D01*
X139008576Y-79453718D01*
X139065524Y-79495474D01*
X139069667Y-79497654D01*
X139069669Y-79497655D01*
X139292684Y-79614989D01*
X139292689Y-79614991D01*
X139296834Y-79617172D01*
X139543590Y-79703344D01*
X139548183Y-79704216D01*
X139795785Y-79751224D01*
X139795788Y-79751224D01*
X139800374Y-79752095D01*
X139930958Y-79757226D01*
X140056875Y-79762174D01*
X140056881Y-79762174D01*
X140061543Y-79762357D01*
X140140977Y-79753657D01*
X140316707Y-79734412D01*
X140316712Y-79734411D01*
X140321360Y-79733902D01*
X140434116Y-79704216D01*
X140569594Y-79668548D01*
X140569596Y-79668547D01*
X140574117Y-79667357D01*
X140814262Y-79564182D01*
X141032381Y-79429207D01*
X141032547Y-79429104D01*
X141032548Y-79429104D01*
X141036519Y-79426646D01*
X141040082Y-79423629D01*
X141040087Y-79423626D01*
X141232439Y-79260787D01*
X141232440Y-79260786D01*
X141236005Y-79257768D01*
X141327729Y-79153177D01*
X141405257Y-79064774D01*
X141405261Y-79064769D01*
X141408339Y-79061259D01*
X141549733Y-78841437D01*
X141657083Y-78603129D01*
X141728030Y-78351572D01*
X141744832Y-78219496D01*
X141760616Y-78095421D01*
X141760616Y-78095417D01*
X141761014Y-78092291D01*
X141763431Y-78000000D01*
X141760001Y-77953839D01*
X156237173Y-77953839D01*
X156249713Y-78214908D01*
X156300704Y-78471256D01*
X156389026Y-78717252D01*
X156391242Y-78721376D01*
X156455753Y-78841437D01*
X156512737Y-78947491D01*
X156515532Y-78951234D01*
X156515534Y-78951237D01*
X156666330Y-79153177D01*
X156666335Y-79153183D01*
X156669122Y-79156915D01*
X156672431Y-79160195D01*
X156672436Y-79160201D01*
X156815035Y-79301560D01*
X156854743Y-79340923D01*
X156858505Y-79343681D01*
X156858508Y-79343684D01*
X157008576Y-79453718D01*
X157065524Y-79495474D01*
X157069667Y-79497654D01*
X157069669Y-79497655D01*
X157292684Y-79614989D01*
X157292689Y-79614991D01*
X157296834Y-79617172D01*
X157543590Y-79703344D01*
X157548183Y-79704216D01*
X157795785Y-79751224D01*
X157795788Y-79751224D01*
X157800374Y-79752095D01*
X157930958Y-79757226D01*
X158056875Y-79762174D01*
X158056881Y-79762174D01*
X158061543Y-79762357D01*
X158140977Y-79753657D01*
X158316707Y-79734412D01*
X158316712Y-79734411D01*
X158321360Y-79733902D01*
X158434116Y-79704216D01*
X158569594Y-79668548D01*
X158569596Y-79668547D01*
X158574117Y-79667357D01*
X158814262Y-79564182D01*
X159032381Y-79429207D01*
X159032547Y-79429104D01*
X159032548Y-79429104D01*
X159036519Y-79426646D01*
X159040082Y-79423629D01*
X159040087Y-79423626D01*
X159232439Y-79260787D01*
X159232440Y-79260786D01*
X159236005Y-79257768D01*
X159327729Y-79153177D01*
X159405257Y-79064774D01*
X159405261Y-79064769D01*
X159408339Y-79061259D01*
X159549733Y-78841437D01*
X159657083Y-78603129D01*
X159728030Y-78351572D01*
X159744832Y-78219496D01*
X159760616Y-78095421D01*
X159760616Y-78095417D01*
X159761014Y-78092291D01*
X159763431Y-78000000D01*
X159744061Y-77739348D01*
X159732725Y-77689248D01*
X159687408Y-77488980D01*
X159686377Y-77484423D01*
X159591647Y-77240823D01*
X159461951Y-77013902D01*
X159300138Y-76808643D01*
X159109763Y-76629557D01*
X158895009Y-76480576D01*
X158890816Y-76478508D01*
X158664781Y-76367040D01*
X158664778Y-76367039D01*
X158660593Y-76364975D01*
X158614449Y-76350204D01*
X158416123Y-76286720D01*
X158411665Y-76285293D01*
X158153693Y-76243279D01*
X158039942Y-76241790D01*
X157897022Y-76239919D01*
X157897019Y-76239919D01*
X157892345Y-76239858D01*
X157633362Y-76275104D01*
X157382433Y-76348243D01*
X157378180Y-76350203D01*
X157378179Y-76350204D01*
X157341659Y-76367040D01*
X157145072Y-76457668D01*
X157106067Y-76483241D01*
X156930404Y-76598410D01*
X156930399Y-76598414D01*
X156926491Y-76600976D01*
X156731494Y-76775018D01*
X156564363Y-76975970D01*
X156428771Y-77199419D01*
X156327697Y-77440455D01*
X156263359Y-77693783D01*
X156237173Y-77953839D01*
X141760001Y-77953839D01*
X141744061Y-77739348D01*
X141732725Y-77689248D01*
X141687408Y-77488980D01*
X141686377Y-77484423D01*
X141591647Y-77240823D01*
X141461951Y-77013902D01*
X141300138Y-76808643D01*
X141109763Y-76629557D01*
X140895009Y-76480576D01*
X140890816Y-76478508D01*
X140664781Y-76367040D01*
X140664778Y-76367039D01*
X140660593Y-76364975D01*
X140614449Y-76350204D01*
X140416123Y-76286720D01*
X140411665Y-76285293D01*
X140153693Y-76243279D01*
X140039942Y-76241790D01*
X139897022Y-76239919D01*
X139897019Y-76239919D01*
X139892345Y-76239858D01*
X139633362Y-76275104D01*
X139382433Y-76348243D01*
X139378180Y-76350203D01*
X139378179Y-76350204D01*
X139341659Y-76367040D01*
X139145072Y-76457668D01*
X139106067Y-76483241D01*
X138930404Y-76598410D01*
X138930399Y-76598414D01*
X138926491Y-76600976D01*
X138731494Y-76775018D01*
X138564363Y-76975970D01*
X138428771Y-77199419D01*
X138327697Y-77440455D01*
X138263359Y-77693783D01*
X138237173Y-77953839D01*
X99508000Y-77953839D01*
X99508000Y-74544669D01*
X136492001Y-74544669D01*
X136492371Y-74551490D01*
X136497895Y-74602352D01*
X136501521Y-74617604D01*
X136546676Y-74738054D01*
X136555214Y-74753649D01*
X136631715Y-74855724D01*
X136644276Y-74868285D01*
X136746351Y-74944786D01*
X136761946Y-74953324D01*
X136882394Y-74998478D01*
X136897649Y-75002105D01*
X136948514Y-75007631D01*
X136955328Y-75008000D01*
X139727885Y-75008000D01*
X139743124Y-75003525D01*
X139744329Y-75002135D01*
X139746000Y-74994452D01*
X139746000Y-74989884D01*
X140254000Y-74989884D01*
X140258475Y-75005123D01*
X140259865Y-75006328D01*
X140267548Y-75007999D01*
X143044669Y-75007999D01*
X143051490Y-75007629D01*
X143102352Y-75002105D01*
X143117604Y-74998479D01*
X143238054Y-74953324D01*
X143253649Y-74944786D01*
X143355724Y-74868285D01*
X143368285Y-74855724D01*
X143444786Y-74753649D01*
X143453324Y-74738054D01*
X143498478Y-74617606D01*
X143502105Y-74602351D01*
X143507631Y-74551486D01*
X143508000Y-74544672D01*
X143508000Y-74544669D01*
X154492001Y-74544669D01*
X154492371Y-74551490D01*
X154497895Y-74602352D01*
X154501521Y-74617604D01*
X154546676Y-74738054D01*
X154555214Y-74753649D01*
X154631715Y-74855724D01*
X154644276Y-74868285D01*
X154746351Y-74944786D01*
X154761946Y-74953324D01*
X154882394Y-74998478D01*
X154897649Y-75002105D01*
X154948514Y-75007631D01*
X154955328Y-75008000D01*
X157727885Y-75008000D01*
X157743124Y-75003525D01*
X157744329Y-75002135D01*
X157746000Y-74994452D01*
X157746000Y-74989884D01*
X158254000Y-74989884D01*
X158258475Y-75005123D01*
X158259865Y-75006328D01*
X158267548Y-75007999D01*
X161044669Y-75007999D01*
X161051490Y-75007629D01*
X161102352Y-75002105D01*
X161117604Y-74998479D01*
X161238054Y-74953324D01*
X161253649Y-74944786D01*
X161355724Y-74868285D01*
X161368285Y-74855724D01*
X161444786Y-74753649D01*
X161453324Y-74738054D01*
X161498478Y-74617606D01*
X161502105Y-74602351D01*
X161507631Y-74551486D01*
X161508000Y-74544672D01*
X161508000Y-72772115D01*
X161503525Y-72756876D01*
X161502135Y-72755671D01*
X161494452Y-72754000D01*
X158272115Y-72754000D01*
X158256876Y-72758475D01*
X158255671Y-72759865D01*
X158254000Y-72767548D01*
X158254000Y-74989884D01*
X157746000Y-74989884D01*
X157746000Y-72772115D01*
X157741525Y-72756876D01*
X157740135Y-72755671D01*
X157732452Y-72754000D01*
X154510116Y-72754000D01*
X154494877Y-72758475D01*
X154493672Y-72759865D01*
X154492001Y-72767548D01*
X154492001Y-74544669D01*
X143508000Y-74544669D01*
X143508000Y-72772115D01*
X143503525Y-72756876D01*
X143502135Y-72755671D01*
X143494452Y-72754000D01*
X140272115Y-72754000D01*
X140256876Y-72758475D01*
X140255671Y-72759865D01*
X140254000Y-72767548D01*
X140254000Y-74989884D01*
X139746000Y-74989884D01*
X139746000Y-72772115D01*
X139741525Y-72756876D01*
X139740135Y-72755671D01*
X139732452Y-72754000D01*
X136510116Y-72754000D01*
X136494877Y-72758475D01*
X136493672Y-72759865D01*
X136492001Y-72767548D01*
X136492001Y-74544669D01*
X99508000Y-74544669D01*
X99508000Y-72227885D01*
X136492000Y-72227885D01*
X136496475Y-72243124D01*
X136497865Y-72244329D01*
X136505548Y-72246000D01*
X139727885Y-72246000D01*
X139743124Y-72241525D01*
X139744329Y-72240135D01*
X139746000Y-72232452D01*
X139746000Y-72227885D01*
X140254000Y-72227885D01*
X140258475Y-72243124D01*
X140259865Y-72244329D01*
X140267548Y-72246000D01*
X143489884Y-72246000D01*
X143505123Y-72241525D01*
X143506328Y-72240135D01*
X143507999Y-72232452D01*
X143507999Y-72227885D01*
X154492000Y-72227885D01*
X154496475Y-72243124D01*
X154497865Y-72244329D01*
X154505548Y-72246000D01*
X157727885Y-72246000D01*
X157743124Y-72241525D01*
X157744329Y-72240135D01*
X157746000Y-72232452D01*
X157746000Y-72227885D01*
X158254000Y-72227885D01*
X158258475Y-72243124D01*
X158259865Y-72244329D01*
X158267548Y-72246000D01*
X161489884Y-72246000D01*
X161505123Y-72241525D01*
X161506328Y-72240135D01*
X161507999Y-72232452D01*
X161507999Y-70455331D01*
X161507629Y-70448510D01*
X161502105Y-70397648D01*
X161498479Y-70382396D01*
X161453324Y-70261946D01*
X161444786Y-70246351D01*
X161368285Y-70144276D01*
X161355724Y-70131715D01*
X161253649Y-70055214D01*
X161238054Y-70046676D01*
X161117606Y-70001522D01*
X161102351Y-69997895D01*
X161051486Y-69992369D01*
X161044672Y-69992000D01*
X158272115Y-69992000D01*
X158256876Y-69996475D01*
X158255671Y-69997865D01*
X158254000Y-70005548D01*
X158254000Y-72227885D01*
X157746000Y-72227885D01*
X157746000Y-70010116D01*
X157741525Y-69994877D01*
X157740135Y-69993672D01*
X157732452Y-69992001D01*
X154955331Y-69992001D01*
X154948510Y-69992371D01*
X154897648Y-69997895D01*
X154882396Y-70001521D01*
X154761946Y-70046676D01*
X154746351Y-70055214D01*
X154644276Y-70131715D01*
X154631715Y-70144276D01*
X154555214Y-70246351D01*
X154546676Y-70261946D01*
X154501522Y-70382394D01*
X154497895Y-70397649D01*
X154492369Y-70448514D01*
X154492000Y-70455328D01*
X154492000Y-72227885D01*
X143507999Y-72227885D01*
X143507999Y-70455331D01*
X143507629Y-70448510D01*
X143502105Y-70397648D01*
X143498479Y-70382396D01*
X143453324Y-70261946D01*
X143444786Y-70246351D01*
X143368285Y-70144276D01*
X143355724Y-70131715D01*
X143253649Y-70055214D01*
X143238054Y-70046676D01*
X143117606Y-70001522D01*
X143102351Y-69997895D01*
X143051486Y-69992369D01*
X143044672Y-69992000D01*
X140272115Y-69992000D01*
X140256876Y-69996475D01*
X140255671Y-69997865D01*
X140254000Y-70005548D01*
X140254000Y-72227885D01*
X139746000Y-72227885D01*
X139746000Y-70010116D01*
X139741525Y-69994877D01*
X139740135Y-69993672D01*
X139732452Y-69992001D01*
X136955331Y-69992001D01*
X136948510Y-69992371D01*
X136897648Y-69997895D01*
X136882396Y-70001521D01*
X136761946Y-70046676D01*
X136746351Y-70055214D01*
X136644276Y-70131715D01*
X136631715Y-70144276D01*
X136555214Y-70246351D01*
X136546676Y-70261946D01*
X136501522Y-70382394D01*
X136497895Y-70397649D01*
X136492369Y-70448514D01*
X136492000Y-70455328D01*
X136492000Y-72227885D01*
X99508000Y-72227885D01*
X99508000Y-45134000D01*
X99528002Y-45065879D01*
X99581658Y-45019386D01*
X99634000Y-45008000D01*
X198366000Y-45008000D01*
X198434121Y-45028002D01*
G37*
%TD.AperFunction*%
%TD*%
M02*
