%TF.GenerationSoftware,KiCad,Pcbnew,6.0.2+dfsg-1*%
%TF.CreationDate,2024-04-05T14:20:16-05:00*%
%TF.ProjectId,Dick Smith RDF KK-8345,4469636b-2053-46d6-9974-682052444620,001*%
%TF.SameCoordinates,Original*%
%TF.FileFunction,Legend,Top*%
%TF.FilePolarity,Positive*%
%FSLAX46Y46*%
G04 Gerber Fmt 4.6, Leading zero omitted, Abs format (unit mm)*
G04 Created by KiCad (PCBNEW 6.0.2+dfsg-1) date 2024-04-05 14:20:16*
%MOMM*%
%LPD*%
G01*
G04 APERTURE LIST*
%ADD10C,0.150000*%
%ADD11C,0.300000*%
%ADD12C,0.120000*%
G04 APERTURE END LIST*
D10*
X193833333Y-135285714D02*
X194071428Y-135952380D01*
X194309523Y-135285714D01*
X194880952Y-134952380D02*
X194976190Y-134952380D01*
X195071428Y-135000000D01*
X195119047Y-135047619D01*
X195166666Y-135142857D01*
X195214285Y-135333333D01*
X195214285Y-135571428D01*
X195166666Y-135761904D01*
X195119047Y-135857142D01*
X195071428Y-135904761D01*
X194976190Y-135952380D01*
X194880952Y-135952380D01*
X194785714Y-135904761D01*
X194738095Y-135857142D01*
X194690476Y-135761904D01*
X194642857Y-135571428D01*
X194642857Y-135333333D01*
X194690476Y-135142857D01*
X194738095Y-135047619D01*
X194785714Y-135000000D01*
X194880952Y-134952380D01*
X195833333Y-134952380D02*
X195928571Y-134952380D01*
X196023809Y-135000000D01*
X196071428Y-135047619D01*
X196119047Y-135142857D01*
X196166666Y-135333333D01*
X196166666Y-135571428D01*
X196119047Y-135761904D01*
X196071428Y-135857142D01*
X196023809Y-135904761D01*
X195928571Y-135952380D01*
X195833333Y-135952380D01*
X195738095Y-135904761D01*
X195690476Y-135857142D01*
X195642857Y-135761904D01*
X195595238Y-135571428D01*
X195595238Y-135333333D01*
X195642857Y-135142857D01*
X195690476Y-135047619D01*
X195738095Y-135000000D01*
X195833333Y-134952380D01*
X196547619Y-135047619D02*
X196595238Y-135000000D01*
X196690476Y-134952380D01*
X196928571Y-134952380D01*
X197023809Y-135000000D01*
X197071428Y-135047619D01*
X197119047Y-135142857D01*
X197119047Y-135238095D01*
X197071428Y-135380952D01*
X196500000Y-135952380D01*
X197119047Y-135952380D01*
X173950119Y-125037380D02*
X173950119Y-124037380D01*
X174188214Y-124037380D01*
X174331071Y-124085000D01*
X174426309Y-124180238D01*
X174473928Y-124275476D01*
X174521547Y-124465952D01*
X174521547Y-124608809D01*
X174473928Y-124799285D01*
X174426309Y-124894523D01*
X174331071Y-124989761D01*
X174188214Y-125037380D01*
X173950119Y-125037380D01*
X174950119Y-125037380D02*
X174950119Y-124370714D01*
X174950119Y-124037380D02*
X174902500Y-124085000D01*
X174950119Y-124132619D01*
X174997738Y-124085000D01*
X174950119Y-124037380D01*
X174950119Y-124132619D01*
X175854880Y-124989761D02*
X175759642Y-125037380D01*
X175569166Y-125037380D01*
X175473928Y-124989761D01*
X175426309Y-124942142D01*
X175378690Y-124846904D01*
X175378690Y-124561190D01*
X175426309Y-124465952D01*
X175473928Y-124418333D01*
X175569166Y-124370714D01*
X175759642Y-124370714D01*
X175854880Y-124418333D01*
X176283452Y-125037380D02*
X176283452Y-124037380D01*
X176378690Y-124656428D02*
X176664404Y-125037380D01*
X176664404Y-124370714D02*
X176283452Y-124751666D01*
X177807261Y-124989761D02*
X177950119Y-125037380D01*
X178188214Y-125037380D01*
X178283452Y-124989761D01*
X178331071Y-124942142D01*
X178378690Y-124846904D01*
X178378690Y-124751666D01*
X178331071Y-124656428D01*
X178283452Y-124608809D01*
X178188214Y-124561190D01*
X177997738Y-124513571D01*
X177902500Y-124465952D01*
X177854880Y-124418333D01*
X177807261Y-124323095D01*
X177807261Y-124227857D01*
X177854880Y-124132619D01*
X177902500Y-124085000D01*
X177997738Y-124037380D01*
X178235833Y-124037380D01*
X178378690Y-124085000D01*
X178807261Y-125037380D02*
X178807261Y-124370714D01*
X178807261Y-124465952D02*
X178854880Y-124418333D01*
X178950119Y-124370714D01*
X179092976Y-124370714D01*
X179188214Y-124418333D01*
X179235833Y-124513571D01*
X179235833Y-125037380D01*
X179235833Y-124513571D02*
X179283452Y-124418333D01*
X179378690Y-124370714D01*
X179521547Y-124370714D01*
X179616785Y-124418333D01*
X179664404Y-124513571D01*
X179664404Y-125037380D01*
X180140595Y-125037380D02*
X180140595Y-124370714D01*
X180140595Y-124037380D02*
X180092976Y-124085000D01*
X180140595Y-124132619D01*
X180188214Y-124085000D01*
X180140595Y-124037380D01*
X180140595Y-124132619D01*
X180473928Y-124370714D02*
X180854880Y-124370714D01*
X180616785Y-124037380D02*
X180616785Y-124894523D01*
X180664404Y-124989761D01*
X180759642Y-125037380D01*
X180854880Y-125037380D01*
X181188214Y-125037380D02*
X181188214Y-124037380D01*
X181616785Y-125037380D02*
X181616785Y-124513571D01*
X181569166Y-124418333D01*
X181473928Y-124370714D01*
X181331071Y-124370714D01*
X181235833Y-124418333D01*
X181188214Y-124465952D01*
X183426309Y-125037380D02*
X183092976Y-124561190D01*
X182854880Y-125037380D02*
X182854880Y-124037380D01*
X183235833Y-124037380D01*
X183331071Y-124085000D01*
X183378690Y-124132619D01*
X183426309Y-124227857D01*
X183426309Y-124370714D01*
X183378690Y-124465952D01*
X183331071Y-124513571D01*
X183235833Y-124561190D01*
X182854880Y-124561190D01*
X183854880Y-125037380D02*
X183854880Y-124037380D01*
X184092976Y-124037380D01*
X184235833Y-124085000D01*
X184331071Y-124180238D01*
X184378690Y-124275476D01*
X184426309Y-124465952D01*
X184426309Y-124608809D01*
X184378690Y-124799285D01*
X184331071Y-124894523D01*
X184235833Y-124989761D01*
X184092976Y-125037380D01*
X183854880Y-125037380D01*
X185188214Y-124513571D02*
X184854880Y-124513571D01*
X184854880Y-125037380D02*
X184854880Y-124037380D01*
X185331071Y-124037380D01*
X186473928Y-125037380D02*
X186473928Y-124037380D01*
X187045357Y-125037380D02*
X186616785Y-124465952D01*
X187045357Y-124037380D02*
X186473928Y-124608809D01*
X187473928Y-125037380D02*
X187473928Y-124037380D01*
X188045357Y-125037380D02*
X187616785Y-124465952D01*
X188045357Y-124037380D02*
X187473928Y-124608809D01*
X188473928Y-124656428D02*
X189235833Y-124656428D01*
X189854880Y-124465952D02*
X189759642Y-124418333D01*
X189712023Y-124370714D01*
X189664404Y-124275476D01*
X189664404Y-124227857D01*
X189712023Y-124132619D01*
X189759642Y-124085000D01*
X189854880Y-124037380D01*
X190045357Y-124037380D01*
X190140595Y-124085000D01*
X190188214Y-124132619D01*
X190235833Y-124227857D01*
X190235833Y-124275476D01*
X190188214Y-124370714D01*
X190140595Y-124418333D01*
X190045357Y-124465952D01*
X189854880Y-124465952D01*
X189759642Y-124513571D01*
X189712023Y-124561190D01*
X189664404Y-124656428D01*
X189664404Y-124846904D01*
X189712023Y-124942142D01*
X189759642Y-124989761D01*
X189854880Y-125037380D01*
X190045357Y-125037380D01*
X190140595Y-124989761D01*
X190188214Y-124942142D01*
X190235833Y-124846904D01*
X190235833Y-124656428D01*
X190188214Y-124561190D01*
X190140595Y-124513571D01*
X190045357Y-124465952D01*
X190569166Y-124037380D02*
X191188214Y-124037380D01*
X190854880Y-124418333D01*
X190997738Y-124418333D01*
X191092976Y-124465952D01*
X191140595Y-124513571D01*
X191188214Y-124608809D01*
X191188214Y-124846904D01*
X191140595Y-124942142D01*
X191092976Y-124989761D01*
X190997738Y-125037380D01*
X190712023Y-125037380D01*
X190616785Y-124989761D01*
X190569166Y-124942142D01*
X192045357Y-124370714D02*
X192045357Y-125037380D01*
X191807261Y-123989761D02*
X191569166Y-124704047D01*
X192188214Y-124704047D01*
X193045357Y-124037380D02*
X192569166Y-124037380D01*
X192521547Y-124513571D01*
X192569166Y-124465952D01*
X192664404Y-124418333D01*
X192902500Y-124418333D01*
X192997738Y-124465952D01*
X193045357Y-124513571D01*
X193092976Y-124608809D01*
X193092976Y-124846904D01*
X193045357Y-124942142D01*
X192997738Y-124989761D01*
X192902500Y-125037380D01*
X192664404Y-125037380D01*
X192569166Y-124989761D01*
X192521547Y-124942142D01*
X194235833Y-124751666D02*
X194712023Y-124751666D01*
X194140595Y-125037380D02*
X194473928Y-124037380D01*
X194807261Y-125037380D01*
X195092976Y-124989761D02*
X195235833Y-125037380D01*
X195473928Y-125037380D01*
X195569166Y-124989761D01*
X195616785Y-124942142D01*
X195664404Y-124846904D01*
X195664404Y-124751666D01*
X195616785Y-124656428D01*
X195569166Y-124608809D01*
X195473928Y-124561190D01*
X195283452Y-124513571D01*
X195188214Y-124465952D01*
X195140595Y-124418333D01*
X195092976Y-124323095D01*
X195092976Y-124227857D01*
X195140595Y-124132619D01*
X195188214Y-124085000D01*
X195283452Y-124037380D01*
X195521547Y-124037380D01*
X195664404Y-124085000D01*
X196092976Y-124037380D02*
X196092976Y-124846904D01*
X196140595Y-124942142D01*
X196188214Y-124989761D01*
X196283452Y-125037380D01*
X196473928Y-125037380D01*
X196569166Y-124989761D01*
X196616785Y-124942142D01*
X196664404Y-124846904D01*
X196664404Y-124037380D01*
X179092976Y-126647380D02*
X179092976Y-125647380D01*
X179426309Y-126361666D01*
X179759642Y-125647380D01*
X179759642Y-126647380D01*
X180378690Y-126647380D02*
X180283452Y-126599761D01*
X180235833Y-126552142D01*
X180188214Y-126456904D01*
X180188214Y-126171190D01*
X180235833Y-126075952D01*
X180283452Y-126028333D01*
X180378690Y-125980714D01*
X180521547Y-125980714D01*
X180616785Y-126028333D01*
X180664404Y-126075952D01*
X180712023Y-126171190D01*
X180712023Y-126456904D01*
X180664404Y-126552142D01*
X180616785Y-126599761D01*
X180521547Y-126647380D01*
X180378690Y-126647380D01*
X181569166Y-126647380D02*
X181569166Y-125647380D01*
X181569166Y-126599761D02*
X181473928Y-126647380D01*
X181283452Y-126647380D01*
X181188214Y-126599761D01*
X181140595Y-126552142D01*
X181092976Y-126456904D01*
X181092976Y-126171190D01*
X181140595Y-126075952D01*
X181188214Y-126028333D01*
X181283452Y-125980714D01*
X181473928Y-125980714D01*
X181569166Y-126028333D01*
X182807261Y-126647380D02*
X182807261Y-125647380D01*
X182807261Y-126028333D02*
X182902500Y-125980714D01*
X183092976Y-125980714D01*
X183188214Y-126028333D01*
X183235833Y-126075952D01*
X183283452Y-126171190D01*
X183283452Y-126456904D01*
X183235833Y-126552142D01*
X183188214Y-126599761D01*
X183092976Y-126647380D01*
X182902500Y-126647380D01*
X182807261Y-126599761D01*
X183616785Y-125980714D02*
X183854880Y-126647380D01*
X184092976Y-125980714D02*
X183854880Y-126647380D01*
X183759642Y-126885476D01*
X183712023Y-126933095D01*
X183616785Y-126980714D01*
X185235833Y-126647380D02*
X185235833Y-125647380D01*
X185807261Y-126647380D01*
X185807261Y-125647380D01*
X186331071Y-126647380D02*
X186521547Y-126647380D01*
X186616785Y-126599761D01*
X186664404Y-126552142D01*
X186759642Y-126409285D01*
X186807261Y-126218809D01*
X186807261Y-125837857D01*
X186759642Y-125742619D01*
X186712023Y-125695000D01*
X186616785Y-125647380D01*
X186426309Y-125647380D01*
X186331071Y-125695000D01*
X186283452Y-125742619D01*
X186235833Y-125837857D01*
X186235833Y-126075952D01*
X186283452Y-126171190D01*
X186331071Y-126218809D01*
X186426309Y-126266428D01*
X186616785Y-126266428D01*
X186712023Y-126218809D01*
X186759642Y-126171190D01*
X186807261Y-126075952D01*
X187807261Y-126552142D02*
X187759642Y-126599761D01*
X187616785Y-126647380D01*
X187521547Y-126647380D01*
X187378690Y-126599761D01*
X187283452Y-126504523D01*
X187235833Y-126409285D01*
X187188214Y-126218809D01*
X187188214Y-126075952D01*
X187235833Y-125885476D01*
X187283452Y-125790238D01*
X187378690Y-125695000D01*
X187521547Y-125647380D01*
X187616785Y-125647380D01*
X187759642Y-125695000D01*
X187807261Y-125742619D01*
X188092976Y-125647380D02*
X188426309Y-126647380D01*
X188759642Y-125647380D01*
X189664404Y-126647380D02*
X189331071Y-126171190D01*
X189092976Y-126647380D02*
X189092976Y-125647380D01*
X189473928Y-125647380D01*
X189569166Y-125695000D01*
X189616785Y-125742619D01*
X189664404Y-125837857D01*
X189664404Y-125980714D01*
X189616785Y-126075952D01*
X189569166Y-126123571D01*
X189473928Y-126171190D01*
X189092976Y-126171190D01*
X191569166Y-125599761D02*
X190712023Y-126885476D01*
X192569166Y-125647380D02*
X192807261Y-126647380D01*
X192997738Y-125933095D01*
X193188214Y-126647380D01*
X193426309Y-125647380D01*
X193759642Y-126361666D02*
X194235833Y-126361666D01*
X193664404Y-126647380D02*
X193997738Y-125647380D01*
X194331071Y-126647380D01*
X194712023Y-126647380D02*
X194902500Y-126647380D01*
X194997738Y-126599761D01*
X195045357Y-126552142D01*
X195140595Y-126409285D01*
X195188214Y-126218809D01*
X195188214Y-125837857D01*
X195140595Y-125742619D01*
X195092976Y-125695000D01*
X194997738Y-125647380D01*
X194807261Y-125647380D01*
X194712023Y-125695000D01*
X194664404Y-125742619D01*
X194616785Y-125837857D01*
X194616785Y-126075952D01*
X194664404Y-126171190D01*
X194712023Y-126218809D01*
X194807261Y-126266428D01*
X194997738Y-126266428D01*
X195092976Y-126218809D01*
X195140595Y-126171190D01*
X195188214Y-126075952D01*
X195473928Y-125647380D02*
X196045357Y-125647380D01*
X195759642Y-126647380D02*
X195759642Y-125647380D01*
X196235833Y-125647380D02*
X196807261Y-125647380D01*
X196521547Y-126647380D02*
X196521547Y-125647380D01*
X182902500Y-128257380D02*
X182426309Y-128257380D01*
X182426309Y-127257380D01*
X183235833Y-128257380D02*
X183235833Y-127590714D01*
X183235833Y-127257380D02*
X183188214Y-127305000D01*
X183235833Y-127352619D01*
X183283452Y-127305000D01*
X183235833Y-127257380D01*
X183235833Y-127352619D01*
X184140595Y-128209761D02*
X184045357Y-128257380D01*
X183854880Y-128257380D01*
X183759642Y-128209761D01*
X183712023Y-128162142D01*
X183664404Y-128066904D01*
X183664404Y-127781190D01*
X183712023Y-127685952D01*
X183759642Y-127638333D01*
X183854880Y-127590714D01*
X184045357Y-127590714D01*
X184140595Y-127638333D01*
X184950119Y-128209761D02*
X184854880Y-128257380D01*
X184664404Y-128257380D01*
X184569166Y-128209761D01*
X184521547Y-128114523D01*
X184521547Y-127733571D01*
X184569166Y-127638333D01*
X184664404Y-127590714D01*
X184854880Y-127590714D01*
X184950119Y-127638333D01*
X184997738Y-127733571D01*
X184997738Y-127828809D01*
X184521547Y-127924047D01*
X185426309Y-127590714D02*
X185426309Y-128257380D01*
X185426309Y-127685952D02*
X185473928Y-127638333D01*
X185569166Y-127590714D01*
X185712023Y-127590714D01*
X185807261Y-127638333D01*
X185854880Y-127733571D01*
X185854880Y-128257380D01*
X186283452Y-128209761D02*
X186378690Y-128257380D01*
X186569166Y-128257380D01*
X186664404Y-128209761D01*
X186712023Y-128114523D01*
X186712023Y-128066904D01*
X186664404Y-127971666D01*
X186569166Y-127924047D01*
X186426309Y-127924047D01*
X186331071Y-127876428D01*
X186283452Y-127781190D01*
X186283452Y-127733571D01*
X186331071Y-127638333D01*
X186426309Y-127590714D01*
X186569166Y-127590714D01*
X186664404Y-127638333D01*
X187521547Y-128209761D02*
X187426309Y-128257380D01*
X187235833Y-128257380D01*
X187140595Y-128209761D01*
X187092976Y-128114523D01*
X187092976Y-127733571D01*
X187140595Y-127638333D01*
X187235833Y-127590714D01*
X187426309Y-127590714D01*
X187521547Y-127638333D01*
X187569166Y-127733571D01*
X187569166Y-127828809D01*
X187092976Y-127924047D01*
X189283452Y-127305000D02*
X189188214Y-127257380D01*
X189045357Y-127257380D01*
X188902500Y-127305000D01*
X188807261Y-127400238D01*
X188759642Y-127495476D01*
X188712023Y-127685952D01*
X188712023Y-127828809D01*
X188759642Y-128019285D01*
X188807261Y-128114523D01*
X188902500Y-128209761D01*
X189045357Y-128257380D01*
X189140595Y-128257380D01*
X189283452Y-128209761D01*
X189331071Y-128162142D01*
X189331071Y-127828809D01*
X189140595Y-127828809D01*
X189759642Y-128257380D02*
X189759642Y-127257380D01*
X190331071Y-128257380D01*
X190331071Y-127257380D01*
X190807261Y-127257380D02*
X190807261Y-128066904D01*
X190854880Y-128162142D01*
X190902500Y-128209761D01*
X190997738Y-128257380D01*
X191188214Y-128257380D01*
X191283452Y-128209761D01*
X191331071Y-128162142D01*
X191378690Y-128066904D01*
X191378690Y-127257380D01*
X193140595Y-127305000D02*
X193045357Y-127257380D01*
X192902500Y-127257380D01*
X192759642Y-127305000D01*
X192664404Y-127400238D01*
X192616785Y-127495476D01*
X192569166Y-127685952D01*
X192569166Y-127828809D01*
X192616785Y-128019285D01*
X192664404Y-128114523D01*
X192759642Y-128209761D01*
X192902500Y-128257380D01*
X192997738Y-128257380D01*
X193140595Y-128209761D01*
X193188214Y-128162142D01*
X193188214Y-127828809D01*
X192997738Y-127828809D01*
X193616785Y-128257380D02*
X193616785Y-127257380D01*
X193997738Y-127257380D01*
X194092976Y-127305000D01*
X194140595Y-127352619D01*
X194188214Y-127447857D01*
X194188214Y-127590714D01*
X194140595Y-127685952D01*
X194092976Y-127733571D01*
X193997738Y-127781190D01*
X193616785Y-127781190D01*
X195092976Y-128257380D02*
X194616785Y-128257380D01*
X194616785Y-127257380D01*
X195331071Y-127590714D02*
X195569166Y-128257380D01*
X195807261Y-127590714D01*
X196092976Y-127257380D02*
X196712023Y-127257380D01*
X196378690Y-127638333D01*
X196521547Y-127638333D01*
X196616785Y-127685952D01*
X196664404Y-127733571D01*
X196712023Y-127828809D01*
X196712023Y-128066904D01*
X196664404Y-128162142D01*
X196616785Y-128209761D01*
X196521547Y-128257380D01*
X196235833Y-128257380D01*
X196140595Y-128209761D01*
X196092976Y-128162142D01*
X193283452Y-128962619D02*
X193331071Y-128915000D01*
X193426309Y-128867380D01*
X193664404Y-128867380D01*
X193759642Y-128915000D01*
X193807261Y-128962619D01*
X193854880Y-129057857D01*
X193854880Y-129153095D01*
X193807261Y-129295952D01*
X193235833Y-129867380D01*
X193854880Y-129867380D01*
X194473928Y-128867380D02*
X194569166Y-128867380D01*
X194664404Y-128915000D01*
X194712023Y-128962619D01*
X194759642Y-129057857D01*
X194807261Y-129248333D01*
X194807261Y-129486428D01*
X194759642Y-129676904D01*
X194712023Y-129772142D01*
X194664404Y-129819761D01*
X194569166Y-129867380D01*
X194473928Y-129867380D01*
X194378690Y-129819761D01*
X194331071Y-129772142D01*
X194283452Y-129676904D01*
X194235833Y-129486428D01*
X194235833Y-129248333D01*
X194283452Y-129057857D01*
X194331071Y-128962619D01*
X194378690Y-128915000D01*
X194473928Y-128867380D01*
X195188214Y-128962619D02*
X195235833Y-128915000D01*
X195331071Y-128867380D01*
X195569166Y-128867380D01*
X195664404Y-128915000D01*
X195712023Y-128962619D01*
X195759642Y-129057857D01*
X195759642Y-129153095D01*
X195712023Y-129295952D01*
X195140595Y-129867380D01*
X195759642Y-129867380D01*
X196616785Y-129200714D02*
X196616785Y-129867380D01*
X196378690Y-128819761D02*
X196140595Y-129534047D01*
X196759642Y-129534047D01*
%TO.C,J6*%
X87166666Y-102452380D02*
X87166666Y-103166666D01*
X87119047Y-103309523D01*
X87023809Y-103404761D01*
X86880952Y-103452380D01*
X86785714Y-103452380D01*
X88071428Y-102452380D02*
X87880952Y-102452380D01*
X87785714Y-102500000D01*
X87738095Y-102547619D01*
X87642857Y-102690476D01*
X87595238Y-102880952D01*
X87595238Y-103261904D01*
X87642857Y-103357142D01*
X87690476Y-103404761D01*
X87785714Y-103452380D01*
X87976190Y-103452380D01*
X88071428Y-103404761D01*
X88119047Y-103357142D01*
X88166666Y-103261904D01*
X88166666Y-103023809D01*
X88119047Y-102928571D01*
X88071428Y-102880952D01*
X87976190Y-102833333D01*
X87785714Y-102833333D01*
X87690476Y-102880952D01*
X87642857Y-102928571D01*
X87595238Y-103023809D01*
X115214285Y-106952380D02*
X114880952Y-106476190D01*
X114642857Y-106952380D02*
X114642857Y-105952380D01*
X115023809Y-105952380D01*
X115119047Y-106000000D01*
X115166666Y-106047619D01*
X115214285Y-106142857D01*
X115214285Y-106285714D01*
X115166666Y-106380952D01*
X115119047Y-106428571D01*
X115023809Y-106476190D01*
X114642857Y-106476190D01*
X115642857Y-106952380D02*
X115642857Y-105952380D01*
X115880952Y-105952380D01*
X116023809Y-106000000D01*
X116119047Y-106095238D01*
X116166666Y-106190476D01*
X116214285Y-106380952D01*
X116214285Y-106523809D01*
X116166666Y-106714285D01*
X116119047Y-106809523D01*
X116023809Y-106904761D01*
X115880952Y-106952380D01*
X115642857Y-106952380D01*
X116976190Y-106428571D02*
X116642857Y-106428571D01*
X116642857Y-106952380D02*
X116642857Y-105952380D01*
X117119047Y-105952380D01*
X118833333Y-106857142D02*
X118785714Y-106904761D01*
X118642857Y-106952380D01*
X118547619Y-106952380D01*
X118404761Y-106904761D01*
X118309523Y-106809523D01*
X118261904Y-106714285D01*
X118214285Y-106523809D01*
X118214285Y-106380952D01*
X118261904Y-106190476D01*
X118309523Y-106095238D01*
X118404761Y-106000000D01*
X118547619Y-105952380D01*
X118642857Y-105952380D01*
X118785714Y-106000000D01*
X118833333Y-106047619D01*
X119119047Y-105952380D02*
X119690476Y-105952380D01*
X119404761Y-106952380D02*
X119404761Y-105952380D01*
X120595238Y-106952380D02*
X120261904Y-106476190D01*
X120023809Y-106952380D02*
X120023809Y-105952380D01*
X120404761Y-105952380D01*
X120500000Y-106000000D01*
X120547619Y-106047619D01*
X120595238Y-106142857D01*
X120595238Y-106285714D01*
X120547619Y-106380952D01*
X120500000Y-106428571D01*
X120404761Y-106476190D01*
X120023809Y-106476190D01*
X121500000Y-106952380D02*
X121023809Y-106952380D01*
X121023809Y-105952380D01*
X122666666Y-92952380D02*
X123285714Y-92952380D01*
X122952380Y-93333333D01*
X123095238Y-93333333D01*
X123190476Y-93380952D01*
X123238095Y-93428571D01*
X123285714Y-93523809D01*
X123285714Y-93761904D01*
X123238095Y-93857142D01*
X123190476Y-93904761D01*
X123095238Y-93952380D01*
X122809523Y-93952380D01*
X122714285Y-93904761D01*
X122666666Y-93857142D01*
X112714285Y-93047619D02*
X112761904Y-93000000D01*
X112857142Y-92952380D01*
X113095238Y-92952380D01*
X113190476Y-93000000D01*
X113238095Y-93047619D01*
X113285714Y-93142857D01*
X113285714Y-93238095D01*
X113238095Y-93380952D01*
X112666666Y-93952380D01*
X113285714Y-93952380D01*
X113285714Y-104452380D02*
X112714285Y-104452380D01*
X113000000Y-104452380D02*
X113000000Y-103452380D01*
X112904761Y-103595238D01*
X112809523Y-103690476D01*
X112714285Y-103738095D01*
X123190476Y-103785714D02*
X123190476Y-104452380D01*
X122952380Y-103404761D02*
X122714285Y-104119047D01*
X123333333Y-104119047D01*
X102095238Y-98904761D02*
X102238095Y-98952380D01*
X102476190Y-98952380D01*
X102571428Y-98904761D01*
X102619047Y-98857142D01*
X102666666Y-98761904D01*
X102666666Y-98666666D01*
X102619047Y-98571428D01*
X102571428Y-98523809D01*
X102476190Y-98476190D01*
X102285714Y-98428571D01*
X102190476Y-98380952D01*
X102142857Y-98333333D01*
X102095238Y-98238095D01*
X102095238Y-98142857D01*
X102142857Y-98047619D01*
X102190476Y-98000000D01*
X102285714Y-97952380D01*
X102523809Y-97952380D01*
X102666666Y-98000000D01*
X103095238Y-98952380D02*
X103095238Y-97952380D01*
X103095238Y-98428571D02*
X103666666Y-98428571D01*
X103666666Y-98952380D02*
X103666666Y-97952380D01*
X104142857Y-98952380D02*
X104142857Y-97952380D01*
X104619047Y-98428571D02*
X104952380Y-98428571D01*
X105095238Y-98952380D02*
X104619047Y-98952380D01*
X104619047Y-97952380D01*
X105095238Y-97952380D01*
X106000000Y-98952380D02*
X105523809Y-98952380D01*
X105523809Y-97952380D01*
X106333333Y-98952380D02*
X106333333Y-97952380D01*
X106571428Y-97952380D01*
X106714285Y-98000000D01*
X106809523Y-98095238D01*
X106857142Y-98190476D01*
X106904761Y-98380952D01*
X106904761Y-98523809D01*
X106857142Y-98714285D01*
X106809523Y-98809523D01*
X106714285Y-98904761D01*
X106571428Y-98952380D01*
X106333333Y-98952380D01*
%TO.C,J3*%
X153731874Y-109384468D02*
X154446160Y-109384468D01*
X154589017Y-109432087D01*
X154684255Y-109527325D01*
X154731874Y-109670182D01*
X154731874Y-109765420D01*
X153731874Y-109003515D02*
X153731874Y-108384468D01*
X154112827Y-108717801D01*
X154112827Y-108574944D01*
X154160446Y-108479706D01*
X154208065Y-108432087D01*
X154303303Y-108384468D01*
X154541398Y-108384468D01*
X154636636Y-108432087D01*
X154684255Y-108479706D01*
X154731874Y-108574944D01*
X154731874Y-108860658D01*
X154684255Y-108955896D01*
X154636636Y-109003515D01*
X161220500Y-109289855D02*
X161696690Y-109289855D01*
X161125262Y-109575569D02*
X161458595Y-108575569D01*
X161791928Y-109575569D01*
X162125262Y-109575569D02*
X162125262Y-108575569D01*
X162696690Y-109575569D01*
X162696690Y-108575569D01*
X163030024Y-108575569D02*
X163601452Y-108575569D01*
X163315738Y-109575569D02*
X163315738Y-108575569D01*
X163839548Y-108575569D02*
X164458595Y-108575569D01*
X164125262Y-108956522D01*
X164268119Y-108956522D01*
X164363357Y-109004141D01*
X164410976Y-109051760D01*
X164458595Y-109146998D01*
X164458595Y-109385093D01*
X164410976Y-109480331D01*
X164363357Y-109527950D01*
X164268119Y-109575569D01*
X163982405Y-109575569D01*
X163887167Y-109527950D01*
X163839548Y-109480331D01*
%TO.C,J5*%
X182206968Y-86181125D02*
X182206968Y-86895411D01*
X182159349Y-87038268D01*
X182064111Y-87133506D01*
X181921254Y-87181125D01*
X181826016Y-87181125D01*
X183159349Y-86181125D02*
X182683159Y-86181125D01*
X182635540Y-86657316D01*
X182683159Y-86609697D01*
X182778397Y-86562078D01*
X183016492Y-86562078D01*
X183111730Y-86609697D01*
X183159349Y-86657316D01*
X183206968Y-86752554D01*
X183206968Y-86990649D01*
X183159349Y-87085887D01*
X183111730Y-87133506D01*
X183016492Y-87181125D01*
X182778397Y-87181125D01*
X182683159Y-87133506D01*
X182635540Y-87085887D01*
%TO.C,D201*%
X142309523Y-78452380D02*
X142309523Y-77452380D01*
X142547619Y-77452380D01*
X142690476Y-77500000D01*
X142785714Y-77595238D01*
X142833333Y-77690476D01*
X142880952Y-77880952D01*
X142880952Y-78023809D01*
X142833333Y-78214285D01*
X142785714Y-78309523D01*
X142690476Y-78404761D01*
X142547619Y-78452380D01*
X142309523Y-78452380D01*
X143261904Y-77547619D02*
X143309523Y-77500000D01*
X143404761Y-77452380D01*
X143642857Y-77452380D01*
X143738095Y-77500000D01*
X143785714Y-77547619D01*
X143833333Y-77642857D01*
X143833333Y-77738095D01*
X143785714Y-77880952D01*
X143214285Y-78452380D01*
X143833333Y-78452380D01*
X144452380Y-77452380D02*
X144547619Y-77452380D01*
X144642857Y-77500000D01*
X144690476Y-77547619D01*
X144738095Y-77642857D01*
X144785714Y-77833333D01*
X144785714Y-78071428D01*
X144738095Y-78261904D01*
X144690476Y-78357142D01*
X144642857Y-78404761D01*
X144547619Y-78452380D01*
X144452380Y-78452380D01*
X144357142Y-78404761D01*
X144309523Y-78357142D01*
X144261904Y-78261904D01*
X144214285Y-78071428D01*
X144214285Y-77833333D01*
X144261904Y-77642857D01*
X144309523Y-77547619D01*
X144357142Y-77500000D01*
X144452380Y-77452380D01*
X145738095Y-78452380D02*
X145166666Y-78452380D01*
X145452380Y-78452380D02*
X145452380Y-77452380D01*
X145357142Y-77595238D01*
X145261904Y-77690476D01*
X145166666Y-77738095D01*
%TO.C,D203*%
X152309523Y-92452380D02*
X152309523Y-91452380D01*
X152547619Y-91452380D01*
X152690476Y-91500000D01*
X152785714Y-91595238D01*
X152833333Y-91690476D01*
X152880952Y-91880952D01*
X152880952Y-92023809D01*
X152833333Y-92214285D01*
X152785714Y-92309523D01*
X152690476Y-92404761D01*
X152547619Y-92452380D01*
X152309523Y-92452380D01*
X153261904Y-91547619D02*
X153309523Y-91500000D01*
X153404761Y-91452380D01*
X153642857Y-91452380D01*
X153738095Y-91500000D01*
X153785714Y-91547619D01*
X153833333Y-91642857D01*
X153833333Y-91738095D01*
X153785714Y-91880952D01*
X153214285Y-92452380D01*
X153833333Y-92452380D01*
X154452380Y-91452380D02*
X154547619Y-91452380D01*
X154642857Y-91500000D01*
X154690476Y-91547619D01*
X154738095Y-91642857D01*
X154785714Y-91833333D01*
X154785714Y-92071428D01*
X154738095Y-92261904D01*
X154690476Y-92357142D01*
X154642857Y-92404761D01*
X154547619Y-92452380D01*
X154452380Y-92452380D01*
X154357142Y-92404761D01*
X154309523Y-92357142D01*
X154261904Y-92261904D01*
X154214285Y-92071428D01*
X154214285Y-91833333D01*
X154261904Y-91642857D01*
X154309523Y-91547619D01*
X154357142Y-91500000D01*
X154452380Y-91452380D01*
X155119047Y-91452380D02*
X155738095Y-91452380D01*
X155404761Y-91833333D01*
X155547619Y-91833333D01*
X155642857Y-91880952D01*
X155690476Y-91928571D01*
X155738095Y-92023809D01*
X155738095Y-92261904D01*
X155690476Y-92357142D01*
X155642857Y-92404761D01*
X155547619Y-92452380D01*
X155261904Y-92452380D01*
X155166666Y-92404761D01*
X155119047Y-92357142D01*
%TO.C,J4*%
X143137326Y-109283831D02*
X143851612Y-109283831D01*
X143994469Y-109331450D01*
X144089707Y-109426688D01*
X144137326Y-109569545D01*
X144137326Y-109664783D01*
X143470660Y-108379069D02*
X144137326Y-108379069D01*
X143089707Y-108617164D02*
X143803993Y-108855259D01*
X143803993Y-108236212D01*
X133250581Y-109153751D02*
X133726771Y-109153751D01*
X133155343Y-109439465D02*
X133488676Y-108439465D01*
X133822009Y-109439465D01*
X134155343Y-109439465D02*
X134155343Y-108439465D01*
X134726771Y-109439465D01*
X134726771Y-108439465D01*
X135060105Y-108439465D02*
X135631533Y-108439465D01*
X135345819Y-109439465D02*
X135345819Y-108439465D01*
X136393438Y-108772799D02*
X136393438Y-109439465D01*
X136155343Y-108391846D02*
X135917248Y-109106132D01*
X136536295Y-109106132D01*
%TO.C,L5*%
X172833333Y-75952380D02*
X172357142Y-75952380D01*
X172357142Y-74952380D01*
X173642857Y-74952380D02*
X173166666Y-74952380D01*
X173119047Y-75428571D01*
X173166666Y-75380952D01*
X173261904Y-75333333D01*
X173500000Y-75333333D01*
X173595238Y-75380952D01*
X173642857Y-75428571D01*
X173690476Y-75523809D01*
X173690476Y-75761904D01*
X173642857Y-75857142D01*
X173595238Y-75904761D01*
X173500000Y-75952380D01*
X173261904Y-75952380D01*
X173166666Y-75904761D01*
X173119047Y-75857142D01*
%TO.C,L2*%
X163635887Y-77903511D02*
X163159696Y-77903511D01*
X163159696Y-76903511D01*
X163921601Y-76998750D02*
X163969220Y-76951131D01*
X164064458Y-76903511D01*
X164302554Y-76903511D01*
X164397792Y-76951131D01*
X164445411Y-76998750D01*
X164493030Y-77093988D01*
X164493030Y-77189226D01*
X164445411Y-77332083D01*
X163873982Y-77903511D01*
X164493030Y-77903511D01*
%TO.C,D204*%
X142309523Y-92452380D02*
X142309523Y-91452380D01*
X142547619Y-91452380D01*
X142690476Y-91500000D01*
X142785714Y-91595238D01*
X142833333Y-91690476D01*
X142880952Y-91880952D01*
X142880952Y-92023809D01*
X142833333Y-92214285D01*
X142785714Y-92309523D01*
X142690476Y-92404761D01*
X142547619Y-92452380D01*
X142309523Y-92452380D01*
X143261904Y-91547619D02*
X143309523Y-91500000D01*
X143404761Y-91452380D01*
X143642857Y-91452380D01*
X143738095Y-91500000D01*
X143785714Y-91547619D01*
X143833333Y-91642857D01*
X143833333Y-91738095D01*
X143785714Y-91880952D01*
X143214285Y-92452380D01*
X143833333Y-92452380D01*
X144452380Y-91452380D02*
X144547619Y-91452380D01*
X144642857Y-91500000D01*
X144690476Y-91547619D01*
X144738095Y-91642857D01*
X144785714Y-91833333D01*
X144785714Y-92071428D01*
X144738095Y-92261904D01*
X144690476Y-92357142D01*
X144642857Y-92404761D01*
X144547619Y-92452380D01*
X144452380Y-92452380D01*
X144357142Y-92404761D01*
X144309523Y-92357142D01*
X144261904Y-92261904D01*
X144214285Y-92071428D01*
X144214285Y-91833333D01*
X144261904Y-91642857D01*
X144309523Y-91547619D01*
X144357142Y-91500000D01*
X144452380Y-91452380D01*
X145642857Y-91785714D02*
X145642857Y-92452380D01*
X145404761Y-91404761D02*
X145166666Y-92119047D01*
X145785714Y-92119047D01*
%TO.C,L4*%
X134333333Y-104952380D02*
X133857142Y-104952380D01*
X133857142Y-103952380D01*
X135095238Y-104285714D02*
X135095238Y-104952380D01*
X134857142Y-103904761D02*
X134619047Y-104619047D01*
X135238095Y-104619047D01*
%TO.C,C1*%
X171833333Y-89857142D02*
X171785714Y-89904761D01*
X171642857Y-89952380D01*
X171547619Y-89952380D01*
X171404761Y-89904761D01*
X171309523Y-89809523D01*
X171261904Y-89714285D01*
X171214285Y-89523809D01*
X171214285Y-89380952D01*
X171261904Y-89190476D01*
X171309523Y-89095238D01*
X171404761Y-89000000D01*
X171547619Y-88952380D01*
X171642857Y-88952380D01*
X171785714Y-89000000D01*
X171833333Y-89047619D01*
X172785714Y-89952380D02*
X172214285Y-89952380D01*
X172500000Y-89952380D02*
X172500000Y-88952380D01*
X172404761Y-89095238D01*
X172309523Y-89190476D01*
X172214285Y-89238095D01*
%TO.C,J2*%
X161537133Y-72830413D02*
X162251419Y-72830413D01*
X162394276Y-72878032D01*
X162489514Y-72973270D01*
X162537133Y-73116127D01*
X162537133Y-73211365D01*
X161632372Y-72401841D02*
X161584753Y-72354222D01*
X161537133Y-72258984D01*
X161537133Y-72020889D01*
X161584753Y-71925651D01*
X161632372Y-71878032D01*
X161727610Y-71830413D01*
X161822848Y-71830413D01*
X161965705Y-71878032D01*
X162537133Y-72449460D01*
X162537133Y-71830413D01*
X151423731Y-72939827D02*
X151899921Y-72939827D01*
X151328493Y-73225541D02*
X151661826Y-72225541D01*
X151995159Y-73225541D01*
X152328493Y-73225541D02*
X152328493Y-72225541D01*
X152899921Y-73225541D01*
X152899921Y-72225541D01*
X153233255Y-72225541D02*
X153804683Y-72225541D01*
X153518969Y-73225541D02*
X153518969Y-72225541D01*
X154090398Y-72320780D02*
X154138017Y-72273161D01*
X154233255Y-72225541D01*
X154471350Y-72225541D01*
X154566588Y-72273161D01*
X154614207Y-72320780D01*
X154661826Y-72416018D01*
X154661826Y-72511256D01*
X154614207Y-72654113D01*
X154042779Y-73225541D01*
X154661826Y-73225541D01*
%TO.C,L1*%
X134833333Y-77452380D02*
X134357142Y-77452380D01*
X134357142Y-76452380D01*
X135690476Y-77452380D02*
X135119047Y-77452380D01*
X135404761Y-77452380D02*
X135404761Y-76452380D01*
X135309523Y-76595238D01*
X135214285Y-76690476D01*
X135119047Y-76738095D01*
%TO.C,J1*%
X135095929Y-72865107D02*
X135810215Y-72865107D01*
X135953072Y-72912726D01*
X136048310Y-73007964D01*
X136095929Y-73150821D01*
X136095929Y-73246059D01*
X136095929Y-71865107D02*
X136095929Y-72436535D01*
X136095929Y-72150821D02*
X135095929Y-72150821D01*
X135238787Y-72246059D01*
X135334025Y-72341297D01*
X135381644Y-72436535D01*
X143585222Y-72961292D02*
X144061412Y-72961292D01*
X143489984Y-73247006D02*
X143823317Y-72247006D01*
X144156650Y-73247006D01*
X144489984Y-73247006D02*
X144489984Y-72247006D01*
X145061412Y-73247006D01*
X145061412Y-72247006D01*
X145394746Y-72247006D02*
X145966174Y-72247006D01*
X145680460Y-73247006D02*
X145680460Y-72247006D01*
X146823317Y-73247006D02*
X146251889Y-73247006D01*
X146537603Y-73247006D02*
X146537603Y-72247006D01*
X146442365Y-72389864D01*
X146347127Y-72485102D01*
X146251889Y-72532721D01*
%TO.C,D202*%
X151309523Y-78452380D02*
X151309523Y-77452380D01*
X151547619Y-77452380D01*
X151690476Y-77500000D01*
X151785714Y-77595238D01*
X151833333Y-77690476D01*
X151880952Y-77880952D01*
X151880952Y-78023809D01*
X151833333Y-78214285D01*
X151785714Y-78309523D01*
X151690476Y-78404761D01*
X151547619Y-78452380D01*
X151309523Y-78452380D01*
X152261904Y-77547619D02*
X152309523Y-77500000D01*
X152404761Y-77452380D01*
X152642857Y-77452380D01*
X152738095Y-77500000D01*
X152785714Y-77547619D01*
X152833333Y-77642857D01*
X152833333Y-77738095D01*
X152785714Y-77880952D01*
X152214285Y-78452380D01*
X152833333Y-78452380D01*
X153452380Y-77452380D02*
X153547619Y-77452380D01*
X153642857Y-77500000D01*
X153690476Y-77547619D01*
X153738095Y-77642857D01*
X153785714Y-77833333D01*
X153785714Y-78071428D01*
X153738095Y-78261904D01*
X153690476Y-78357142D01*
X153642857Y-78404761D01*
X153547619Y-78452380D01*
X153452380Y-78452380D01*
X153357142Y-78404761D01*
X153309523Y-78357142D01*
X153261904Y-78261904D01*
X153214285Y-78071428D01*
X153214285Y-77833333D01*
X153261904Y-77642857D01*
X153309523Y-77547619D01*
X153357142Y-77500000D01*
X153452380Y-77452380D01*
X154166666Y-77547619D02*
X154214285Y-77500000D01*
X154309523Y-77452380D01*
X154547619Y-77452380D01*
X154642857Y-77500000D01*
X154690476Y-77547619D01*
X154738095Y-77642857D01*
X154738095Y-77738095D01*
X154690476Y-77880952D01*
X154119047Y-78452380D01*
X154738095Y-78452380D01*
%TO.C,L3*%
X163333333Y-104452380D02*
X162857142Y-104452380D01*
X162857142Y-103452380D01*
X163571428Y-103452380D02*
X164190476Y-103452380D01*
X163857142Y-103833333D01*
X164000000Y-103833333D01*
X164095238Y-103880952D01*
X164142857Y-103928571D01*
X164190476Y-104023809D01*
X164190476Y-104261904D01*
X164142857Y-104357142D01*
X164095238Y-104404761D01*
X164000000Y-104452380D01*
X163714285Y-104452380D01*
X163619047Y-104404761D01*
X163571428Y-104357142D01*
D11*
%TO.C,G\u002A\u002A\u002A*%
X117657428Y-147238000D02*
X117512285Y-147165428D01*
X117294571Y-147165428D01*
X117076857Y-147238000D01*
X116931714Y-147383142D01*
X116859142Y-147528285D01*
X116786571Y-147818571D01*
X116786571Y-148036285D01*
X116859142Y-148326571D01*
X116931714Y-148471714D01*
X117076857Y-148616857D01*
X117294571Y-148689428D01*
X117439714Y-148689428D01*
X117657428Y-148616857D01*
X117730000Y-148544285D01*
X117730000Y-148036285D01*
X117439714Y-148036285D01*
X118600857Y-147165428D02*
X118600857Y-147528285D01*
X118238000Y-147383142D02*
X118600857Y-147528285D01*
X118963714Y-147383142D01*
X118383142Y-147818571D02*
X118600857Y-147528285D01*
X118818571Y-147818571D01*
X119762000Y-147165428D02*
X119762000Y-147528285D01*
X119399142Y-147383142D02*
X119762000Y-147528285D01*
X120124857Y-147383142D01*
X119544285Y-147818571D02*
X119762000Y-147528285D01*
X119979714Y-147818571D01*
X120923142Y-147165428D02*
X120923142Y-147528285D01*
X120560285Y-147383142D02*
X120923142Y-147528285D01*
X121286000Y-147383142D01*
X120705428Y-147818571D02*
X120923142Y-147528285D01*
X121140857Y-147818571D01*
D12*
%TO.C,D201*%
X141500000Y-84500000D02*
X141500000Y-85500000D01*
X141500000Y-83500000D02*
X141500000Y-82500000D01*
X142500000Y-83500000D02*
X140500000Y-83500000D01*
X140500000Y-84500000D02*
X141500000Y-83500000D01*
X141500000Y-83500000D02*
X142500000Y-84500000D01*
X142500000Y-84500000D02*
X140500000Y-84500000D01*
G36*
X142500000Y-84500000D02*
G01*
X140500000Y-84500000D01*
X141500000Y-83500000D01*
X142500000Y-84500000D01*
G37*
X142500000Y-84500000D02*
X140500000Y-84500000D01*
X141500000Y-83500000D01*
X142500000Y-84500000D01*
%TO.C,D203*%
X156500000Y-96500000D02*
X156500000Y-95500000D01*
X156500000Y-97500000D02*
X156500000Y-98500000D01*
X155500000Y-97500000D02*
X157500000Y-97500000D01*
X157500000Y-96500000D02*
X156500000Y-97500000D01*
X156500000Y-97500000D02*
X155500000Y-96500000D01*
X155500000Y-96500000D02*
X157500000Y-96500000D01*
G36*
X156500000Y-97500000D02*
G01*
X155500000Y-96500000D01*
X157500000Y-96500000D01*
X156500000Y-97500000D01*
G37*
X156500000Y-97500000D02*
X155500000Y-96500000D01*
X157500000Y-96500000D01*
X156500000Y-97500000D01*
%TO.C,D204*%
X146500000Y-96500000D02*
X146500000Y-95500000D01*
X146500000Y-97500000D02*
X146500000Y-98500000D01*
X145500000Y-97500000D02*
X147500000Y-97500000D01*
X147500000Y-96500000D02*
X146500000Y-97500000D01*
X146500000Y-97500000D02*
X145500000Y-96500000D01*
X145500000Y-96500000D02*
X147500000Y-96500000D01*
G36*
X146500000Y-97500000D02*
G01*
X145500000Y-96500000D01*
X147500000Y-96500000D01*
X146500000Y-97500000D01*
G37*
X146500000Y-97500000D02*
X145500000Y-96500000D01*
X147500000Y-96500000D01*
X146500000Y-97500000D01*
%TO.C,C1*%
X170370000Y-86380000D02*
X167630000Y-86380000D01*
X167630000Y-86380000D02*
X167630000Y-93620000D01*
X170370000Y-86380000D02*
X170370000Y-93620000D01*
X170370000Y-93620000D02*
X167630000Y-93620000D01*
%TO.C,D202*%
X151500000Y-84500000D02*
X151500000Y-85500000D01*
X151500000Y-83500000D02*
X151500000Y-82500000D01*
X152500000Y-83500000D02*
X150500000Y-83500000D01*
X150500000Y-84500000D02*
X151500000Y-83500000D01*
X151500000Y-83500000D02*
X152500000Y-84500000D01*
X152500000Y-84500000D02*
X150500000Y-84500000D01*
G36*
X152500000Y-84500000D02*
G01*
X150500000Y-84500000D01*
X151500000Y-83500000D01*
X152500000Y-84500000D01*
G37*
X152500000Y-84500000D02*
X150500000Y-84500000D01*
X151500000Y-83500000D01*
X152500000Y-84500000D01*
%TO.C,G\u002A\u002A\u002A*%
G36*
X103773760Y-125154024D02*
G01*
X105412018Y-125154024D01*
X105412018Y-123697795D01*
X105860089Y-123697795D01*
X105860089Y-127254355D01*
X105412018Y-127254355D01*
X105412018Y-125560088D01*
X103773760Y-125560088D01*
X103773760Y-127254355D01*
X103311580Y-127254355D01*
X103315134Y-125479575D01*
X103318688Y-123704796D01*
X103546224Y-123700948D01*
X103773760Y-123697101D01*
X103773760Y-125154024D01*
G37*
G36*
X115941676Y-124103859D02*
G01*
X114793496Y-124103859D01*
X114793496Y-127254355D01*
X114331423Y-127254355D01*
X114331423Y-124103859D01*
X113197244Y-124103859D01*
X113197244Y-123697795D01*
X115941676Y-123697795D01*
X115941676Y-124103859D01*
G37*
G36*
X130693823Y-124251729D02*
G01*
X130733064Y-124264901D01*
X130776949Y-124295207D01*
X130829956Y-124347096D01*
X130889429Y-124416745D01*
X130952709Y-124500333D01*
X131017140Y-124594035D01*
X131080064Y-124694029D01*
X131138823Y-124796493D01*
X131190760Y-124897603D01*
X131224009Y-124971131D01*
X131291512Y-125145052D01*
X131341716Y-125308477D01*
X131376353Y-125469997D01*
X131397159Y-125638203D01*
X131405865Y-125821688D01*
X131406366Y-125875138D01*
X131404523Y-126016013D01*
X131397326Y-126138002D01*
X131383394Y-126249939D01*
X131361348Y-126360659D01*
X131329806Y-126478995D01*
X131294200Y-126593087D01*
X131228996Y-126766434D01*
X131148168Y-126938583D01*
X131055085Y-127103936D01*
X130953116Y-127256894D01*
X130845630Y-127391862D01*
X130759236Y-127481891D01*
X130715918Y-127521718D01*
X130684769Y-127545669D01*
X130658216Y-127557731D01*
X130628684Y-127561889D01*
X130606525Y-127562248D01*
X130550759Y-127556405D01*
X130506965Y-127536199D01*
X130494480Y-127527020D01*
X130450546Y-127476210D01*
X130429021Y-127415173D01*
X130430155Y-127350805D01*
X130454197Y-127289999D01*
X130484580Y-127253443D01*
X130528542Y-127207897D01*
X130581800Y-127145161D01*
X130639156Y-127072007D01*
X130695415Y-126995209D01*
X130745382Y-126921539D01*
X130771537Y-126879366D01*
X130880986Y-126668046D01*
X130962991Y-126451147D01*
X131017554Y-126228672D01*
X131044672Y-126000623D01*
X131046258Y-125805127D01*
X131023263Y-125569623D01*
X130973908Y-125343568D01*
X130898220Y-125127031D01*
X130796226Y-124920083D01*
X130667953Y-124722793D01*
X130583955Y-124615721D01*
X130532468Y-124550827D01*
X130499464Y-124499663D01*
X130482836Y-124456974D01*
X130480478Y-124417506D01*
X130489189Y-124379260D01*
X130522090Y-124317541D01*
X130570906Y-124273958D01*
X130630022Y-124251143D01*
X130693823Y-124251729D01*
G37*
G36*
X127301586Y-124692905D02*
G01*
X127437476Y-124695345D01*
X127579071Y-124699586D01*
X127721936Y-124705465D01*
X127861637Y-124712818D01*
X127993737Y-124721480D01*
X128113803Y-124731289D01*
X128217398Y-124742080D01*
X128300088Y-124753690D01*
X128316238Y-124756563D01*
X128348023Y-124764863D01*
X128359046Y-124779245D01*
X128356368Y-124808993D01*
X128356322Y-124809257D01*
X128351306Y-124844711D01*
X128345336Y-124897296D01*
X128339625Y-124956223D01*
X128339130Y-124961883D01*
X128333345Y-125014198D01*
X128326516Y-125054721D01*
X128319930Y-125076180D01*
X128318635Y-125077624D01*
X128302622Y-125078734D01*
X128261721Y-125078964D01*
X128199034Y-125078368D01*
X128117661Y-125077001D01*
X128020705Y-125074916D01*
X127911266Y-125072167D01*
X127792446Y-125068807D01*
X127768296Y-125068080D01*
X127585469Y-125063031D01*
X127428387Y-125059983D01*
X127294841Y-125059192D01*
X127182626Y-125060910D01*
X127089535Y-125065393D01*
X127013363Y-125072893D01*
X126951901Y-125083666D01*
X126902945Y-125097964D01*
X126864288Y-125116042D01*
X126833723Y-125138155D01*
X126809044Y-125164555D01*
X126797995Y-125179781D01*
X126770628Y-125240367D01*
X126756454Y-125315548D01*
X126754948Y-125397427D01*
X126765586Y-125478104D01*
X126787845Y-125549681D01*
X126821201Y-125604259D01*
X126826510Y-125609878D01*
X126849050Y-125629690D01*
X126876713Y-125648076D01*
X126912185Y-125665888D01*
X126958154Y-125683978D01*
X127017306Y-125703198D01*
X127092328Y-125724400D01*
X127185907Y-125748436D01*
X127300730Y-125776159D01*
X127439483Y-125808421D01*
X127486494Y-125819184D01*
X127627630Y-125851667D01*
X127744582Y-125879323D01*
X127840556Y-125903154D01*
X127918759Y-125924161D01*
X127982399Y-125943345D01*
X128034682Y-125961709D01*
X128078814Y-125980255D01*
X128118003Y-125999982D01*
X128155455Y-126021895D01*
X128174853Y-126034190D01*
X128260018Y-126098694D01*
X128323952Y-126170299D01*
X128363343Y-126235548D01*
X128397936Y-126326785D01*
X128420252Y-126435869D01*
X128430363Y-126555511D01*
X128428341Y-126678424D01*
X128414257Y-126797317D01*
X128388181Y-126904904D01*
X128356051Y-126983147D01*
X128303399Y-127066428D01*
X128239257Y-127134506D01*
X128160488Y-127189118D01*
X128063957Y-127231999D01*
X127946526Y-127264884D01*
X127805060Y-127289509D01*
X127801544Y-127289986D01*
X127742104Y-127295730D01*
X127659891Y-127300444D01*
X127560116Y-127304095D01*
X127447993Y-127306649D01*
X127328735Y-127308073D01*
X127207554Y-127308334D01*
X127089664Y-127307397D01*
X126980277Y-127305230D01*
X126884606Y-127301798D01*
X126807864Y-127297068D01*
X126800386Y-127296430D01*
X126714080Y-127288170D01*
X126628820Y-127278893D01*
X126549528Y-127269251D01*
X126481124Y-127259893D01*
X126428527Y-127251472D01*
X126396659Y-127244635D01*
X126390349Y-127242224D01*
X126383810Y-127228273D01*
X126381845Y-127195283D01*
X126384442Y-127140171D01*
X126389707Y-127079001D01*
X126395870Y-127016917D01*
X126401270Y-126966277D01*
X126405268Y-126932852D01*
X126407085Y-126922285D01*
X126421196Y-126922039D01*
X126458505Y-126923307D01*
X126514257Y-126925876D01*
X126583701Y-126929536D01*
X126633044Y-126932348D01*
X126788577Y-126939681D01*
X126947596Y-126943903D01*
X127105873Y-126945118D01*
X127259182Y-126943434D01*
X127403299Y-126938957D01*
X127533995Y-126931791D01*
X127647045Y-126922043D01*
X127738224Y-126909820D01*
X127769527Y-126903856D01*
X127856047Y-126874151D01*
X127926242Y-126827070D01*
X127957879Y-126792282D01*
X127982425Y-126742143D01*
X127998702Y-126674493D01*
X128005371Y-126598954D01*
X128001096Y-126525148D01*
X127997709Y-126505885D01*
X127986824Y-126463435D01*
X127971527Y-126426539D01*
X127949457Y-126394086D01*
X127918256Y-126364964D01*
X127875564Y-126338062D01*
X127819019Y-126312269D01*
X127746263Y-126286474D01*
X127654936Y-126259564D01*
X127542678Y-126230430D01*
X127407128Y-126197960D01*
X127283462Y-126169546D01*
X127148960Y-126138867D01*
X127038484Y-126113263D01*
X126948707Y-126091801D01*
X126876304Y-126073551D01*
X126817946Y-126057580D01*
X126770308Y-126042958D01*
X126730064Y-126028751D01*
X126693886Y-126014030D01*
X126658447Y-125997862D01*
X126641853Y-125989865D01*
X126556977Y-125936844D01*
X126479364Y-125866686D01*
X126415878Y-125786661D01*
X126374287Y-125706483D01*
X126346848Y-125606798D01*
X126330639Y-125489863D01*
X126325777Y-125364135D01*
X126332375Y-125238069D01*
X126350549Y-125120119D01*
X126365511Y-125061801D01*
X126407720Y-124964124D01*
X126470994Y-124881999D01*
X126556114Y-124814907D01*
X126663860Y-124762330D01*
X126795014Y-124723749D01*
X126903789Y-124704427D01*
X126972504Y-124698027D01*
X127064665Y-124694082D01*
X127175838Y-124692429D01*
X127301586Y-124692905D01*
G37*
G36*
X111067852Y-124697900D02*
G01*
X111187106Y-124719034D01*
X111289715Y-124753783D01*
X111309316Y-124763171D01*
X111393131Y-124820306D01*
X111468822Y-124900004D01*
X111532305Y-124997118D01*
X111577940Y-125101850D01*
X111584722Y-125110743D01*
X111598596Y-125109346D01*
X111623460Y-125095653D01*
X111663213Y-125067655D01*
X111703927Y-125036992D01*
X111858750Y-124928947D01*
X112015570Y-124838765D01*
X112169951Y-124768663D01*
X112317452Y-124720860D01*
X112353550Y-124712479D01*
X112426156Y-124701470D01*
X112512875Y-124694996D01*
X112604936Y-124693076D01*
X112693569Y-124695728D01*
X112770006Y-124702969D01*
X112814474Y-124711534D01*
X112936459Y-124756944D01*
X113040079Y-124823402D01*
X113125493Y-124911067D01*
X113192858Y-125020095D01*
X113237083Y-125133021D01*
X113241279Y-125149805D01*
X113244952Y-125172483D01*
X113248148Y-125203000D01*
X113250916Y-125243298D01*
X113253302Y-125295321D01*
X113255353Y-125361014D01*
X113257116Y-125442320D01*
X113258639Y-125541182D01*
X113259969Y-125659545D01*
X113261153Y-125799352D01*
X113262237Y-125962548D01*
X113263270Y-126151075D01*
X113263653Y-126228693D01*
X113268602Y-127254355D01*
X112833187Y-127254355D01*
X112833081Y-126396720D01*
X112832839Y-126240325D01*
X112832181Y-126089201D01*
X112831146Y-125946206D01*
X112829774Y-125814199D01*
X112828105Y-125696038D01*
X112826180Y-125594584D01*
X112824039Y-125512694D01*
X112821721Y-125453228D01*
X112819387Y-125420066D01*
X112801675Y-125315929D01*
X112773765Y-125234653D01*
X112733460Y-125172259D01*
X112678563Y-125124770D01*
X112645825Y-125105816D01*
X112601157Y-125084683D01*
X112562459Y-125072166D01*
X112519296Y-125066137D01*
X112461235Y-125064469D01*
X112443093Y-125064484D01*
X112349317Y-125069735D01*
X112258521Y-125085853D01*
X112166503Y-125114530D01*
X112069067Y-125157456D01*
X111962012Y-125216320D01*
X111841139Y-125292813D01*
X111790023Y-125327326D01*
X111621996Y-125442399D01*
X111618393Y-126348377D01*
X111614791Y-127254355D01*
X111196370Y-127254355D01*
X111191647Y-126305705D01*
X111190651Y-126117170D01*
X111189640Y-125954553D01*
X111188556Y-125815769D01*
X111187339Y-125698731D01*
X111185933Y-125601354D01*
X111184279Y-125521551D01*
X111182319Y-125457238D01*
X111179995Y-125406327D01*
X111177249Y-125366733D01*
X111174022Y-125336370D01*
X111170258Y-125313153D01*
X111165897Y-125294994D01*
X111163276Y-125286565D01*
X111121918Y-125204072D01*
X111060348Y-125139447D01*
X110980602Y-125093547D01*
X110884713Y-125067230D01*
X110774718Y-125061355D01*
X110661387Y-125075017D01*
X110582518Y-125094152D01*
X110504223Y-125121449D01*
X110421674Y-125159234D01*
X110330043Y-125209830D01*
X110224503Y-125275563D01*
X110169267Y-125311982D01*
X109976737Y-125440684D01*
X109976737Y-127254355D01*
X109542669Y-127254355D01*
X109542669Y-124747960D01*
X109903577Y-124747960D01*
X109913725Y-124943946D01*
X109923872Y-125139931D01*
X110009814Y-125072242D01*
X110161213Y-124962414D01*
X110315278Y-124868505D01*
X110467322Y-124792987D01*
X110612655Y-124738331D01*
X110676847Y-124720663D01*
X110806059Y-124698266D01*
X110938615Y-124690828D01*
X111067852Y-124697900D01*
G37*
G36*
X131742671Y-123644655D02*
G01*
X131772559Y-123656264D01*
X131806434Y-123681119D01*
X131836632Y-123708296D01*
X131927562Y-123803152D01*
X132022507Y-123920444D01*
X132118525Y-124055483D01*
X132212673Y-124203580D01*
X132302006Y-124360046D01*
X132383583Y-124520191D01*
X132454460Y-124679327D01*
X132469411Y-124716493D01*
X132561917Y-124989276D01*
X132627822Y-125268168D01*
X132667339Y-125551198D01*
X132680682Y-125836395D01*
X132668064Y-126121789D01*
X132629696Y-126405408D01*
X132565793Y-126685281D01*
X132476567Y-126959438D01*
X132362232Y-127225907D01*
X132222999Y-127482718D01*
X132159655Y-127583407D01*
X132098781Y-127672535D01*
X132033449Y-127761679D01*
X131966272Y-127847860D01*
X131899862Y-127928096D01*
X131836830Y-127999409D01*
X131779787Y-128058819D01*
X131731346Y-128103346D01*
X131694118Y-128130009D01*
X131674899Y-128136494D01*
X131642865Y-128140380D01*
X131635793Y-128142217D01*
X131609822Y-128142597D01*
X131574612Y-128135586D01*
X131517031Y-128105244D01*
X131473007Y-128055449D01*
X131448767Y-127993775D01*
X131446774Y-127980033D01*
X131444950Y-127951905D01*
X131447422Y-127927114D01*
X131456630Y-127901636D01*
X131475012Y-127871447D01*
X131505007Y-127832525D01*
X131549053Y-127780844D01*
X131607744Y-127714456D01*
X131777137Y-127503659D01*
X131924942Y-127277333D01*
X132050417Y-127037966D01*
X132152820Y-126788042D01*
X132231411Y-126530049D01*
X132285447Y-126266471D01*
X132314186Y-125999795D01*
X132316888Y-125732506D01*
X132292809Y-125467092D01*
X132287957Y-125434669D01*
X132231390Y-125162674D01*
X132148093Y-124896943D01*
X132039027Y-124639558D01*
X131905150Y-124392602D01*
X131747423Y-124158155D01*
X131632387Y-124013248D01*
X131580839Y-123949190D01*
X131544932Y-123897780D01*
X131526551Y-123861828D01*
X131524518Y-123852223D01*
X131530849Y-123771457D01*
X131557424Y-123709277D01*
X131603360Y-123666696D01*
X131667773Y-123644727D01*
X131708064Y-123641786D01*
X131742671Y-123644655D01*
G37*
G36*
X119848292Y-124747960D02*
G01*
X119848292Y-121694082D01*
X119928804Y-121698281D01*
X120009317Y-121702480D01*
X120012880Y-123224523D01*
X120016442Y-124746566D01*
X120096893Y-124750764D01*
X120177343Y-124754961D01*
X120180919Y-126011659D01*
X120184494Y-127268357D01*
X119036164Y-127268357D01*
X119036164Y-125434068D01*
X119190188Y-125434068D01*
X120016318Y-125434068D01*
X120016318Y-124957993D01*
X119190188Y-124957993D01*
X119190188Y-125434068D01*
X119036164Y-125434068D01*
X119036164Y-124747960D01*
X119848292Y-124747960D01*
G37*
G36*
X123443299Y-127292938D02*
G01*
X123493481Y-127189649D01*
X123566816Y-127098502D01*
X123665073Y-127016382D01*
X123732488Y-126972671D01*
X123804253Y-126929747D01*
X123751801Y-126872931D01*
X123694017Y-126790614D01*
X123657308Y-126695255D01*
X123641337Y-126591860D01*
X123645767Y-126485436D01*
X123670259Y-126380990D01*
X123714476Y-126283526D01*
X123778081Y-126198053D01*
X123798699Y-126177527D01*
X123812935Y-126162583D01*
X123814692Y-126150058D01*
X123800822Y-126134119D01*
X123768179Y-126108928D01*
X123757455Y-126101044D01*
X123676420Y-126028450D01*
X123613369Y-125941708D01*
X123567248Y-125838338D01*
X123536999Y-125715861D01*
X123521566Y-125571799D01*
X123520323Y-125544540D01*
X123519497Y-125449652D01*
X123925397Y-125449652D01*
X123927800Y-125570553D01*
X123946882Y-125671517D01*
X123984154Y-125754138D01*
X124041124Y-125820007D01*
X124119301Y-125870716D01*
X124220195Y-125907858D01*
X124345314Y-125933026D01*
X124388831Y-125938597D01*
X124465224Y-125943932D01*
X124557349Y-125945225D01*
X124656578Y-125942838D01*
X124754281Y-125937134D01*
X124841832Y-125928477D01*
X124910602Y-125917229D01*
X124913888Y-125916493D01*
X125008937Y-125888469D01*
X125083211Y-125851252D01*
X125143375Y-125801238D01*
X125158968Y-125784020D01*
X125199902Y-125724391D01*
X125226914Y-125654885D01*
X125241534Y-125569918D01*
X125245336Y-125469074D01*
X125237111Y-125361695D01*
X125212985Y-125271197D01*
X125171556Y-125196625D01*
X125111421Y-125137026D01*
X125031179Y-125091445D01*
X124929426Y-125058928D01*
X124804759Y-125038522D01*
X124655778Y-125029271D01*
X124597721Y-125028493D01*
X124443368Y-125032310D01*
X124313560Y-125045209D01*
X124206110Y-125067936D01*
X124118828Y-125101236D01*
X124049525Y-125145855D01*
X123996012Y-125202539D01*
X123970864Y-125242119D01*
X123951128Y-125281982D01*
X123938457Y-125320121D01*
X123930874Y-125365568D01*
X123926397Y-125427358D01*
X123925397Y-125449652D01*
X123519497Y-125449652D01*
X123519170Y-125412119D01*
X123527224Y-125300452D01*
X123545413Y-125203539D01*
X123574663Y-125115383D01*
X123592994Y-125074230D01*
X123651923Y-124976992D01*
X123728400Y-124895350D01*
X123824055Y-124828389D01*
X123940512Y-124775196D01*
X124079402Y-124734859D01*
X124242349Y-124706464D01*
X124250204Y-124705461D01*
X124322143Y-124699119D01*
X124412559Y-124695287D01*
X124515568Y-124693820D01*
X124625288Y-124694574D01*
X124735836Y-124697403D01*
X124841328Y-124702163D01*
X124935881Y-124708708D01*
X125013613Y-124716895D01*
X125064108Y-124725496D01*
X125101013Y-124732586D01*
X125144962Y-124738105D01*
X125199613Y-124742218D01*
X125268625Y-124745092D01*
X125355657Y-124746892D01*
X125464368Y-124747785D01*
X125559107Y-124747960D01*
X125956095Y-124747960D01*
X125946668Y-124849476D01*
X125941046Y-124911607D01*
X125934567Y-124953437D01*
X125922272Y-124979309D01*
X125899202Y-124993560D01*
X125860399Y-125000531D01*
X125800904Y-125004562D01*
X125767256Y-125006501D01*
X125686790Y-125011405D01*
X125630696Y-125015916D01*
X125595420Y-125021754D01*
X125577411Y-125030644D01*
X125573114Y-125044307D01*
X125578978Y-125064468D01*
X125591052Y-125091949D01*
X125626356Y-125196918D01*
X125649185Y-125321658D01*
X125658541Y-125460393D01*
X125658720Y-125483076D01*
X125649367Y-125644744D01*
X125620933Y-125786187D01*
X125572858Y-125908186D01*
X125504579Y-126011523D01*
X125415537Y-126096979D01*
X125305169Y-126165337D01*
X125172914Y-126217376D01*
X125120909Y-126231993D01*
X125013049Y-126253652D01*
X124884930Y-126269759D01*
X124743774Y-126280143D01*
X124596805Y-126284637D01*
X124451245Y-126283072D01*
X124314318Y-126275277D01*
X124193245Y-126261085D01*
X124155932Y-126254571D01*
X124059880Y-126236005D01*
X124033721Y-126293609D01*
X124013200Y-126363428D01*
X124008589Y-126439768D01*
X124019996Y-126510832D01*
X124031472Y-126540167D01*
X124044073Y-126562997D01*
X124058889Y-126582697D01*
X124078418Y-126599982D01*
X124105157Y-126615572D01*
X124141605Y-126630182D01*
X124190258Y-126644531D01*
X124253614Y-126659335D01*
X124334171Y-126675311D01*
X124434427Y-126693178D01*
X124556878Y-126713651D01*
X124704022Y-126737449D01*
X124736614Y-126742667D01*
X124898489Y-126768888D01*
X125035327Y-126791882D01*
X125149828Y-126812268D01*
X125244694Y-126830661D01*
X125322626Y-126847678D01*
X125386326Y-126863935D01*
X125438495Y-126880050D01*
X125481836Y-126896639D01*
X125519048Y-126914318D01*
X125540188Y-126926074D01*
X125631329Y-126995387D01*
X125704210Y-127085259D01*
X125758412Y-127194664D01*
X125793519Y-127322578D01*
X125809111Y-127467973D01*
X125807994Y-127583407D01*
X125790373Y-127734303D01*
X125754392Y-127864499D01*
X125699528Y-127974885D01*
X125625255Y-128066355D01*
X125531048Y-128139797D01*
X125457137Y-128179081D01*
X125352492Y-128217304D01*
X125224050Y-128248677D01*
X125075253Y-128272859D01*
X124909543Y-128289510D01*
X124730359Y-128298287D01*
X124541144Y-128298850D01*
X124345338Y-128290857D01*
X124335998Y-128290263D01*
X124155231Y-128273869D01*
X123999346Y-128249407D01*
X123866258Y-128216359D01*
X123753882Y-128174207D01*
X123660134Y-128122432D01*
X123659774Y-128122193D01*
X123569331Y-128047536D01*
X123499344Y-127957331D01*
X123449167Y-127850120D01*
X123418151Y-127724441D01*
X123405649Y-127578837D01*
X123405314Y-127548401D01*
X123408602Y-127499393D01*
X123845921Y-127499393D01*
X123846508Y-127573651D01*
X123848897Y-127626591D01*
X123854027Y-127664887D01*
X123862839Y-127695211D01*
X123876272Y-127724239D01*
X123878079Y-127727652D01*
X123914471Y-127779339D01*
X123964847Y-127822200D01*
X124031099Y-127856684D01*
X124115122Y-127883238D01*
X124218807Y-127902310D01*
X124344049Y-127914348D01*
X124492741Y-127919799D01*
X124666775Y-127919110D01*
X124686053Y-127918712D01*
X124784452Y-127915507D01*
X124877878Y-127910548D01*
X124959968Y-127904286D01*
X125024357Y-127897178D01*
X125052567Y-127892552D01*
X125159446Y-127863760D01*
X125241987Y-127824069D01*
X125302606Y-127770857D01*
X125343720Y-127701503D01*
X125367744Y-127613385D01*
X125375511Y-127542076D01*
X125376166Y-127437320D01*
X125362331Y-127354387D01*
X125331753Y-127289910D01*
X125282180Y-127240522D01*
X125211357Y-127202857D01*
X125131331Y-127177167D01*
X125100624Y-127170812D01*
X125046900Y-127161446D01*
X124974296Y-127149666D01*
X124886944Y-127136068D01*
X124788981Y-127121251D01*
X124684539Y-127105811D01*
X124577753Y-127090346D01*
X124472758Y-127075452D01*
X124373689Y-127061728D01*
X124284679Y-127049769D01*
X124209863Y-127040174D01*
X124153376Y-127033540D01*
X124119352Y-127030463D01*
X124114701Y-127030320D01*
X124088228Y-127040801D01*
X124050392Y-127068831D01*
X124006270Y-127109286D01*
X123960938Y-127157042D01*
X123919474Y-127206977D01*
X123886953Y-127253965D01*
X123878837Y-127268357D01*
X123864519Y-127298726D01*
X123855034Y-127329049D01*
X123849418Y-127366097D01*
X123846704Y-127416643D01*
X123845930Y-127487460D01*
X123845921Y-127499393D01*
X123408602Y-127499393D01*
X123414500Y-127411484D01*
X123443299Y-127292938D01*
G37*
G36*
X129780054Y-124729156D02*
G01*
X129820134Y-124751385D01*
X129868585Y-124795419D01*
X129922639Y-124857371D01*
X129979528Y-124933352D01*
X130036485Y-125019473D01*
X130090743Y-125111847D01*
X130139532Y-125206586D01*
X130172185Y-125280044D01*
X130211445Y-125380723D01*
X130240872Y-125469997D01*
X130261753Y-125555066D01*
X130275378Y-125643133D01*
X130283034Y-125741398D01*
X130286009Y-125857061D01*
X130286163Y-125917144D01*
X130285609Y-126013568D01*
X130284115Y-126087973D01*
X130281127Y-126146339D01*
X130276092Y-126194650D01*
X130268457Y-126238888D01*
X130257668Y-126285034D01*
X130249149Y-126317240D01*
X130184439Y-126515680D01*
X130102216Y-126696324D01*
X130057010Y-126776431D01*
X130013311Y-126844405D01*
X129963373Y-126914473D01*
X129911198Y-126981746D01*
X129860786Y-127041337D01*
X129816140Y-127088357D01*
X129781261Y-127117919D01*
X129773779Y-127122408D01*
X129710326Y-127141368D01*
X129647615Y-127135069D01*
X129595377Y-127106488D01*
X129558743Y-127060148D01*
X129540591Y-127003630D01*
X129544359Y-126947774D01*
X129544692Y-126946704D01*
X129558303Y-126922251D01*
X129585707Y-126884709D01*
X129621497Y-126841375D01*
X129629298Y-126832529D01*
X129749591Y-126677668D01*
X129845430Y-126511546D01*
X129916524Y-126336630D01*
X129962583Y-126155388D01*
X129983313Y-125970286D01*
X129978425Y-125783792D01*
X129947627Y-125598371D01*
X129890628Y-125416493D01*
X129815501Y-125255700D01*
X129781016Y-125198177D01*
X129735989Y-125130637D01*
X129688072Y-125064352D01*
X129668478Y-125039034D01*
X129627566Y-124986820D01*
X129601450Y-124950167D01*
X129587219Y-124922939D01*
X129581965Y-124898998D01*
X129582777Y-124872208D01*
X129583980Y-124860809D01*
X129603306Y-124798718D01*
X129642256Y-124752963D01*
X129695657Y-124727020D01*
X129758333Y-124724364D01*
X129780054Y-124729156D01*
G37*
G36*
X116907828Y-124242397D02*
G01*
X116907471Y-124374408D01*
X116906451Y-124503147D01*
X116904847Y-124624697D01*
X116902738Y-124735142D01*
X116900203Y-124830563D01*
X116897320Y-124907044D01*
X116894170Y-124960667D01*
X116893138Y-124972158D01*
X116887414Y-125032010D01*
X116883579Y-125080384D01*
X116882062Y-125111254D01*
X116882637Y-125119249D01*
X116895258Y-125113673D01*
X116926071Y-125095510D01*
X116970044Y-125067820D01*
X117008186Y-125042934D01*
X117162374Y-124947527D01*
X117317309Y-124864070D01*
X117467243Y-124795359D01*
X117606430Y-124744190D01*
X117646768Y-124732251D01*
X117730695Y-124714390D01*
X117829506Y-124701808D01*
X117935089Y-124694781D01*
X118039334Y-124693585D01*
X118134130Y-124698496D01*
X118211364Y-124709791D01*
X118223196Y-124712632D01*
X118342293Y-124753581D01*
X118440199Y-124810171D01*
X118519670Y-124885011D01*
X118583465Y-124980707D01*
X118634341Y-125099867D01*
X118635078Y-125102017D01*
X118640690Y-125119064D01*
X118645559Y-125136427D01*
X118649747Y-125156152D01*
X118653315Y-125180285D01*
X118656327Y-125210871D01*
X118658843Y-125249956D01*
X118660927Y-125299586D01*
X118662640Y-125361806D01*
X118664044Y-125438662D01*
X118665201Y-125532200D01*
X118666174Y-125644465D01*
X118667024Y-125777502D01*
X118667814Y-125933358D01*
X118668606Y-126114078D01*
X118669051Y-126221692D01*
X118673290Y-127254355D01*
X118225120Y-127254355D01*
X118220547Y-126284702D01*
X118219475Y-126083432D01*
X118218265Y-125908553D01*
X118216880Y-125758451D01*
X118215286Y-125631514D01*
X118213446Y-125526128D01*
X118211326Y-125440680D01*
X118208890Y-125373556D01*
X118206103Y-125323144D01*
X118202928Y-125287829D01*
X118199332Y-125266000D01*
X118198069Y-125261550D01*
X118168457Y-125202836D01*
X118123337Y-125146909D01*
X118070879Y-125102537D01*
X118030582Y-125081746D01*
X117974944Y-125070117D01*
X117900275Y-125065118D01*
X117814709Y-125066555D01*
X117726374Y-125074239D01*
X117643404Y-125087978D01*
X117629198Y-125091190D01*
X117562626Y-125111557D01*
X117478146Y-125144406D01*
X117381400Y-125187070D01*
X117278031Y-125236877D01*
X117173683Y-125291159D01*
X117073998Y-125347247D01*
X117023347Y-125377808D01*
X116907828Y-125449509D01*
X116907828Y-127254355D01*
X116459758Y-127254355D01*
X116459758Y-123655788D01*
X116907828Y-123655788D01*
X116907828Y-124242397D01*
G37*
G36*
X106582053Y-126292721D02*
G01*
X106583571Y-126231750D01*
X106586307Y-126185916D01*
X106590608Y-126150932D01*
X106596817Y-126122509D01*
X106605281Y-126096359D01*
X106613696Y-126074716D01*
X106660195Y-125989714D01*
X106726813Y-125908248D01*
X106806048Y-125838484D01*
X106865313Y-125800819D01*
X106903551Y-125781115D01*
X106939797Y-125764653D01*
X106976930Y-125751143D01*
X107017832Y-125740294D01*
X107065384Y-125731814D01*
X107122465Y-125725411D01*
X107191956Y-125720795D01*
X107276737Y-125717673D01*
X107379690Y-125715756D01*
X107503695Y-125714750D01*
X107651631Y-125714365D01*
X107720470Y-125714319D01*
X108313653Y-125714112D01*
X108307864Y-125521582D01*
X108304579Y-125437367D01*
X108300026Y-125375165D01*
X108293390Y-125328989D01*
X108283857Y-125292853D01*
X108273090Y-125266042D01*
X108248151Y-125219496D01*
X108217995Y-125179487D01*
X108180756Y-125145783D01*
X108134572Y-125118152D01*
X108077578Y-125096362D01*
X108007910Y-125080181D01*
X107923704Y-125069377D01*
X107823097Y-125063718D01*
X107704223Y-125062972D01*
X107565220Y-125066907D01*
X107404223Y-125075292D01*
X107219368Y-125087893D01*
X107008791Y-125104480D01*
X106988406Y-125106170D01*
X106886392Y-125113940D01*
X106810787Y-125118034D01*
X106760242Y-125118483D01*
X106733407Y-125115320D01*
X106728415Y-125112324D01*
X106721859Y-125090697D01*
X106714656Y-125049951D01*
X106707541Y-124997222D01*
X106701247Y-124939649D01*
X106696511Y-124884367D01*
X106694064Y-124838512D01*
X106694643Y-124809223D01*
X106696558Y-124802719D01*
X106713537Y-124797336D01*
X106753108Y-124789217D01*
X106810101Y-124779295D01*
X106879346Y-124768505D01*
X106912695Y-124763676D01*
X107097185Y-124739965D01*
X107280094Y-124721007D01*
X107458304Y-124706870D01*
X107628699Y-124697625D01*
X107788161Y-124693341D01*
X107933573Y-124694087D01*
X108061818Y-124699932D01*
X108169778Y-124710946D01*
X108254337Y-124727198D01*
X108275469Y-124733362D01*
X108401559Y-124781955D01*
X108503631Y-124839646D01*
X108585073Y-124909768D01*
X108649271Y-124995654D01*
X108699614Y-125100637D01*
X108725059Y-125175790D01*
X108729870Y-125193813D01*
X108734050Y-125214753D01*
X108737658Y-125240676D01*
X108740749Y-125273651D01*
X108743382Y-125315743D01*
X108745612Y-125369021D01*
X108747497Y-125435551D01*
X108749095Y-125517401D01*
X108750462Y-125616638D01*
X108751655Y-125735328D01*
X108752732Y-125875541D01*
X108753749Y-126039341D01*
X108754763Y-126228797D01*
X108754905Y-126256698D01*
X108759925Y-127254355D01*
X108411607Y-127254355D01*
X108403792Y-127208848D01*
X108398834Y-127175225D01*
X108391967Y-127122473D01*
X108384302Y-127059306D01*
X108380152Y-127023318D01*
X108372843Y-126962013D01*
X108365957Y-126910139D01*
X108360462Y-126874706D01*
X108358155Y-126863998D01*
X108345923Y-126861172D01*
X108317464Y-126879771D01*
X108276848Y-126915759D01*
X108165703Y-127007743D01*
X108035088Y-127094135D01*
X107893522Y-127170271D01*
X107749523Y-127231485D01*
X107634515Y-127267552D01*
X107549701Y-127284309D01*
X107450794Y-127296130D01*
X107347999Y-127302401D01*
X107251522Y-127302507D01*
X107171568Y-127295833D01*
X107169726Y-127295552D01*
X107023617Y-127261248D01*
X106896743Y-127206608D01*
X106789125Y-127131645D01*
X106700780Y-127036376D01*
X106631728Y-126920814D01*
X106613748Y-126879645D01*
X106603316Y-126852267D01*
X106595398Y-126825890D01*
X106589647Y-126796225D01*
X106585717Y-126758983D01*
X106583262Y-126709872D01*
X106581937Y-126644605D01*
X106581394Y-126558891D01*
X106581293Y-126477232D01*
X106581330Y-126444424D01*
X107024476Y-126444424D01*
X107025634Y-126572613D01*
X107037918Y-126676826D01*
X107062737Y-126759348D01*
X107101498Y-126822467D01*
X107155611Y-126868470D01*
X107226483Y-126899642D01*
X107315522Y-126918273D01*
X107316318Y-126918378D01*
X107368362Y-126923400D01*
X107415873Y-126924952D01*
X107435337Y-126924013D01*
X107472833Y-126919973D01*
X107524500Y-126914415D01*
X107560804Y-126910514D01*
X107675449Y-126889072D01*
X107801637Y-126849643D01*
X107932375Y-126795230D01*
X108060670Y-126728838D01*
X108179529Y-126653472D01*
X108209241Y-126631866D01*
X108303473Y-126561158D01*
X108311111Y-126048930D01*
X107768207Y-126053048D01*
X107225304Y-126057166D01*
X107160138Y-126095474D01*
X107112853Y-126128747D01*
X107077763Y-126168159D01*
X107053085Y-126218297D01*
X107037037Y-126283747D01*
X107027835Y-126369096D01*
X107024476Y-126444424D01*
X106581330Y-126444424D01*
X106581409Y-126373119D01*
X106582053Y-126292721D01*
G37*
G36*
X122220981Y-124701076D02*
G01*
X122310085Y-124706392D01*
X122382583Y-124717160D01*
X122444096Y-124734641D01*
X122500246Y-124760092D01*
X122556655Y-124794774D01*
X122567974Y-124802587D01*
X122649574Y-124873065D01*
X122713018Y-124958673D01*
X122759582Y-125061989D01*
X122790540Y-125185593D01*
X122802843Y-125277467D01*
X122805146Y-125315151D01*
X122807333Y-125378050D01*
X122809366Y-125463378D01*
X122811212Y-125568346D01*
X122812834Y-125690165D01*
X122814196Y-125826048D01*
X122815263Y-125973206D01*
X122815998Y-126128852D01*
X122816366Y-126290197D01*
X122816398Y-126333710D01*
X122816759Y-127254355D01*
X122369773Y-127254355D01*
X122365199Y-126284702D01*
X122364111Y-126081672D01*
X122362868Y-125905127D01*
X122361438Y-125753548D01*
X122359788Y-125625416D01*
X122357886Y-125519214D01*
X122355698Y-125433421D01*
X122353191Y-125366519D01*
X122350334Y-125316988D01*
X122347092Y-125283311D01*
X122343434Y-125263968D01*
X122343116Y-125262976D01*
X122303288Y-125184636D01*
X122243288Y-125125234D01*
X122163869Y-125085099D01*
X122065788Y-125064561D01*
X121949798Y-125063950D01*
X121899222Y-125069270D01*
X121828381Y-125080128D01*
X121763087Y-125093877D01*
X121699165Y-125112223D01*
X121632441Y-125136872D01*
X121558740Y-125169530D01*
X121473889Y-125211902D01*
X121373713Y-125265694D01*
X121254039Y-125332612D01*
X121252013Y-125333759D01*
X121038479Y-125454668D01*
X121038479Y-127254355D01*
X120604411Y-127254355D01*
X120604411Y-124747960D01*
X120979650Y-124747960D01*
X120989644Y-124921221D01*
X120994267Y-124989056D01*
X120999559Y-125047235D01*
X121004881Y-125089744D01*
X121009596Y-125110569D01*
X121009788Y-125110906D01*
X121025041Y-125111903D01*
X121059834Y-125096054D01*
X121114938Y-125062961D01*
X121158729Y-125034221D01*
X121267852Y-124966095D01*
X121389095Y-124899023D01*
X121514315Y-124837001D01*
X121635371Y-124784025D01*
X121744124Y-124744092D01*
X121759593Y-124739255D01*
X121810917Y-124724415D01*
X121855820Y-124713920D01*
X121901171Y-124706998D01*
X121953840Y-124702878D01*
X122020699Y-124700789D01*
X122108617Y-124699960D01*
X122109648Y-124699955D01*
X122220981Y-124701076D01*
G37*
%TD*%
M02*
