M48
; DRILL file {KiCad 6.0.2+dfsg-1} date Fri 05 Apr 2024 02:11:07 PM CDT
; FORMAT={-:-/ absolute / inch / decimal}
; #@! TF.CreationDate,2024-04-05T14:11:07-05:00
; #@! TF.GenerationSoftware,Kicad,Pcbnew,6.0.2+dfsg-1
; #@! TF.FileFunction,Plated,1,2,PTH
FMAT,2
INCH
; #@! TA.AperFunction,Plated,PTH,ViaDrill
T1C0.0157
; #@! TA.AperFunction,Plated,PTH,ComponentDrill
T2C0.0197
; #@! TA.AperFunction,Plated,PTH,ComponentDrill
T3C0.0300
; #@! TA.AperFunction,Plated,PTH,ComponentDrill
T4C0.0315
; #@! TA.AperFunction,Plated,PTH,ComponentDrill
T5C0.0591
%
G90
G05
T1
X2.7559Y-4.7244
X4.1339Y-1.9685
X4.1339Y-2.3622
X4.1339Y-2.7559
X4.1339Y-3.1496
X4.1339Y-3.5433
X4.1339Y-3.937
X4.1339Y-4.3307
X4.1339Y-4.7244
X4.3307Y-2.1654
X4.3307Y-2.5591
X4.3307Y-2.9528
X4.3307Y-3.3465
X4.3307Y-4.1339
X4.3307Y-4.5276
X4.3307Y-5.315
X4.5276Y-1.9685
X4.5276Y-2.3622
X4.5276Y-2.7559
X4.5276Y-3.1496
X4.5276Y-3.937
X4.5276Y-4.3307
X4.5276Y-4.7244
X4.7244Y-2.1654
X4.7244Y-2.5591
X4.7244Y-2.9528
X4.7244Y-3.3465
X4.7244Y-3.7402
X4.7244Y-4.1339
X4.7244Y-4.5276
X4.7244Y-5.315
X4.9213Y-1.9685
X4.9213Y-2.3622
X4.9213Y-2.7559
X4.9213Y-3.1496
X4.9213Y-4.3307
X4.9213Y-4.7244
X5.1181Y-2.1654
X5.1181Y-2.5591
X5.1181Y-2.9528
X5.1181Y-3.3465
X5.1181Y-3.7402
X5.1181Y-4.1339
X5.1181Y-4.5276
X5.1181Y-5.315
X5.315Y-1.9685
X5.315Y-2.3622
X5.315Y-2.7559
X5.315Y-3.1496
X5.315Y-4.3307
X5.315Y-4.7244
X5.315Y-5.1181
X5.5118Y-2.1654
X5.5118Y-2.5591
X5.5118Y-3.3465
X5.5118Y-3.7402
X5.5118Y-4.5276
X5.5118Y-4.9213
X5.5118Y-5.315
X5.7087Y-1.9685
X5.7087Y-2.3622
X5.7087Y-2.7559
X5.7087Y-3.1496
X5.7087Y-4.3307
X5.7087Y-4.7244
X5.7087Y-5.1181
X5.9055Y-2.1654
X5.9055Y-2.5591
X5.9055Y-2.9528
X5.9055Y-4.1339
X5.9055Y-4.5276
X5.9055Y-4.9213
X5.9055Y-5.315
X6.1024Y-1.9685
X6.1024Y-2.3622
X6.1024Y-4.7244
X6.1024Y-5.1181
X6.2992Y-2.1654
X6.2992Y-2.5591
X6.2992Y-3.3465
X6.2992Y-4.5276
X6.2992Y-4.9213
X6.2992Y-5.315
X6.4961Y-1.9685
X6.4961Y-2.3622
X6.4961Y-2.7559
X6.4961Y-3.1496
X6.4961Y-3.5433
X6.4961Y-4.3307
X6.4961Y-4.7244
X6.4961Y-5.1181
X6.6929Y-2.1654
X6.6929Y-2.5591
X6.6929Y-2.9528
X6.6929Y-3.7402
X6.6929Y-4.1339
X6.6929Y-4.5276
X6.6929Y-4.9213
X6.6929Y-5.315
X6.8898Y-1.9685
X6.8898Y-2.3622
X6.8898Y-2.7559
X6.8898Y-3.937
X6.8898Y-4.3307
X6.8898Y-4.7244
X7.0866Y-2.1654
X7.0866Y-2.5591
X7.0866Y-2.9528
X7.0866Y-3.3465
X7.0866Y-3.7402
X7.0866Y-4.1339
X7.0866Y-4.5276
X7.0866Y-5.315
X7.2835Y-1.9685
X7.2835Y-2.3622
X7.2835Y-2.7559
X7.2835Y-3.1496
X7.2835Y-3.937
X7.2835Y-4.3307
X7.2835Y-4.7244
X7.4803Y-2.1654
X7.4803Y-2.5591
X7.4803Y-2.9528
X7.4803Y-3.3465
X7.4803Y-3.7402
X7.4803Y-4.1339
X7.4803Y-4.5276
X7.4803Y-5.315
X7.6772Y-1.9685
X7.6772Y-2.3622
X7.6772Y-2.7559
X7.6772Y-3.1496
X7.6772Y-3.5433
X7.6772Y-3.937
X7.6772Y-4.3307
X7.6772Y-4.7244
T3
X5.2559Y-3.9173
X5.265Y-3.2283
X5.3559Y-3.9173
X5.365Y-3.2283
X5.5118Y-2.8543
X5.5118Y-4.2913
X6.2205Y-2.8543
X6.2205Y-4.2913
X6.387Y-3.8976
X6.3961Y-3.2283
X6.487Y-3.8976
X6.4961Y-3.2283
X6.761Y-3.1693
X6.861Y-3.1693
X7.185Y-3.563
T4
X6.6535Y-3.4449
X6.6535Y-3.6417
T5
X4.1142Y-3.7795
X4.4488Y-3.5827
X4.4488Y-3.9764
X4.8425Y-3.5827
X4.8425Y-3.9764
X5.5118Y-3.0709
X5.5118Y-4.0748
X6.2205Y-3.0709
X6.2205Y-4.0748
X6.9685Y-3.563
T2
G00X5.6791Y-3.2087
M15
G01X5.6594Y-3.2087
M16
G05
G00X5.6791Y-3.4055
M15
G01X5.6594Y-3.4055
M16
G05
G00X5.6594Y-3.7205
M15
G01X5.6791Y-3.7205
M16
G05
G00X5.6594Y-3.9173
M15
G01X5.6791Y-3.9173
M16
G05
G00X6.0728Y-3.2087
M15
G01X6.0531Y-3.2087
M16
G05
G00X6.0728Y-3.4055
M15
G01X6.0531Y-3.4055
M16
G05
G00X6.0531Y-3.7205
M15
G01X6.0728Y-3.7205
M16
G05
G00X6.0531Y-3.9173
M15
G01X6.0728Y-3.9173
M16
G05
T0
M30
