%TF.GenerationSoftware,KiCad,Pcbnew,6.0.2+dfsg-1*%
%TF.CreationDate,2024-04-05T14:20:15-05:00*%
%TF.ProjectId,Dick Smith RDF KK-8345,4469636b-2053-46d6-9974-682052444620,001*%
%TF.SameCoordinates,Original*%
%TF.FileFunction,Copper,L1,Top*%
%TF.FilePolarity,Positive*%
%FSLAX46Y46*%
G04 Gerber Fmt 4.6, Leading zero omitted, Abs format (unit mm)*
G04 Created by KiCad (PCBNEW 6.0.2+dfsg-1) date 2024-04-05 14:20:15*
%MOMM*%
%LPD*%
G01*
G04 APERTURE LIST*
%TA.AperFunction,ComponentPad*%
%ADD10C,2.500000*%
%TD*%
%TA.AperFunction,ComponentPad*%
%ADD11R,6.000000X4.000000*%
%TD*%
%TA.AperFunction,ComponentPad*%
%ADD12R,4.000000X6.000000*%
%TD*%
%TA.AperFunction,ComponentPad*%
%ADD13R,1.750000X1.000000*%
%TD*%
%TA.AperFunction,ComponentPad*%
%ADD14C,1.524000*%
%TD*%
%TA.AperFunction,ComponentPad*%
%ADD15C,1.600000*%
%TD*%
%TA.AperFunction,ViaPad*%
%ADD16C,0.800000*%
%TD*%
%TA.AperFunction,Conductor*%
%ADD17C,1.750000*%
%TD*%
G04 APERTURE END LIST*
D10*
%TO.P,J6,1,Pin_1*%
%TO.N,Net-(J6-Pad1)*%
X113000000Y-101000000D03*
%TO.P,J6,2,Pin_2*%
%TO.N,Net-(J6-Pad2)*%
X113000000Y-91000000D03*
%TO.P,J6,3,Pin_3*%
%TO.N,Net-(J6-Pad3)*%
X123000000Y-91000000D03*
%TO.P,J6,4,Pin_4*%
%TO.N,Net-(J6-Pad4)*%
X123000000Y-101000000D03*
%TO.P,J6,SH,Shield*%
%TO.N,GNDREF*%
X104500000Y-96000000D03*
%TD*%
%TO.P,J3,1,In*%
%TO.N,Net-(D203-Pad1)*%
X158000000Y-103500000D03*
D11*
%TO.P,J3,2,Ext*%
%TO.N,GNDREF*%
X158000000Y-109000000D03*
%TD*%
D10*
%TO.P,J5,1,In*%
%TO.N,Net-(C1-Pad2)*%
X177000000Y-90500000D03*
D12*
%TO.P,J5,2,Ext*%
%TO.N,GNDREF*%
X182500000Y-90500000D03*
%TD*%
D13*
%TO.P,D201,1,K*%
%TO.N,Net-(D201-Pad1)*%
X144000000Y-81500000D03*
%TO.P,D201,2,A*%
%TO.N,Net-(C1-Pad1)*%
X144000000Y-86500000D03*
%TD*%
%TO.P,D203,1,K*%
%TO.N,Net-(D203-Pad1)*%
X154000000Y-99500000D03*
%TO.P,D203,2,A*%
%TO.N,Net-(C1-Pad1)*%
X154000000Y-94500000D03*
%TD*%
D10*
%TO.P,J4,1,In*%
%TO.N,Net-(D204-Pad1)*%
X140000000Y-103500000D03*
D11*
%TO.P,J4,2,Ext*%
%TO.N,GNDREF*%
X140000000Y-109000000D03*
%TD*%
D14*
%TO.P,L5,1,1*%
%TO.N,GNDREF*%
X174270000Y-80500000D03*
%TO.P,L5,2,2*%
%TO.N,Net-(C1-Pad1)*%
X171730000Y-80500000D03*
%TD*%
%TO.P,L2,1,1*%
%TO.N,Net-(D202-Pad1)*%
X162460000Y-82000000D03*
%TO.P,L2,2,2*%
%TO.N,Net-(J6-Pad2)*%
X165000000Y-82000000D03*
%TD*%
D13*
%TO.P,D204,1,K*%
%TO.N,Net-(D204-Pad1)*%
X144000000Y-99500000D03*
%TO.P,D204,2,A*%
%TO.N,Net-(C1-Pad1)*%
X144000000Y-94500000D03*
%TD*%
D14*
%TO.P,L4,1,1*%
%TO.N,Net-(D204-Pad1)*%
X136040000Y-99500000D03*
%TO.P,L4,2,2*%
%TO.N,Net-(J6-Pad4)*%
X133500000Y-99500000D03*
%TD*%
D15*
%TO.P,C1,1*%
%TO.N,Net-(C1-Pad1)*%
X169000000Y-87500000D03*
%TO.P,C1,2*%
%TO.N,Net-(C1-Pad2)*%
X169000000Y-92500000D03*
%TD*%
D10*
%TO.P,J2,1,In*%
%TO.N,Net-(D202-Pad1)*%
X158000000Y-78000000D03*
D11*
%TO.P,J2,2,Ext*%
%TO.N,GNDREF*%
X158000000Y-72500000D03*
%TD*%
D14*
%TO.P,L1,1,1*%
%TO.N,Net-(D201-Pad1)*%
X136270000Y-82000000D03*
%TO.P,L1,2,2*%
%TO.N,Net-(J6-Pad1)*%
X133730000Y-82000000D03*
%TD*%
D10*
%TO.P,J1,1,In*%
%TO.N,Net-(D201-Pad1)*%
X140000000Y-78000000D03*
D11*
%TO.P,J1,2,Ext*%
%TO.N,GNDREF*%
X140000000Y-72500000D03*
%TD*%
D13*
%TO.P,D202,1,K*%
%TO.N,Net-(D202-Pad1)*%
X154000000Y-81500000D03*
%TO.P,D202,2,A*%
%TO.N,Net-(C1-Pad1)*%
X154000000Y-86500000D03*
%TD*%
D14*
%TO.P,L3,1,1*%
%TO.N,Net-(D203-Pad1)*%
X162230000Y-99000000D03*
%TO.P,L3,2,2*%
%TO.N,Net-(J6-Pad3)*%
X164770000Y-99000000D03*
%TD*%
D16*
%TO.N,*%
X70000000Y-120000000D03*
%TO.N,GNDREF*%
X190000000Y-135000000D03*
X180000000Y-135000000D03*
X170000000Y-135000000D03*
X160000000Y-135000000D03*
X150000000Y-135000000D03*
X110000000Y-135000000D03*
X120000000Y-135000000D03*
X130000000Y-135000000D03*
X140000000Y-135000000D03*
X135000000Y-130000000D03*
X145000000Y-130000000D03*
X155000000Y-130000000D03*
X165000000Y-130000000D03*
X140000000Y-125000000D03*
X150000000Y-125000000D03*
X160000000Y-125000000D03*
X170000000Y-125000000D03*
X195000000Y-120000000D03*
X185000000Y-120000000D03*
X175000000Y-120000000D03*
X165000000Y-120000000D03*
X155000000Y-120000000D03*
X145000000Y-120000000D03*
X135000000Y-120000000D03*
X125000000Y-120000000D03*
X115000000Y-120000000D03*
X105000000Y-120000000D03*
X110000000Y-115000000D03*
X120000000Y-115000000D03*
X130000000Y-115000000D03*
X140000000Y-115000000D03*
X150000000Y-115000000D03*
X160000000Y-115000000D03*
X170000000Y-115000000D03*
X180000000Y-115000000D03*
X190000000Y-115000000D03*
X195000000Y-110000000D03*
X185000000Y-110000000D03*
X175000000Y-110000000D03*
X165000000Y-110000000D03*
X145000000Y-110000000D03*
X135000000Y-110000000D03*
X125000000Y-110000000D03*
X115000000Y-110000000D03*
X105000000Y-100000000D03*
X105000000Y-110000000D03*
X110000000Y-105000000D03*
X120000000Y-105000000D03*
X130000000Y-105000000D03*
X150000000Y-105000000D03*
X170000000Y-105000000D03*
X180000000Y-105000000D03*
X190000000Y-105000000D03*
X195000000Y-100000000D03*
X185000000Y-100000000D03*
X175000000Y-100000000D03*
X115000000Y-100000000D03*
X120000000Y-95000000D03*
X130000000Y-95000000D03*
X140000000Y-95000000D03*
X170000000Y-95000000D03*
X180000000Y-95000000D03*
X190000000Y-95000000D03*
X195000000Y-90000000D03*
X165000000Y-90000000D03*
X105000000Y-90000000D03*
X110000000Y-85000000D03*
X120000000Y-85000000D03*
X130000000Y-85000000D03*
X140000000Y-85000000D03*
X160000000Y-85000000D03*
X180000000Y-85000000D03*
X190000000Y-85000000D03*
X195000000Y-80000000D03*
X185000000Y-80000000D03*
X165000000Y-80000000D03*
X145000000Y-80000000D03*
X135000000Y-80000000D03*
X125000000Y-80000000D03*
X115000000Y-80000000D03*
X105000000Y-80000000D03*
X110000000Y-75000000D03*
X120000000Y-75000000D03*
X130000000Y-75000000D03*
X150000000Y-75000000D03*
X170000000Y-75000000D03*
X180000000Y-75000000D03*
X190000000Y-75000000D03*
X195000000Y-70000000D03*
X185000000Y-70000000D03*
X175000000Y-70000000D03*
X165000000Y-70000000D03*
X145000000Y-70000000D03*
X135000000Y-70000000D03*
X125000000Y-70000000D03*
X115000000Y-70000000D03*
X105000000Y-70000000D03*
X110000000Y-65000000D03*
X120000000Y-65000000D03*
X130000000Y-65000000D03*
X140000000Y-65000000D03*
X150000000Y-65000000D03*
X160000000Y-65000000D03*
X170000000Y-65000000D03*
X180000000Y-65000000D03*
X190000000Y-65000000D03*
X195000000Y-60000000D03*
X185000000Y-60000000D03*
X175000000Y-60000000D03*
X165000000Y-60000000D03*
X155000000Y-60000000D03*
X145000000Y-60000000D03*
X135000000Y-60000000D03*
X125000000Y-60000000D03*
X120000000Y-55000000D03*
X130000000Y-55000000D03*
X140000000Y-55000000D03*
X150000000Y-55000000D03*
X160000000Y-55000000D03*
X170000000Y-55000000D03*
X180000000Y-55000000D03*
X190000000Y-55000000D03*
X195000000Y-50000000D03*
X185000000Y-50000000D03*
X175000000Y-50000000D03*
X165000000Y-50000000D03*
X155000000Y-50000000D03*
X145000000Y-50000000D03*
X135000000Y-50000000D03*
X125000000Y-50000000D03*
X115000000Y-60000000D03*
X105000000Y-60000000D03*
X110000000Y-55000000D03*
X115000000Y-50000000D03*
X105000000Y-50000000D03*
%TD*%
D17*
%TO.N,Net-(C1-Pad2)*%
X177000000Y-90500000D02*
X171000000Y-90500000D01*
X171000000Y-90500000D02*
X169000000Y-92500000D01*
%TO.N,Net-(C1-Pad1)*%
X162500000Y-89500000D02*
X162000000Y-90000000D01*
X169000000Y-87500000D02*
X164500000Y-87500000D01*
X164500000Y-87500000D02*
X162500000Y-89500000D01*
X162000000Y-90000000D02*
X153500000Y-90000000D01*
X171730000Y-80500000D02*
X171730000Y-84770000D01*
X171730000Y-84770000D02*
X169000000Y-87500000D01*
%TO.N,Net-(D204-Pad1)*%
X144000000Y-99500000D02*
X140000000Y-103500000D01*
X136040000Y-99500000D02*
X136040000Y-99540000D01*
X136040000Y-99540000D02*
X140000000Y-103500000D01*
%TO.N,Net-(D203-Pad1)*%
X154000000Y-99500000D02*
X158000000Y-103500000D01*
X162230000Y-99000000D02*
X162230000Y-99270000D01*
X162230000Y-99270000D02*
X158000000Y-103500000D01*
%TO.N,Net-(D201-Pad1)*%
X140000000Y-78000000D02*
X140000000Y-78270000D01*
X143500000Y-81500000D02*
X144000000Y-81500000D01*
X140000000Y-78000000D02*
X143500000Y-81500000D01*
X140000000Y-78270000D02*
X136270000Y-82000000D01*
%TO.N,Net-(D202-Pad1)*%
X154500000Y-81500000D02*
X158000000Y-78000000D01*
X158000000Y-78000000D02*
X162000000Y-82000000D01*
X162000000Y-82000000D02*
X162460000Y-82000000D01*
X154000000Y-81500000D02*
X154500000Y-81500000D01*
%TD*%
%TA.AperFunction,Conductor*%
%TO.N,Net-(C1-Pad1)*%
G36*
X142681074Y-85520002D02*
G01*
X142727567Y-85573658D01*
X142737671Y-85643932D01*
X142713780Y-85701564D01*
X142680213Y-85746352D01*
X142671676Y-85761946D01*
X142626522Y-85882394D01*
X142622895Y-85897649D01*
X142617369Y-85948514D01*
X142617000Y-85955328D01*
X142617000Y-86227885D01*
X142621475Y-86243124D01*
X142622865Y-86244329D01*
X142630548Y-86246000D01*
X145364884Y-86246000D01*
X145380123Y-86241525D01*
X145381328Y-86240135D01*
X145382999Y-86232452D01*
X145382999Y-85955331D01*
X145382629Y-85948510D01*
X145377105Y-85897648D01*
X145373479Y-85882396D01*
X145328324Y-85761946D01*
X145319787Y-85746352D01*
X145286220Y-85701564D01*
X145261373Y-85635058D01*
X145276426Y-85565675D01*
X145326601Y-85515446D01*
X145387047Y-85500000D01*
X152612953Y-85500000D01*
X152681074Y-85520002D01*
X152727567Y-85573658D01*
X152737671Y-85643932D01*
X152713780Y-85701564D01*
X152680213Y-85746352D01*
X152671676Y-85761946D01*
X152626522Y-85882394D01*
X152622895Y-85897649D01*
X152617369Y-85948514D01*
X152617000Y-85955328D01*
X152617000Y-86227885D01*
X152621475Y-86243124D01*
X152622865Y-86244329D01*
X152630548Y-86246000D01*
X155364884Y-86246000D01*
X155380123Y-86241525D01*
X155381328Y-86240135D01*
X155382999Y-86232452D01*
X155382999Y-85955331D01*
X155382629Y-85948510D01*
X155377105Y-85897648D01*
X155373479Y-85882396D01*
X155328324Y-85761946D01*
X155319787Y-85746352D01*
X155286220Y-85701564D01*
X155261373Y-85635058D01*
X155276426Y-85565675D01*
X155326601Y-85515446D01*
X155387047Y-85500000D01*
X155874000Y-85500000D01*
X155942121Y-85520002D01*
X155988614Y-85573658D01*
X156000000Y-85626000D01*
X156000000Y-95374000D01*
X155979998Y-95442121D01*
X155926342Y-95488614D01*
X155874000Y-95500000D01*
X155387047Y-95500000D01*
X155318926Y-95479998D01*
X155272433Y-95426342D01*
X155262329Y-95356068D01*
X155286220Y-95298436D01*
X155319787Y-95253648D01*
X155328324Y-95238054D01*
X155373478Y-95117606D01*
X155377105Y-95102351D01*
X155382631Y-95051486D01*
X155383000Y-95044672D01*
X155383000Y-94772115D01*
X155378525Y-94756876D01*
X155377135Y-94755671D01*
X155369452Y-94754000D01*
X152635116Y-94754000D01*
X152619877Y-94758475D01*
X152618672Y-94759865D01*
X152617001Y-94767548D01*
X152617001Y-95044669D01*
X152617371Y-95051490D01*
X152622895Y-95102352D01*
X152626521Y-95117604D01*
X152671676Y-95238054D01*
X152680213Y-95253648D01*
X152713780Y-95298436D01*
X152738627Y-95364942D01*
X152723574Y-95434325D01*
X152673399Y-95484554D01*
X152612953Y-95500000D01*
X145387047Y-95500000D01*
X145318926Y-95479998D01*
X145272433Y-95426342D01*
X145262329Y-95356068D01*
X145286220Y-95298436D01*
X145319787Y-95253648D01*
X145328324Y-95238054D01*
X145373478Y-95117606D01*
X145377105Y-95102351D01*
X145382631Y-95051486D01*
X145383000Y-95044672D01*
X145383000Y-94772115D01*
X145378525Y-94756876D01*
X145377135Y-94755671D01*
X145369452Y-94754000D01*
X142635116Y-94754000D01*
X142619877Y-94758475D01*
X142618672Y-94759865D01*
X142617001Y-94767548D01*
X142617001Y-95044669D01*
X142617371Y-95051490D01*
X142622895Y-95102352D01*
X142626521Y-95117604D01*
X142671676Y-95238054D01*
X142680213Y-95253648D01*
X142713780Y-95298436D01*
X142738627Y-95364942D01*
X142723574Y-95434325D01*
X142673399Y-95484554D01*
X142612953Y-95500000D01*
X142126000Y-95500000D01*
X142057879Y-95479998D01*
X142011386Y-95426342D01*
X142000000Y-95374000D01*
X142000000Y-94227885D01*
X142617000Y-94227885D01*
X142621475Y-94243124D01*
X142622865Y-94244329D01*
X142630548Y-94246000D01*
X143727885Y-94246000D01*
X143743124Y-94241525D01*
X143744329Y-94240135D01*
X143746000Y-94232452D01*
X143746000Y-94227885D01*
X144254000Y-94227885D01*
X144258475Y-94243124D01*
X144259865Y-94244329D01*
X144267548Y-94246000D01*
X145364884Y-94246000D01*
X145380123Y-94241525D01*
X145381328Y-94240135D01*
X145382999Y-94232452D01*
X145382999Y-94227885D01*
X152617000Y-94227885D01*
X152621475Y-94243124D01*
X152622865Y-94244329D01*
X152630548Y-94246000D01*
X153727885Y-94246000D01*
X153743124Y-94241525D01*
X153744329Y-94240135D01*
X153746000Y-94232452D01*
X153746000Y-94227885D01*
X154254000Y-94227885D01*
X154258475Y-94243124D01*
X154259865Y-94244329D01*
X154267548Y-94246000D01*
X155364884Y-94246000D01*
X155380123Y-94241525D01*
X155381328Y-94240135D01*
X155382999Y-94232452D01*
X155382999Y-93955331D01*
X155382629Y-93948510D01*
X155377105Y-93897648D01*
X155373479Y-93882396D01*
X155328324Y-93761946D01*
X155319786Y-93746351D01*
X155243285Y-93644276D01*
X155230724Y-93631715D01*
X155128649Y-93555214D01*
X155113054Y-93546676D01*
X154992606Y-93501522D01*
X154977351Y-93497895D01*
X154926486Y-93492369D01*
X154919672Y-93492000D01*
X154272115Y-93492000D01*
X154256876Y-93496475D01*
X154255671Y-93497865D01*
X154254000Y-93505548D01*
X154254000Y-94227885D01*
X153746000Y-94227885D01*
X153746000Y-93510116D01*
X153741525Y-93494877D01*
X153740135Y-93493672D01*
X153732452Y-93492001D01*
X153080331Y-93492001D01*
X153073510Y-93492371D01*
X153022648Y-93497895D01*
X153007396Y-93501521D01*
X152886946Y-93546676D01*
X152871351Y-93555214D01*
X152769276Y-93631715D01*
X152756715Y-93644276D01*
X152680214Y-93746351D01*
X152671676Y-93761946D01*
X152626522Y-93882394D01*
X152622895Y-93897649D01*
X152617369Y-93948514D01*
X152617000Y-93955328D01*
X152617000Y-94227885D01*
X145382999Y-94227885D01*
X145382999Y-93955331D01*
X145382629Y-93948510D01*
X145377105Y-93897648D01*
X145373479Y-93882396D01*
X145328324Y-93761946D01*
X145319786Y-93746351D01*
X145243285Y-93644276D01*
X145230724Y-93631715D01*
X145128649Y-93555214D01*
X145113054Y-93546676D01*
X144992606Y-93501522D01*
X144977351Y-93497895D01*
X144926486Y-93492369D01*
X144919672Y-93492000D01*
X144272115Y-93492000D01*
X144256876Y-93496475D01*
X144255671Y-93497865D01*
X144254000Y-93505548D01*
X144254000Y-94227885D01*
X143746000Y-94227885D01*
X143746000Y-93510116D01*
X143741525Y-93494877D01*
X143740135Y-93493672D01*
X143732452Y-93492001D01*
X143080331Y-93492001D01*
X143073510Y-93492371D01*
X143022648Y-93497895D01*
X143007396Y-93501521D01*
X142886946Y-93546676D01*
X142871351Y-93555214D01*
X142769276Y-93631715D01*
X142756715Y-93644276D01*
X142680214Y-93746351D01*
X142671676Y-93761946D01*
X142626522Y-93882394D01*
X142622895Y-93897649D01*
X142617369Y-93948514D01*
X142617000Y-93955328D01*
X142617000Y-94227885D01*
X142000000Y-94227885D01*
X142000000Y-87044669D01*
X142617001Y-87044669D01*
X142617371Y-87051490D01*
X142622895Y-87102352D01*
X142626521Y-87117604D01*
X142671676Y-87238054D01*
X142680214Y-87253649D01*
X142756715Y-87355724D01*
X142769276Y-87368285D01*
X142871351Y-87444786D01*
X142886946Y-87453324D01*
X143007394Y-87498478D01*
X143022649Y-87502105D01*
X143073514Y-87507631D01*
X143080328Y-87508000D01*
X143727885Y-87508000D01*
X143743124Y-87503525D01*
X143744329Y-87502135D01*
X143746000Y-87494452D01*
X143746000Y-87489884D01*
X144254000Y-87489884D01*
X144258475Y-87505123D01*
X144259865Y-87506328D01*
X144267548Y-87507999D01*
X144919669Y-87507999D01*
X144926490Y-87507629D01*
X144977352Y-87502105D01*
X144992604Y-87498479D01*
X145113054Y-87453324D01*
X145128649Y-87444786D01*
X145230724Y-87368285D01*
X145243285Y-87355724D01*
X145319786Y-87253649D01*
X145328324Y-87238054D01*
X145373478Y-87117606D01*
X145377105Y-87102351D01*
X145382631Y-87051486D01*
X145383000Y-87044672D01*
X145383000Y-87044669D01*
X152617001Y-87044669D01*
X152617371Y-87051490D01*
X152622895Y-87102352D01*
X152626521Y-87117604D01*
X152671676Y-87238054D01*
X152680214Y-87253649D01*
X152756715Y-87355724D01*
X152769276Y-87368285D01*
X152871351Y-87444786D01*
X152886946Y-87453324D01*
X153007394Y-87498478D01*
X153022649Y-87502105D01*
X153073514Y-87507631D01*
X153080328Y-87508000D01*
X153727885Y-87508000D01*
X153743124Y-87503525D01*
X153744329Y-87502135D01*
X153746000Y-87494452D01*
X153746000Y-87489884D01*
X154254000Y-87489884D01*
X154258475Y-87505123D01*
X154259865Y-87506328D01*
X154267548Y-87507999D01*
X154919669Y-87507999D01*
X154926490Y-87507629D01*
X154977352Y-87502105D01*
X154992604Y-87498479D01*
X155113054Y-87453324D01*
X155128649Y-87444786D01*
X155230724Y-87368285D01*
X155243285Y-87355724D01*
X155319786Y-87253649D01*
X155328324Y-87238054D01*
X155373478Y-87117606D01*
X155377105Y-87102351D01*
X155382631Y-87051486D01*
X155383000Y-87044672D01*
X155383000Y-86772115D01*
X155378525Y-86756876D01*
X155377135Y-86755671D01*
X155369452Y-86754000D01*
X154272115Y-86754000D01*
X154256876Y-86758475D01*
X154255671Y-86759865D01*
X154254000Y-86767548D01*
X154254000Y-87489884D01*
X153746000Y-87489884D01*
X153746000Y-86772115D01*
X153741525Y-86756876D01*
X153740135Y-86755671D01*
X153732452Y-86754000D01*
X152635116Y-86754000D01*
X152619877Y-86758475D01*
X152618672Y-86759865D01*
X152617001Y-86767548D01*
X152617001Y-87044669D01*
X145383000Y-87044669D01*
X145383000Y-86772115D01*
X145378525Y-86756876D01*
X145377135Y-86755671D01*
X145369452Y-86754000D01*
X144272115Y-86754000D01*
X144256876Y-86758475D01*
X144255671Y-86759865D01*
X144254000Y-86767548D01*
X144254000Y-87489884D01*
X143746000Y-87489884D01*
X143746000Y-86772115D01*
X143741525Y-86756876D01*
X143740135Y-86755671D01*
X143732452Y-86754000D01*
X142635116Y-86754000D01*
X142619877Y-86758475D01*
X142618672Y-86759865D01*
X142617001Y-86767548D01*
X142617001Y-87044669D01*
X142000000Y-87044669D01*
X142000000Y-85626000D01*
X142020002Y-85557879D01*
X142073658Y-85511386D01*
X142126000Y-85500000D01*
X142612953Y-85500000D01*
X142681074Y-85520002D01*
G37*
%TD.AperFunction*%
%TD*%
%TA.AperFunction,Conductor*%
%TO.N,GNDREF*%
G36*
X198434121Y-45028002D02*
G01*
X198480614Y-45081658D01*
X198492000Y-45134000D01*
X198492000Y-138866000D01*
X198471998Y-138934121D01*
X198418342Y-138980614D01*
X198366000Y-138992000D01*
X99634000Y-138992000D01*
X99565879Y-138971998D01*
X99519386Y-138918342D01*
X99508000Y-138866000D01*
X99508000Y-111044669D01*
X136492001Y-111044669D01*
X136492371Y-111051490D01*
X136497895Y-111102352D01*
X136501521Y-111117604D01*
X136546676Y-111238054D01*
X136555214Y-111253649D01*
X136631715Y-111355724D01*
X136644276Y-111368285D01*
X136746351Y-111444786D01*
X136761946Y-111453324D01*
X136882394Y-111498478D01*
X136897649Y-111502105D01*
X136948514Y-111507631D01*
X136955328Y-111508000D01*
X139727885Y-111508000D01*
X139743124Y-111503525D01*
X139744329Y-111502135D01*
X139746000Y-111494452D01*
X139746000Y-111489884D01*
X140254000Y-111489884D01*
X140258475Y-111505123D01*
X140259865Y-111506328D01*
X140267548Y-111507999D01*
X143044669Y-111507999D01*
X143051490Y-111507629D01*
X143102352Y-111502105D01*
X143117604Y-111498479D01*
X143238054Y-111453324D01*
X143253649Y-111444786D01*
X143355724Y-111368285D01*
X143368285Y-111355724D01*
X143444786Y-111253649D01*
X143453324Y-111238054D01*
X143498478Y-111117606D01*
X143502105Y-111102351D01*
X143507631Y-111051486D01*
X143508000Y-111044672D01*
X143508000Y-111044669D01*
X154492001Y-111044669D01*
X154492371Y-111051490D01*
X154497895Y-111102352D01*
X154501521Y-111117604D01*
X154546676Y-111238054D01*
X154555214Y-111253649D01*
X154631715Y-111355724D01*
X154644276Y-111368285D01*
X154746351Y-111444786D01*
X154761946Y-111453324D01*
X154882394Y-111498478D01*
X154897649Y-111502105D01*
X154948514Y-111507631D01*
X154955328Y-111508000D01*
X157727885Y-111508000D01*
X157743124Y-111503525D01*
X157744329Y-111502135D01*
X157746000Y-111494452D01*
X157746000Y-111489884D01*
X158254000Y-111489884D01*
X158258475Y-111505123D01*
X158259865Y-111506328D01*
X158267548Y-111507999D01*
X161044669Y-111507999D01*
X161051490Y-111507629D01*
X161102352Y-111502105D01*
X161117604Y-111498479D01*
X161238054Y-111453324D01*
X161253649Y-111444786D01*
X161355724Y-111368285D01*
X161368285Y-111355724D01*
X161444786Y-111253649D01*
X161453324Y-111238054D01*
X161498478Y-111117606D01*
X161502105Y-111102351D01*
X161507631Y-111051486D01*
X161508000Y-111044672D01*
X161508000Y-109272115D01*
X161503525Y-109256876D01*
X161502135Y-109255671D01*
X161494452Y-109254000D01*
X158272115Y-109254000D01*
X158256876Y-109258475D01*
X158255671Y-109259865D01*
X158254000Y-109267548D01*
X158254000Y-111489884D01*
X157746000Y-111489884D01*
X157746000Y-109272115D01*
X157741525Y-109256876D01*
X157740135Y-109255671D01*
X157732452Y-109254000D01*
X154510116Y-109254000D01*
X154494877Y-109258475D01*
X154493672Y-109259865D01*
X154492001Y-109267548D01*
X154492001Y-111044669D01*
X143508000Y-111044669D01*
X143508000Y-109272115D01*
X143503525Y-109256876D01*
X143502135Y-109255671D01*
X143494452Y-109254000D01*
X140272115Y-109254000D01*
X140256876Y-109258475D01*
X140255671Y-109259865D01*
X140254000Y-109267548D01*
X140254000Y-111489884D01*
X139746000Y-111489884D01*
X139746000Y-109272115D01*
X139741525Y-109256876D01*
X139740135Y-109255671D01*
X139732452Y-109254000D01*
X136510116Y-109254000D01*
X136494877Y-109258475D01*
X136493672Y-109259865D01*
X136492001Y-109267548D01*
X136492001Y-111044669D01*
X99508000Y-111044669D01*
X99508000Y-108727885D01*
X136492000Y-108727885D01*
X136496475Y-108743124D01*
X136497865Y-108744329D01*
X136505548Y-108746000D01*
X139727885Y-108746000D01*
X139743124Y-108741525D01*
X139744329Y-108740135D01*
X139746000Y-108732452D01*
X139746000Y-108727885D01*
X140254000Y-108727885D01*
X140258475Y-108743124D01*
X140259865Y-108744329D01*
X140267548Y-108746000D01*
X143489884Y-108746000D01*
X143505123Y-108741525D01*
X143506328Y-108740135D01*
X143507999Y-108732452D01*
X143507999Y-108727885D01*
X154492000Y-108727885D01*
X154496475Y-108743124D01*
X154497865Y-108744329D01*
X154505548Y-108746000D01*
X157727885Y-108746000D01*
X157743124Y-108741525D01*
X157744329Y-108740135D01*
X157746000Y-108732452D01*
X157746000Y-108727885D01*
X158254000Y-108727885D01*
X158258475Y-108743124D01*
X158259865Y-108744329D01*
X158267548Y-108746000D01*
X161489884Y-108746000D01*
X161505123Y-108741525D01*
X161506328Y-108740135D01*
X161507999Y-108732452D01*
X161507999Y-106955331D01*
X161507629Y-106948510D01*
X161502105Y-106897648D01*
X161498479Y-106882396D01*
X161453324Y-106761946D01*
X161444786Y-106746351D01*
X161368285Y-106644276D01*
X161355724Y-106631715D01*
X161253649Y-106555214D01*
X161238054Y-106546676D01*
X161117606Y-106501522D01*
X161102351Y-106497895D01*
X161051486Y-106492369D01*
X161044672Y-106492000D01*
X158272115Y-106492000D01*
X158256876Y-106496475D01*
X158255671Y-106497865D01*
X158254000Y-106505548D01*
X158254000Y-108727885D01*
X157746000Y-108727885D01*
X157746000Y-106510116D01*
X157741525Y-106494877D01*
X157740135Y-106493672D01*
X157732452Y-106492001D01*
X154955331Y-106492001D01*
X154948510Y-106492371D01*
X154897648Y-106497895D01*
X154882396Y-106501521D01*
X154761946Y-106546676D01*
X154746351Y-106555214D01*
X154644276Y-106631715D01*
X154631715Y-106644276D01*
X154555214Y-106746351D01*
X154546676Y-106761946D01*
X154501522Y-106882394D01*
X154497895Y-106897649D01*
X154492369Y-106948514D01*
X154492000Y-106955328D01*
X154492000Y-108727885D01*
X143507999Y-108727885D01*
X143507999Y-106955331D01*
X143507629Y-106948510D01*
X143502105Y-106897648D01*
X143498479Y-106882396D01*
X143453324Y-106761946D01*
X143444786Y-106746351D01*
X143368285Y-106644276D01*
X143355724Y-106631715D01*
X143253649Y-106555214D01*
X143238054Y-106546676D01*
X143117606Y-106501522D01*
X143102351Y-106497895D01*
X143051486Y-106492369D01*
X143044672Y-106492000D01*
X140272115Y-106492000D01*
X140256876Y-106496475D01*
X140255671Y-106497865D01*
X140254000Y-106505548D01*
X140254000Y-108727885D01*
X139746000Y-108727885D01*
X139746000Y-106510116D01*
X139741525Y-106494877D01*
X139740135Y-106493672D01*
X139732452Y-106492001D01*
X136955331Y-106492001D01*
X136948510Y-106492371D01*
X136897648Y-106497895D01*
X136882396Y-106501521D01*
X136761946Y-106546676D01*
X136746351Y-106555214D01*
X136644276Y-106631715D01*
X136631715Y-106644276D01*
X136555214Y-106746351D01*
X136546676Y-106761946D01*
X136501522Y-106882394D01*
X136497895Y-106897649D01*
X136492369Y-106948514D01*
X136492000Y-106955328D01*
X136492000Y-108727885D01*
X99508000Y-108727885D01*
X99508000Y-100953839D01*
X111237173Y-100953839D01*
X111249713Y-101214908D01*
X111300704Y-101471256D01*
X111389026Y-101717252D01*
X111391242Y-101721376D01*
X111455753Y-101841437D01*
X111512737Y-101947491D01*
X111515532Y-101951234D01*
X111515534Y-101951237D01*
X111666330Y-102153177D01*
X111666335Y-102153183D01*
X111669122Y-102156915D01*
X111672431Y-102160195D01*
X111672436Y-102160201D01*
X111851426Y-102337635D01*
X111854743Y-102340923D01*
X111858505Y-102343681D01*
X111858508Y-102343684D01*
X112061750Y-102492707D01*
X112065524Y-102495474D01*
X112069667Y-102497654D01*
X112069669Y-102497655D01*
X112292684Y-102614989D01*
X112292689Y-102614991D01*
X112296834Y-102617172D01*
X112543590Y-102703344D01*
X112548183Y-102704216D01*
X112795785Y-102751224D01*
X112795788Y-102751224D01*
X112800374Y-102752095D01*
X112930959Y-102757226D01*
X113056875Y-102762174D01*
X113056881Y-102762174D01*
X113061543Y-102762357D01*
X113140977Y-102753657D01*
X113316707Y-102734412D01*
X113316712Y-102734411D01*
X113321360Y-102733902D01*
X113434116Y-102704216D01*
X113569594Y-102668548D01*
X113569596Y-102668547D01*
X113574117Y-102667357D01*
X113814262Y-102564182D01*
X114036519Y-102426646D01*
X114040082Y-102423629D01*
X114040087Y-102423626D01*
X114232439Y-102260787D01*
X114232440Y-102260786D01*
X114236005Y-102257768D01*
X114327729Y-102153177D01*
X114405257Y-102064774D01*
X114405261Y-102064769D01*
X114408339Y-102061259D01*
X114549733Y-101841437D01*
X114657083Y-101603129D01*
X114673918Y-101543436D01*
X114726760Y-101356076D01*
X114726761Y-101356073D01*
X114728030Y-101351572D01*
X114744832Y-101219496D01*
X114760616Y-101095421D01*
X114760616Y-101095417D01*
X114761014Y-101092291D01*
X114763431Y-101000000D01*
X114760001Y-100953839D01*
X121237173Y-100953839D01*
X121249713Y-101214908D01*
X121300704Y-101471256D01*
X121389026Y-101717252D01*
X121391242Y-101721376D01*
X121455753Y-101841437D01*
X121512737Y-101947491D01*
X121515532Y-101951234D01*
X121515534Y-101951237D01*
X121666330Y-102153177D01*
X121666335Y-102153183D01*
X121669122Y-102156915D01*
X121672431Y-102160195D01*
X121672436Y-102160201D01*
X121851426Y-102337635D01*
X121854743Y-102340923D01*
X121858505Y-102343681D01*
X121858508Y-102343684D01*
X122061750Y-102492707D01*
X122065524Y-102495474D01*
X122069667Y-102497654D01*
X122069669Y-102497655D01*
X122292684Y-102614989D01*
X122292689Y-102614991D01*
X122296834Y-102617172D01*
X122543590Y-102703344D01*
X122548183Y-102704216D01*
X122795785Y-102751224D01*
X122795788Y-102751224D01*
X122800374Y-102752095D01*
X122930959Y-102757226D01*
X123056875Y-102762174D01*
X123056881Y-102762174D01*
X123061543Y-102762357D01*
X123140977Y-102753657D01*
X123316707Y-102734412D01*
X123316712Y-102734411D01*
X123321360Y-102733902D01*
X123434116Y-102704216D01*
X123569594Y-102668548D01*
X123569596Y-102668547D01*
X123574117Y-102667357D01*
X123814262Y-102564182D01*
X124036519Y-102426646D01*
X124040082Y-102423629D01*
X124040087Y-102423626D01*
X124232439Y-102260787D01*
X124232440Y-102260786D01*
X124236005Y-102257768D01*
X124327729Y-102153177D01*
X124405257Y-102064774D01*
X124405261Y-102064769D01*
X124408339Y-102061259D01*
X124549733Y-101841437D01*
X124657083Y-101603129D01*
X124673918Y-101543436D01*
X124726760Y-101356076D01*
X124726761Y-101356073D01*
X124728030Y-101351572D01*
X124744832Y-101219496D01*
X124760616Y-101095421D01*
X124760616Y-101095417D01*
X124761014Y-101092291D01*
X124763431Y-101000000D01*
X124746701Y-100774874D01*
X124744407Y-100744000D01*
X124744406Y-100743996D01*
X124744061Y-100739348D01*
X124735127Y-100699863D01*
X124691138Y-100505462D01*
X124686377Y-100484423D01*
X124684684Y-100480069D01*
X124593340Y-100245176D01*
X124593339Y-100245173D01*
X124591647Y-100240823D01*
X124589198Y-100236537D01*
X124532694Y-100137676D01*
X124461951Y-100013902D01*
X124300138Y-99808643D01*
X124109763Y-99629557D01*
X123930901Y-99505475D01*
X123923009Y-99500000D01*
X132224647Y-99500000D01*
X132244022Y-99721463D01*
X132301560Y-99936196D01*
X132303882Y-99941177D01*
X132303883Y-99941178D01*
X132393186Y-100132689D01*
X132393189Y-100132694D01*
X132395512Y-100137676D01*
X132398668Y-100142183D01*
X132398669Y-100142185D01*
X132519861Y-100315265D01*
X132523023Y-100319781D01*
X132680219Y-100476977D01*
X132684727Y-100480134D01*
X132684730Y-100480136D01*
X132721458Y-100505853D01*
X132862323Y-100604488D01*
X132867305Y-100606811D01*
X132867310Y-100606814D01*
X133053817Y-100693783D01*
X133063804Y-100698440D01*
X133069112Y-100699862D01*
X133069114Y-100699863D01*
X133134949Y-100717503D01*
X133278537Y-100755978D01*
X133500000Y-100775353D01*
X133721463Y-100755978D01*
X133865051Y-100717503D01*
X133930886Y-100699863D01*
X133930888Y-100699862D01*
X133936196Y-100698440D01*
X133946183Y-100693783D01*
X134132690Y-100606814D01*
X134132695Y-100606811D01*
X134137677Y-100604488D01*
X134278542Y-100505853D01*
X134315270Y-100480136D01*
X134315273Y-100480134D01*
X134319781Y-100476977D01*
X134476977Y-100319781D01*
X134480136Y-100315270D01*
X134480140Y-100315265D01*
X134591386Y-100156388D01*
X134646843Y-100112059D01*
X134717462Y-100104750D01*
X134780823Y-100136780D01*
X134809481Y-100176907D01*
X134826766Y-100215278D01*
X134829748Y-100219708D01*
X134831909Y-100223590D01*
X134834055Y-100227323D01*
X134836312Y-100232151D01*
X134839351Y-100236531D01*
X134839354Y-100236537D01*
X134897266Y-100320017D01*
X134898258Y-100321469D01*
X134954907Y-100405614D01*
X134954911Y-100405618D01*
X134957888Y-100410041D01*
X134961567Y-100413898D01*
X134964801Y-100417920D01*
X134965172Y-100418412D01*
X134965185Y-100418402D01*
X134967776Y-100421656D01*
X134970140Y-100425064D01*
X134972932Y-100428132D01*
X134972934Y-100428135D01*
X134985707Y-100442173D01*
X134985721Y-100442187D01*
X134986714Y-100443279D01*
X135048207Y-100504772D01*
X135050282Y-100506895D01*
X135119951Y-100579927D01*
X135124236Y-100583115D01*
X135124237Y-100583116D01*
X135125902Y-100584355D01*
X135139784Y-100596349D01*
X138220542Y-103677106D01*
X138255026Y-103741619D01*
X138300704Y-103971256D01*
X138389026Y-104217252D01*
X138391242Y-104221376D01*
X138455753Y-104341437D01*
X138512737Y-104447491D01*
X138515532Y-104451234D01*
X138515534Y-104451237D01*
X138666330Y-104653177D01*
X138666335Y-104653183D01*
X138669122Y-104656915D01*
X138672431Y-104660195D01*
X138672436Y-104660201D01*
X138851426Y-104837635D01*
X138854743Y-104840923D01*
X138858505Y-104843681D01*
X138858508Y-104843684D01*
X139061750Y-104992707D01*
X139065524Y-104995474D01*
X139069667Y-104997654D01*
X139069669Y-104997655D01*
X139292684Y-105114989D01*
X139292689Y-105114991D01*
X139296834Y-105117172D01*
X139543590Y-105203344D01*
X139548183Y-105204216D01*
X139795785Y-105251224D01*
X139795788Y-105251224D01*
X139800374Y-105252095D01*
X139930959Y-105257226D01*
X140056875Y-105262174D01*
X140056881Y-105262174D01*
X140061543Y-105262357D01*
X140140977Y-105253657D01*
X140316707Y-105234412D01*
X140316712Y-105234411D01*
X140321360Y-105233902D01*
X140434116Y-105204216D01*
X140569594Y-105168548D01*
X140569596Y-105168547D01*
X140574117Y-105167357D01*
X140814262Y-105064182D01*
X141036519Y-104926646D01*
X141040082Y-104923629D01*
X141040087Y-104923626D01*
X141232439Y-104760787D01*
X141232440Y-104760786D01*
X141236005Y-104757768D01*
X141327729Y-104653177D01*
X141405257Y-104564774D01*
X141405261Y-104564769D01*
X141408339Y-104561259D01*
X141549733Y-104341437D01*
X141657083Y-104103129D01*
X141728030Y-103851572D01*
X141740527Y-103753333D01*
X141768966Y-103688281D01*
X141776425Y-103680139D01*
X144921403Y-100535161D01*
X144980235Y-100502297D01*
X144985316Y-100501745D01*
X145121705Y-100450615D01*
X145238261Y-100363261D01*
X145325615Y-100246705D01*
X145376745Y-100110316D01*
X145383500Y-100048134D01*
X145383500Y-99519387D01*
X152611633Y-99519387D01*
X152615888Y-99562395D01*
X152616500Y-99574800D01*
X152616500Y-100048134D01*
X152623255Y-100110316D01*
X152674385Y-100246705D01*
X152761739Y-100363261D01*
X152878295Y-100450615D01*
X153014684Y-100501745D01*
X153019764Y-100502297D01*
X153078596Y-100535161D01*
X156220542Y-103677106D01*
X156255026Y-103741619D01*
X156300704Y-103971256D01*
X156389026Y-104217252D01*
X156391242Y-104221376D01*
X156455753Y-104341437D01*
X156512737Y-104447491D01*
X156515532Y-104451234D01*
X156515534Y-104451237D01*
X156666330Y-104653177D01*
X156666335Y-104653183D01*
X156669122Y-104656915D01*
X156672431Y-104660195D01*
X156672436Y-104660201D01*
X156851426Y-104837635D01*
X156854743Y-104840923D01*
X156858505Y-104843681D01*
X156858508Y-104843684D01*
X157061750Y-104992707D01*
X157065524Y-104995474D01*
X157069667Y-104997654D01*
X157069669Y-104997655D01*
X157292684Y-105114989D01*
X157292689Y-105114991D01*
X157296834Y-105117172D01*
X157543590Y-105203344D01*
X157548183Y-105204216D01*
X157795785Y-105251224D01*
X157795788Y-105251224D01*
X157800374Y-105252095D01*
X157930959Y-105257226D01*
X158056875Y-105262174D01*
X158056881Y-105262174D01*
X158061543Y-105262357D01*
X158140977Y-105253657D01*
X158316707Y-105234412D01*
X158316712Y-105234411D01*
X158321360Y-105233902D01*
X158434116Y-105204216D01*
X158569594Y-105168548D01*
X158569596Y-105168547D01*
X158574117Y-105167357D01*
X158814262Y-105064182D01*
X159036519Y-104926646D01*
X159040082Y-104923629D01*
X159040087Y-104923626D01*
X159232439Y-104760787D01*
X159232440Y-104760786D01*
X159236005Y-104757768D01*
X159327729Y-104653177D01*
X159405257Y-104564774D01*
X159405261Y-104564769D01*
X159408339Y-104561259D01*
X159549733Y-104341437D01*
X159657083Y-104103129D01*
X159694275Y-103971256D01*
X159726760Y-103856076D01*
X159726761Y-103856073D01*
X159728030Y-103851572D01*
X159740527Y-103753333D01*
X159768966Y-103688282D01*
X159776425Y-103680140D01*
X163170234Y-100286331D01*
X163176749Y-100280261D01*
X163221392Y-100241521D01*
X163221394Y-100241519D01*
X163225432Y-100238015D01*
X163228815Y-100233889D01*
X163228819Y-100233885D01*
X163293176Y-100155395D01*
X163294300Y-100154043D01*
X163359772Y-100076430D01*
X163359776Y-100076425D01*
X163363208Y-100072356D01*
X163365907Y-100067766D01*
X163368430Y-100064202D01*
X163370916Y-100060584D01*
X163374301Y-100056456D01*
X163377105Y-100051531D01*
X163427151Y-99963612D01*
X163428032Y-99962088D01*
X163479491Y-99874555D01*
X163479493Y-99874551D01*
X163482196Y-99869953D01*
X163484089Y-99864956D01*
X163485979Y-99861011D01*
X163487808Y-99857054D01*
X163490451Y-99852410D01*
X163506338Y-99808643D01*
X163518878Y-99774094D01*
X163560922Y-99716885D01*
X163627221Y-99691489D01*
X163696725Y-99705969D01*
X163740530Y-99744814D01*
X163789860Y-99815265D01*
X163789864Y-99815270D01*
X163793023Y-99819781D01*
X163950219Y-99976977D01*
X163954727Y-99980134D01*
X163954730Y-99980136D01*
X164010872Y-100019447D01*
X164132323Y-100104488D01*
X164137305Y-100106811D01*
X164137310Y-100106814D01*
X164287626Y-100176907D01*
X164333804Y-100198440D01*
X164339112Y-100199862D01*
X164339114Y-100199863D01*
X164378480Y-100210411D01*
X164548537Y-100255978D01*
X164770000Y-100275353D01*
X164991463Y-100255978D01*
X165161520Y-100210411D01*
X165200886Y-100199863D01*
X165200888Y-100199862D01*
X165206196Y-100198440D01*
X165252374Y-100176907D01*
X165402690Y-100106814D01*
X165402695Y-100106811D01*
X165407677Y-100104488D01*
X165529128Y-100019447D01*
X165585270Y-99980136D01*
X165585273Y-99980134D01*
X165589781Y-99976977D01*
X165746977Y-99819781D01*
X165750140Y-99815265D01*
X165871331Y-99642185D01*
X165871332Y-99642183D01*
X165874488Y-99637676D01*
X165876811Y-99632694D01*
X165876814Y-99632689D01*
X165966117Y-99441178D01*
X165966118Y-99441177D01*
X165968440Y-99436196D01*
X165976022Y-99407902D01*
X166008492Y-99286720D01*
X166025978Y-99221463D01*
X166045353Y-99000000D01*
X166025978Y-98778537D01*
X165968440Y-98563804D01*
X165961716Y-98549385D01*
X165876814Y-98367311D01*
X165876811Y-98367306D01*
X165874488Y-98362324D01*
X165857982Y-98338751D01*
X165750136Y-98184730D01*
X165750134Y-98184727D01*
X165746977Y-98180219D01*
X165589781Y-98023023D01*
X165585273Y-98019866D01*
X165585270Y-98019864D01*
X165499879Y-97960073D01*
X165407677Y-97895512D01*
X165402695Y-97893189D01*
X165402690Y-97893186D01*
X165211178Y-97803883D01*
X165211177Y-97803882D01*
X165206196Y-97801560D01*
X165200888Y-97800138D01*
X165200886Y-97800137D01*
X165135051Y-97782497D01*
X164991463Y-97744022D01*
X164770000Y-97724647D01*
X164548537Y-97744022D01*
X164404949Y-97782497D01*
X164339114Y-97800137D01*
X164339112Y-97800138D01*
X164333804Y-97801560D01*
X164328823Y-97803882D01*
X164328822Y-97803883D01*
X164137311Y-97893186D01*
X164137306Y-97893189D01*
X164132324Y-97895512D01*
X164127817Y-97898668D01*
X164127815Y-97898669D01*
X163954730Y-98019864D01*
X163954727Y-98019866D01*
X163950219Y-98023023D01*
X163793023Y-98180219D01*
X163789866Y-98184727D01*
X163789864Y-98184730D01*
X163667649Y-98359272D01*
X163612192Y-98403600D01*
X163541573Y-98410909D01*
X163478212Y-98378878D01*
X163449554Y-98338751D01*
X163445426Y-98329587D01*
X163445424Y-98329583D01*
X163443234Y-98324722D01*
X163440003Y-98319922D01*
X163395850Y-98254340D01*
X163312112Y-98129959D01*
X163304375Y-98121848D01*
X163222591Y-98036117D01*
X163150049Y-97960073D01*
X162961679Y-97819922D01*
X162956928Y-97817506D01*
X162956924Y-97817504D01*
X162757144Y-97715931D01*
X162757143Y-97715931D01*
X162752388Y-97713513D01*
X162528160Y-97643889D01*
X162501132Y-97640307D01*
X162300690Y-97613739D01*
X162300687Y-97613739D01*
X162295407Y-97613039D01*
X162290078Y-97613239D01*
X162290077Y-97613239D01*
X162205362Y-97616420D01*
X162060784Y-97621848D01*
X161975978Y-97639642D01*
X161836226Y-97668965D01*
X161836223Y-97668966D01*
X161830999Y-97670062D01*
X161612623Y-97756302D01*
X161608059Y-97759071D01*
X161608060Y-97759071D01*
X161416461Y-97875336D01*
X161416458Y-97875338D01*
X161411900Y-97878104D01*
X161234568Y-98031985D01*
X161231180Y-98036117D01*
X161089083Y-98209416D01*
X161089079Y-98209422D01*
X161085699Y-98213544D01*
X161083060Y-98218180D01*
X161083058Y-98218183D01*
X160993601Y-98375336D01*
X160969549Y-98417590D01*
X160967728Y-98422606D01*
X160967726Y-98422611D01*
X160890038Y-98636638D01*
X160860694Y-98682742D01*
X158089095Y-101454341D01*
X158026783Y-101488367D01*
X157955968Y-101483302D01*
X157910905Y-101454341D01*
X155410161Y-98953597D01*
X155377297Y-98894765D01*
X155376745Y-98889684D01*
X155325615Y-98753295D01*
X155238261Y-98636739D01*
X155121705Y-98549385D01*
X155051385Y-98523023D01*
X154992717Y-98501029D01*
X154992713Y-98501028D01*
X154985316Y-98498255D01*
X154978095Y-98497470D01*
X154926306Y-98471352D01*
X154917508Y-98463930D01*
X154802356Y-98366791D01*
X154794758Y-98362324D01*
X154695346Y-98303883D01*
X154599953Y-98247804D01*
X154394756Y-98170062D01*
X154385378Y-98166509D01*
X154380392Y-98164620D01*
X154375159Y-98163598D01*
X154155193Y-98120641D01*
X154155187Y-98120640D01*
X154149957Y-98119619D01*
X154144627Y-98119493D01*
X154144623Y-98119493D01*
X154018203Y-98116514D01*
X153915233Y-98114088D01*
X153682934Y-98148184D01*
X153677863Y-98149837D01*
X153677857Y-98149838D01*
X153464781Y-98219276D01*
X153464779Y-98219277D01*
X153459700Y-98220932D01*
X153251916Y-98330254D01*
X153247678Y-98333500D01*
X153086581Y-98456890D01*
X153065520Y-98473021D01*
X153065045Y-98472401D01*
X153016451Y-98498063D01*
X153014684Y-98498255D01*
X152878295Y-98549385D01*
X152761739Y-98636739D01*
X152674385Y-98753295D01*
X152623255Y-98889684D01*
X152616500Y-98951866D01*
X152616500Y-99446200D01*
X152616185Y-99455099D01*
X152611633Y-99519387D01*
X145383500Y-99519387D01*
X145383500Y-99519059D01*
X145383535Y-99516090D01*
X145385182Y-99446200D01*
X145385912Y-99415234D01*
X145384836Y-99407902D01*
X145383500Y-99389605D01*
X145383500Y-98951866D01*
X145376745Y-98889684D01*
X145325615Y-98753295D01*
X145238261Y-98636739D01*
X145121705Y-98549385D01*
X145042958Y-98519864D01*
X144992714Y-98501028D01*
X144992711Y-98501027D01*
X144985316Y-98498255D01*
X144977523Y-98497408D01*
X144921005Y-98467215D01*
X144858758Y-98409473D01*
X144858752Y-98409468D01*
X144854847Y-98405846D01*
X144843859Y-98398669D01*
X144662738Y-98280373D01*
X144662739Y-98280373D01*
X144658272Y-98277456D01*
X144584479Y-98245446D01*
X144447776Y-98186146D01*
X144447771Y-98186144D01*
X144442876Y-98184021D01*
X144331225Y-98156701D01*
X144220000Y-98129484D01*
X144219994Y-98129483D01*
X144214816Y-98128216D01*
X144184932Y-98126100D01*
X143985941Y-98112010D01*
X143985938Y-98112010D01*
X143980613Y-98111633D01*
X143877364Y-98121848D01*
X143752278Y-98134223D01*
X143752274Y-98134224D01*
X143746965Y-98134749D01*
X143520552Y-98196901D01*
X143307848Y-98296312D01*
X143114935Y-98430141D01*
X143096721Y-98446714D01*
X143078596Y-98464839D01*
X143019764Y-98497703D01*
X143014684Y-98498255D01*
X142878295Y-98549385D01*
X142761739Y-98636739D01*
X142674385Y-98753295D01*
X142623255Y-98889684D01*
X142622703Y-98894764D01*
X142589839Y-98953596D01*
X141311285Y-100232151D01*
X140089095Y-101454341D01*
X140026783Y-101488366D01*
X139955968Y-101483302D01*
X139910905Y-101454341D01*
X137204057Y-98747493D01*
X137188632Y-98728765D01*
X137158986Y-98684730D01*
X137122112Y-98629959D01*
X136960049Y-98460073D01*
X136771679Y-98319922D01*
X136766928Y-98317506D01*
X136766924Y-98317504D01*
X136567144Y-98215931D01*
X136567143Y-98215931D01*
X136562388Y-98213513D01*
X136338160Y-98143889D01*
X136266463Y-98134386D01*
X136110690Y-98113739D01*
X136110687Y-98113739D01*
X136105407Y-98113039D01*
X136100078Y-98113239D01*
X136100077Y-98113239D01*
X136015362Y-98116420D01*
X135870784Y-98121848D01*
X135811806Y-98134223D01*
X135646226Y-98168965D01*
X135646223Y-98168966D01*
X135640999Y-98170062D01*
X135422623Y-98256302D01*
X135418059Y-98259071D01*
X135418060Y-98259071D01*
X135226461Y-98375336D01*
X135226458Y-98375338D01*
X135221900Y-98378104D01*
X135044568Y-98531985D01*
X135041180Y-98536117D01*
X134899083Y-98709416D01*
X134899079Y-98709422D01*
X134895699Y-98713544D01*
X134858703Y-98778537D01*
X134816907Y-98851962D01*
X134765825Y-98901268D01*
X134696195Y-98915130D01*
X134630124Y-98889147D01*
X134604192Y-98861901D01*
X134480136Y-98684730D01*
X134480134Y-98684727D01*
X134476977Y-98680219D01*
X134319781Y-98523023D01*
X134315273Y-98519866D01*
X134315270Y-98519864D01*
X134229879Y-98460073D01*
X134137677Y-98395512D01*
X134132695Y-98393189D01*
X134132690Y-98393186D01*
X133941178Y-98303883D01*
X133941177Y-98303882D01*
X133936196Y-98301560D01*
X133930888Y-98300138D01*
X133930886Y-98300137D01*
X133846239Y-98277456D01*
X133721463Y-98244022D01*
X133500000Y-98224647D01*
X133278537Y-98244022D01*
X133153761Y-98277456D01*
X133069114Y-98300137D01*
X133069112Y-98300138D01*
X133063804Y-98301560D01*
X133058823Y-98303882D01*
X133058822Y-98303883D01*
X132867311Y-98393186D01*
X132867306Y-98393189D01*
X132862324Y-98395512D01*
X132857817Y-98398668D01*
X132857815Y-98398669D01*
X132684730Y-98519864D01*
X132684727Y-98519866D01*
X132680219Y-98523023D01*
X132523023Y-98680219D01*
X132519866Y-98684727D01*
X132519864Y-98684730D01*
X132398669Y-98857815D01*
X132395512Y-98862324D01*
X132393189Y-98867306D01*
X132393186Y-98867311D01*
X132352164Y-98955283D01*
X132301560Y-99063804D01*
X132244022Y-99278537D01*
X132224647Y-99500000D01*
X123923009Y-99500000D01*
X123898851Y-99483241D01*
X123898848Y-99483239D01*
X123895009Y-99480576D01*
X123890816Y-99478508D01*
X123664781Y-99367040D01*
X123664778Y-99367039D01*
X123660593Y-99364975D01*
X123614449Y-99350204D01*
X123416123Y-99286720D01*
X123411665Y-99285293D01*
X123153693Y-99243279D01*
X123039942Y-99241790D01*
X122897022Y-99239919D01*
X122897019Y-99239919D01*
X122892345Y-99239858D01*
X122633362Y-99275104D01*
X122628876Y-99276412D01*
X122628874Y-99276412D01*
X122602786Y-99284016D01*
X122382433Y-99348243D01*
X122378180Y-99350203D01*
X122378179Y-99350204D01*
X122341659Y-99367040D01*
X122145072Y-99457668D01*
X122106067Y-99483241D01*
X121930404Y-99598410D01*
X121930399Y-99598414D01*
X121926491Y-99600976D01*
X121731494Y-99775018D01*
X121564363Y-99975970D01*
X121561934Y-99979973D01*
X121442432Y-100176907D01*
X121428771Y-100199419D01*
X121327697Y-100440455D01*
X121263359Y-100693783D01*
X121237173Y-100953839D01*
X114760001Y-100953839D01*
X114746701Y-100774874D01*
X114744407Y-100744000D01*
X114744406Y-100743996D01*
X114744061Y-100739348D01*
X114735127Y-100699863D01*
X114691138Y-100505462D01*
X114686377Y-100484423D01*
X114684684Y-100480069D01*
X114593340Y-100245176D01*
X114593339Y-100245173D01*
X114591647Y-100240823D01*
X114589198Y-100236537D01*
X114532694Y-100137676D01*
X114461951Y-100013902D01*
X114300138Y-99808643D01*
X114109763Y-99629557D01*
X113930901Y-99505475D01*
X113898851Y-99483241D01*
X113898848Y-99483239D01*
X113895009Y-99480576D01*
X113890816Y-99478508D01*
X113664781Y-99367040D01*
X113664778Y-99367039D01*
X113660593Y-99364975D01*
X113614449Y-99350204D01*
X113416123Y-99286720D01*
X113411665Y-99285293D01*
X113153693Y-99243279D01*
X113039942Y-99241790D01*
X112897022Y-99239919D01*
X112897019Y-99239919D01*
X112892345Y-99239858D01*
X112633362Y-99275104D01*
X112628876Y-99276412D01*
X112628874Y-99276412D01*
X112602786Y-99284016D01*
X112382433Y-99348243D01*
X112378180Y-99350203D01*
X112378179Y-99350204D01*
X112341659Y-99367040D01*
X112145072Y-99457668D01*
X112106067Y-99483241D01*
X111930404Y-99598410D01*
X111930399Y-99598414D01*
X111926491Y-99600976D01*
X111731494Y-99775018D01*
X111564363Y-99975970D01*
X111561934Y-99979973D01*
X111442432Y-100176907D01*
X111428771Y-100199419D01*
X111327697Y-100440455D01*
X111263359Y-100693783D01*
X111237173Y-100953839D01*
X99508000Y-100953839D01*
X99508000Y-97409133D01*
X103455612Y-97409133D01*
X103464325Y-97420653D01*
X103562018Y-97492284D01*
X103569928Y-97497227D01*
X103792890Y-97614533D01*
X103801453Y-97618256D01*
X104039304Y-97701318D01*
X104048313Y-97703732D01*
X104295842Y-97750727D01*
X104305098Y-97751781D01*
X104556857Y-97761673D01*
X104566171Y-97761347D01*
X104816615Y-97733920D01*
X104825792Y-97732219D01*
X105069431Y-97668074D01*
X105078251Y-97665037D01*
X105309736Y-97565583D01*
X105318008Y-97561276D01*
X105532249Y-97428700D01*
X105539188Y-97423658D01*
X105547518Y-97411019D01*
X105541456Y-97400666D01*
X104512812Y-96372022D01*
X104498868Y-96364408D01*
X104497035Y-96364539D01*
X104490420Y-96368790D01*
X103462270Y-97396940D01*
X103455612Y-97409133D01*
X99508000Y-97409133D01*
X99508000Y-95958523D01*
X102737898Y-95958523D01*
X102749987Y-96210175D01*
X102751124Y-96219435D01*
X102800274Y-96466535D01*
X102802768Y-96475528D01*
X102887900Y-96712639D01*
X102891700Y-96721174D01*
X103010946Y-96943101D01*
X103015957Y-96950968D01*
X103079446Y-97035990D01*
X103090704Y-97044439D01*
X103103123Y-97037667D01*
X104127978Y-96012812D01*
X104134356Y-96001132D01*
X104864408Y-96001132D01*
X104864539Y-96002965D01*
X104868790Y-96009580D01*
X105899913Y-97040703D01*
X105912293Y-97047463D01*
X105920634Y-97041219D01*
X106046765Y-96845127D01*
X106051212Y-96836936D01*
X106154691Y-96607222D01*
X106157882Y-96598455D01*
X106226269Y-96355976D01*
X106228129Y-96346834D01*
X106260116Y-96095396D01*
X106260597Y-96089108D01*
X106262847Y-96003160D01*
X106262696Y-95996851D01*
X106243912Y-95744074D01*
X106242536Y-95734868D01*
X106186929Y-95489126D01*
X106184205Y-95480215D01*
X106092888Y-95245392D01*
X106088877Y-95236983D01*
X105963854Y-95018240D01*
X105958643Y-95010514D01*
X105921391Y-94963261D01*
X105909466Y-94954790D01*
X105897934Y-94961276D01*
X104872022Y-95987188D01*
X104864408Y-96001132D01*
X104134356Y-96001132D01*
X104135592Y-95998868D01*
X104135461Y-95997035D01*
X104131210Y-95990420D01*
X103101321Y-94960531D01*
X103088013Y-94953264D01*
X103077974Y-94960386D01*
X103067761Y-94972666D01*
X103062346Y-94980258D01*
X102931646Y-95195646D01*
X102927408Y-95203963D01*
X102829981Y-95436299D01*
X102827020Y-95445149D01*
X102765006Y-95689331D01*
X102763384Y-95698528D01*
X102738143Y-95949198D01*
X102737898Y-95958523D01*
X99508000Y-95958523D01*
X99508000Y-94588803D01*
X103453216Y-94588803D01*
X103457789Y-94598579D01*
X104487188Y-95627978D01*
X104501132Y-95635592D01*
X104502965Y-95635461D01*
X104509580Y-95631210D01*
X105538419Y-94602371D01*
X105544803Y-94590681D01*
X105535391Y-94578570D01*
X105398593Y-94483670D01*
X105390565Y-94478942D01*
X105164593Y-94367505D01*
X105155960Y-94364017D01*
X104915998Y-94287205D01*
X104906938Y-94285029D01*
X104658260Y-94244529D01*
X104648973Y-94243717D01*
X104397053Y-94240419D01*
X104387742Y-94240989D01*
X104138097Y-94274964D01*
X104128978Y-94276902D01*
X103887098Y-94347404D01*
X103878367Y-94350667D01*
X103649558Y-94456151D01*
X103641406Y-94460670D01*
X103462353Y-94578062D01*
X103453216Y-94588803D01*
X99508000Y-94588803D01*
X99508000Y-90953839D01*
X111237173Y-90953839D01*
X111237397Y-90958505D01*
X111237397Y-90958511D01*
X111241950Y-91053286D01*
X111249713Y-91214908D01*
X111300704Y-91471256D01*
X111389026Y-91717252D01*
X111391242Y-91721376D01*
X111501537Y-91926646D01*
X111512737Y-91947491D01*
X111515532Y-91951234D01*
X111515534Y-91951237D01*
X111666330Y-92153177D01*
X111666335Y-92153183D01*
X111669122Y-92156915D01*
X111672431Y-92160195D01*
X111672436Y-92160201D01*
X111775488Y-92262357D01*
X111854743Y-92340923D01*
X111858505Y-92343681D01*
X111858508Y-92343684D01*
X112061750Y-92492707D01*
X112065524Y-92495474D01*
X112069667Y-92497654D01*
X112069669Y-92497655D01*
X112292684Y-92614989D01*
X112292689Y-92614991D01*
X112296834Y-92617172D01*
X112543590Y-92703344D01*
X112548183Y-92704216D01*
X112795785Y-92751224D01*
X112795788Y-92751224D01*
X112800374Y-92752095D01*
X112930959Y-92757226D01*
X113056875Y-92762174D01*
X113056881Y-92762174D01*
X113061543Y-92762357D01*
X113140977Y-92753657D01*
X113316707Y-92734412D01*
X113316712Y-92734411D01*
X113321360Y-92733902D01*
X113434116Y-92704216D01*
X113569594Y-92668548D01*
X113569596Y-92668547D01*
X113574117Y-92667357D01*
X113814262Y-92564182D01*
X114036519Y-92426646D01*
X114040082Y-92423629D01*
X114040087Y-92423626D01*
X114232439Y-92260787D01*
X114232440Y-92260786D01*
X114236005Y-92257768D01*
X114314249Y-92168548D01*
X114405257Y-92064774D01*
X114405261Y-92064769D01*
X114408339Y-92061259D01*
X114449251Y-91997655D01*
X114508827Y-91905033D01*
X114549733Y-91841437D01*
X114657083Y-91603129D01*
X114717801Y-91387841D01*
X114726760Y-91356076D01*
X114726761Y-91356073D01*
X114728030Y-91351572D01*
X114745350Y-91215426D01*
X114760616Y-91095421D01*
X114760616Y-91095417D01*
X114761014Y-91092291D01*
X114761457Y-91075403D01*
X114763348Y-91003160D01*
X114763431Y-91000000D01*
X114760001Y-90953839D01*
X121237173Y-90953839D01*
X121237397Y-90958505D01*
X121237397Y-90958511D01*
X121241950Y-91053286D01*
X121249713Y-91214908D01*
X121300704Y-91471256D01*
X121389026Y-91717252D01*
X121391242Y-91721376D01*
X121501537Y-91926646D01*
X121512737Y-91947491D01*
X121515532Y-91951234D01*
X121515534Y-91951237D01*
X121666330Y-92153177D01*
X121666335Y-92153183D01*
X121669122Y-92156915D01*
X121672431Y-92160195D01*
X121672436Y-92160201D01*
X121775488Y-92262357D01*
X121854743Y-92340923D01*
X121858505Y-92343681D01*
X121858508Y-92343684D01*
X122061750Y-92492707D01*
X122065524Y-92495474D01*
X122069667Y-92497654D01*
X122069669Y-92497655D01*
X122292684Y-92614989D01*
X122292689Y-92614991D01*
X122296834Y-92617172D01*
X122543590Y-92703344D01*
X122548183Y-92704216D01*
X122795785Y-92751224D01*
X122795788Y-92751224D01*
X122800374Y-92752095D01*
X122930959Y-92757226D01*
X123056875Y-92762174D01*
X123056881Y-92762174D01*
X123061543Y-92762357D01*
X123140977Y-92753657D01*
X123316707Y-92734412D01*
X123316712Y-92734411D01*
X123321360Y-92733902D01*
X123434116Y-92704216D01*
X123569594Y-92668548D01*
X123569596Y-92668547D01*
X123574117Y-92667357D01*
X123814262Y-92564182D01*
X124036519Y-92426646D01*
X124040082Y-92423629D01*
X124040087Y-92423626D01*
X124232439Y-92260787D01*
X124232440Y-92260786D01*
X124236005Y-92257768D01*
X124314249Y-92168548D01*
X124405257Y-92064774D01*
X124405261Y-92064769D01*
X124408339Y-92061259D01*
X124449251Y-91997655D01*
X124508827Y-91905033D01*
X124549733Y-91841437D01*
X124657083Y-91603129D01*
X124717801Y-91387841D01*
X124726760Y-91356076D01*
X124726761Y-91356073D01*
X124728030Y-91351572D01*
X124745350Y-91215426D01*
X124760616Y-91095421D01*
X124760616Y-91095417D01*
X124761014Y-91092291D01*
X124761457Y-91075403D01*
X124763348Y-91003160D01*
X124763431Y-91000000D01*
X124756016Y-90900221D01*
X124744407Y-90744000D01*
X124744406Y-90743996D01*
X124744061Y-90739348D01*
X124732725Y-90689248D01*
X124687408Y-90488980D01*
X124686377Y-90484423D01*
X124591647Y-90240823D01*
X124461951Y-90013902D01*
X124300138Y-89808643D01*
X124109763Y-89629557D01*
X123937761Y-89510234D01*
X123898851Y-89483241D01*
X123898848Y-89483239D01*
X123895009Y-89480576D01*
X123888999Y-89477612D01*
X123664781Y-89367040D01*
X123664778Y-89367039D01*
X123660593Y-89364975D01*
X123638007Y-89357745D01*
X123416123Y-89286720D01*
X123411665Y-89285293D01*
X123153693Y-89243279D01*
X123039942Y-89241790D01*
X122897022Y-89239919D01*
X122897019Y-89239919D01*
X122892345Y-89239858D01*
X122633362Y-89275104D01*
X122382433Y-89348243D01*
X122378180Y-89350203D01*
X122378179Y-89350204D01*
X122341659Y-89367040D01*
X122145072Y-89457668D01*
X122106067Y-89483241D01*
X121930404Y-89598410D01*
X121930399Y-89598414D01*
X121926491Y-89600976D01*
X121731494Y-89775018D01*
X121564363Y-89975970D01*
X121561934Y-89979973D01*
X121447099Y-90169216D01*
X121428771Y-90199419D01*
X121327697Y-90440455D01*
X121263359Y-90693783D01*
X121262891Y-90698434D01*
X121262890Y-90698438D01*
X121257127Y-90755671D01*
X121237173Y-90953839D01*
X114760001Y-90953839D01*
X114756016Y-90900221D01*
X114744407Y-90744000D01*
X114744406Y-90743996D01*
X114744061Y-90739348D01*
X114732725Y-90689248D01*
X114687408Y-90488980D01*
X114686377Y-90484423D01*
X114591647Y-90240823D01*
X114461951Y-90013902D01*
X114300138Y-89808643D01*
X114109763Y-89629557D01*
X113937761Y-89510234D01*
X113898851Y-89483241D01*
X113898848Y-89483239D01*
X113895009Y-89480576D01*
X113888999Y-89477612D01*
X113664781Y-89367040D01*
X113664778Y-89367039D01*
X113660593Y-89364975D01*
X113638007Y-89357745D01*
X113416123Y-89286720D01*
X113411665Y-89285293D01*
X113153693Y-89243279D01*
X113039942Y-89241790D01*
X112897022Y-89239919D01*
X112897019Y-89239919D01*
X112892345Y-89239858D01*
X112633362Y-89275104D01*
X112382433Y-89348243D01*
X112378180Y-89350203D01*
X112378179Y-89350204D01*
X112341659Y-89367040D01*
X112145072Y-89457668D01*
X112106067Y-89483241D01*
X111930404Y-89598410D01*
X111930399Y-89598414D01*
X111926491Y-89600976D01*
X111731494Y-89775018D01*
X111564363Y-89975970D01*
X111561934Y-89979973D01*
X111447099Y-90169216D01*
X111428771Y-90199419D01*
X111327697Y-90440455D01*
X111263359Y-90693783D01*
X111262891Y-90698434D01*
X111262890Y-90698438D01*
X111257127Y-90755671D01*
X111237173Y-90953839D01*
X99508000Y-90953839D01*
X99508000Y-85500000D01*
X141000000Y-85500000D01*
X141000000Y-96500000D01*
X157000000Y-96500000D01*
X157000000Y-92584767D01*
X167614088Y-92584767D01*
X167648184Y-92817066D01*
X167649837Y-92822137D01*
X167649838Y-92822143D01*
X167719276Y-93035219D01*
X167720932Y-93040300D01*
X167830254Y-93248084D01*
X167973021Y-93434480D01*
X167976931Y-93438107D01*
X168118964Y-93569860D01*
X168145153Y-93594154D01*
X168149608Y-93597064D01*
X168149611Y-93597066D01*
X168210354Y-93636739D01*
X168341728Y-93722544D01*
X168409007Y-93751728D01*
X168552224Y-93813854D01*
X168552229Y-93813856D01*
X168557124Y-93815979D01*
X168668775Y-93843299D01*
X168780000Y-93870516D01*
X168780006Y-93870517D01*
X168785184Y-93871784D01*
X168790508Y-93872161D01*
X169014059Y-93887990D01*
X169014062Y-93887990D01*
X169019387Y-93888367D01*
X169136211Y-93876809D01*
X169247722Y-93865777D01*
X169247726Y-93865776D01*
X169253035Y-93865251D01*
X169479447Y-93803100D01*
X169484276Y-93800843D01*
X169484279Y-93800842D01*
X169618621Y-93738054D01*
X169692151Y-93703688D01*
X169885064Y-93569860D01*
X169894206Y-93561542D01*
X169902173Y-93554293D01*
X169902187Y-93554279D01*
X169903279Y-93553286D01*
X169911896Y-93544669D01*
X179992001Y-93544669D01*
X179992371Y-93551490D01*
X179997895Y-93602352D01*
X180001521Y-93617604D01*
X180046676Y-93738054D01*
X180055214Y-93753649D01*
X180131715Y-93855724D01*
X180144276Y-93868285D01*
X180246351Y-93944786D01*
X180261946Y-93953324D01*
X180382394Y-93998478D01*
X180397649Y-94002105D01*
X180448514Y-94007631D01*
X180455328Y-94008000D01*
X182227885Y-94008000D01*
X182243124Y-94003525D01*
X182244329Y-94002135D01*
X182246000Y-93994452D01*
X182246000Y-93989884D01*
X182754000Y-93989884D01*
X182758475Y-94005123D01*
X182759865Y-94006328D01*
X182767548Y-94007999D01*
X184544669Y-94007999D01*
X184551490Y-94007629D01*
X184602352Y-94002105D01*
X184617604Y-93998479D01*
X184738054Y-93953324D01*
X184753649Y-93944786D01*
X184855724Y-93868285D01*
X184868285Y-93855724D01*
X184944786Y-93753649D01*
X184953324Y-93738054D01*
X184998478Y-93617606D01*
X185002105Y-93602351D01*
X185007631Y-93551486D01*
X185008000Y-93544672D01*
X185008000Y-90772115D01*
X185003525Y-90756876D01*
X185002135Y-90755671D01*
X184994452Y-90754000D01*
X182772115Y-90754000D01*
X182756876Y-90758475D01*
X182755671Y-90759865D01*
X182754000Y-90767548D01*
X182754000Y-93989884D01*
X182246000Y-93989884D01*
X182246000Y-90772115D01*
X182241525Y-90756876D01*
X182240135Y-90755671D01*
X182232452Y-90754000D01*
X180010116Y-90754000D01*
X179994877Y-90758475D01*
X179993672Y-90759865D01*
X179992001Y-90767548D01*
X179992001Y-93544669D01*
X169911896Y-93544669D01*
X171536159Y-91920405D01*
X171598471Y-91886380D01*
X171625254Y-91883500D01*
X175871567Y-91883500D01*
X175939688Y-91903502D01*
X175946072Y-91907888D01*
X176000084Y-91947491D01*
X176065524Y-91995474D01*
X176069667Y-91997654D01*
X176069669Y-91997655D01*
X176292684Y-92114989D01*
X176292689Y-92114991D01*
X176296834Y-92117172D01*
X176543590Y-92203344D01*
X176548183Y-92204216D01*
X176795785Y-92251224D01*
X176795788Y-92251224D01*
X176800374Y-92252095D01*
X176930958Y-92257226D01*
X177056875Y-92262174D01*
X177056881Y-92262174D01*
X177061543Y-92262357D01*
X177140977Y-92253657D01*
X177316707Y-92234412D01*
X177316712Y-92234411D01*
X177321360Y-92233902D01*
X177434116Y-92204216D01*
X177569594Y-92168548D01*
X177569596Y-92168547D01*
X177574117Y-92167357D01*
X177598422Y-92156915D01*
X177809972Y-92066025D01*
X177814262Y-92064182D01*
X178036519Y-91926646D01*
X178040082Y-91923629D01*
X178040087Y-91923626D01*
X178232439Y-91760787D01*
X178232440Y-91760786D01*
X178236005Y-91757768D01*
X178284693Y-91702250D01*
X178405257Y-91564774D01*
X178405261Y-91564769D01*
X178408339Y-91561259D01*
X178441632Y-91509500D01*
X178492438Y-91430513D01*
X178549733Y-91341437D01*
X178657083Y-91103129D01*
X178671441Y-91052219D01*
X178726760Y-90856076D01*
X178726761Y-90856073D01*
X178728030Y-90851572D01*
X178740230Y-90755671D01*
X178760616Y-90595421D01*
X178760616Y-90595417D01*
X178761014Y-90592291D01*
X178762036Y-90553286D01*
X178763348Y-90503160D01*
X178763431Y-90500000D01*
X178758686Y-90436146D01*
X178744407Y-90244000D01*
X178744406Y-90243996D01*
X178744061Y-90239348D01*
X178741468Y-90227885D01*
X179992000Y-90227885D01*
X179996475Y-90243124D01*
X179997865Y-90244329D01*
X180005548Y-90246000D01*
X182227885Y-90246000D01*
X182243124Y-90241525D01*
X182244329Y-90240135D01*
X182246000Y-90232452D01*
X182246000Y-90227885D01*
X182754000Y-90227885D01*
X182758475Y-90243124D01*
X182759865Y-90244329D01*
X182767548Y-90246000D01*
X184989884Y-90246000D01*
X185005123Y-90241525D01*
X185006328Y-90240135D01*
X185007999Y-90232452D01*
X185007999Y-87455331D01*
X185007629Y-87448510D01*
X185002105Y-87397648D01*
X184998479Y-87382396D01*
X184953324Y-87261946D01*
X184944786Y-87246351D01*
X184868285Y-87144276D01*
X184855724Y-87131715D01*
X184753649Y-87055214D01*
X184738054Y-87046676D01*
X184617606Y-87001522D01*
X184602351Y-86997895D01*
X184551486Y-86992369D01*
X184544672Y-86992000D01*
X182772115Y-86992000D01*
X182756876Y-86996475D01*
X182755671Y-86997865D01*
X182754000Y-87005548D01*
X182754000Y-90227885D01*
X182246000Y-90227885D01*
X182246000Y-87010116D01*
X182241525Y-86994877D01*
X182240135Y-86993672D01*
X182232452Y-86992001D01*
X180455331Y-86992001D01*
X180448510Y-86992371D01*
X180397648Y-86997895D01*
X180382396Y-87001521D01*
X180261946Y-87046676D01*
X180246351Y-87055214D01*
X180144276Y-87131715D01*
X180131715Y-87144276D01*
X180055214Y-87246351D01*
X180046676Y-87261946D01*
X180001522Y-87382394D01*
X179997895Y-87397649D01*
X179992369Y-87448514D01*
X179992000Y-87455328D01*
X179992000Y-90227885D01*
X178741468Y-90227885D01*
X178687408Y-89988980D01*
X178686377Y-89984423D01*
X178681691Y-89972373D01*
X178593340Y-89745176D01*
X178593339Y-89745173D01*
X178591647Y-89740823D01*
X178461951Y-89513902D01*
X178300138Y-89308643D01*
X178109763Y-89129557D01*
X177895009Y-88980576D01*
X177890816Y-88978508D01*
X177664781Y-88867040D01*
X177664778Y-88867039D01*
X177660593Y-88864975D01*
X177614449Y-88850204D01*
X177416123Y-88786720D01*
X177411665Y-88785293D01*
X177153693Y-88743279D01*
X177039942Y-88741790D01*
X176897022Y-88739919D01*
X176897019Y-88739919D01*
X176892345Y-88739858D01*
X176633362Y-88775104D01*
X176382433Y-88848243D01*
X176378180Y-88850203D01*
X176378179Y-88850204D01*
X176341659Y-88867040D01*
X176145072Y-88957668D01*
X175934276Y-89095872D01*
X175865191Y-89116500D01*
X171053800Y-89116500D01*
X171044901Y-89116185D01*
X170985941Y-89112010D01*
X170985938Y-89112010D01*
X170980613Y-89111633D01*
X170922902Y-89117343D01*
X170874267Y-89122154D01*
X170872516Y-89122315D01*
X170811464Y-89127496D01*
X170766052Y-89131349D01*
X170760885Y-89132690D01*
X170756598Y-89133423D01*
X170752280Y-89134223D01*
X170746965Y-89134749D01*
X170643868Y-89163050D01*
X170642280Y-89163474D01*
X170538794Y-89190333D01*
X170533921Y-89192528D01*
X170529828Y-89193969D01*
X170525702Y-89195487D01*
X170520553Y-89196901D01*
X170428510Y-89239919D01*
X170423790Y-89242125D01*
X170422214Y-89242849D01*
X170419590Y-89244031D01*
X170329664Y-89284540D01*
X170324722Y-89286766D01*
X170320291Y-89289749D01*
X170316374Y-89291929D01*
X170312679Y-89294054D01*
X170307848Y-89296312D01*
X170303466Y-89299352D01*
X170303464Y-89299353D01*
X170290073Y-89308643D01*
X170219998Y-89357255D01*
X170218579Y-89358225D01*
X170134390Y-89414904D01*
X170134383Y-89414909D01*
X170129959Y-89417888D01*
X170126100Y-89421570D01*
X170122083Y-89424799D01*
X170121588Y-89425172D01*
X170121598Y-89425185D01*
X170118344Y-89427776D01*
X170114936Y-89430140D01*
X170111868Y-89432932D01*
X170111865Y-89432934D01*
X170097827Y-89445707D01*
X170097813Y-89445721D01*
X170096721Y-89446714D01*
X170035229Y-89508206D01*
X170033106Y-89510281D01*
X169960073Y-89579951D01*
X169956890Y-89584230D01*
X169955649Y-89585898D01*
X169943651Y-89599785D01*
X167980034Y-91563402D01*
X167866791Y-91697644D01*
X167864085Y-91702248D01*
X167864083Y-91702250D01*
X167833510Y-91754257D01*
X167747804Y-91900047D01*
X167664620Y-92119608D01*
X167663598Y-92124840D01*
X167663598Y-92124841D01*
X167620641Y-92344807D01*
X167620640Y-92344813D01*
X167619619Y-92350043D01*
X167614088Y-92584767D01*
X157000000Y-92584767D01*
X157000000Y-91509500D01*
X157020002Y-91441379D01*
X157073658Y-91394886D01*
X157126000Y-91383500D01*
X161946200Y-91383500D01*
X161955099Y-91383815D01*
X162014059Y-91387990D01*
X162014062Y-91387990D01*
X162019387Y-91388367D01*
X162080306Y-91382340D01*
X162125733Y-91377846D01*
X162127484Y-91377685D01*
X162188536Y-91372504D01*
X162233948Y-91368651D01*
X162239115Y-91367310D01*
X162243402Y-91366577D01*
X162247722Y-91365777D01*
X162253035Y-91365251D01*
X162258179Y-91363839D01*
X162258184Y-91363838D01*
X162356090Y-91336962D01*
X162357790Y-91336508D01*
X162390259Y-91328081D01*
X162461206Y-91309667D01*
X162466067Y-91307477D01*
X162470095Y-91306059D01*
X162474293Y-91304515D01*
X162479447Y-91303100D01*
X162484282Y-91300840D01*
X162484288Y-91300838D01*
X162576258Y-91257854D01*
X162577856Y-91257120D01*
X162623475Y-91236570D01*
X162675278Y-91213234D01*
X162679709Y-91210251D01*
X162683550Y-91208113D01*
X162687316Y-91205948D01*
X162692151Y-91203688D01*
X162696532Y-91200649D01*
X162696542Y-91200643D01*
X162780017Y-91142734D01*
X162781469Y-91141742D01*
X162865614Y-91085093D01*
X162865618Y-91085089D01*
X162870041Y-91082112D01*
X162873898Y-91078433D01*
X162877920Y-91075199D01*
X162878412Y-91074828D01*
X162878402Y-91074815D01*
X162881656Y-91072224D01*
X162885064Y-91069860D01*
X162888135Y-91067066D01*
X162902173Y-91054293D01*
X162902187Y-91054279D01*
X162903279Y-91053286D01*
X162964770Y-90991795D01*
X162966893Y-90989720D01*
X163004506Y-90953839D01*
X163039927Y-90920049D01*
X163044351Y-90914103D01*
X163056344Y-90900221D01*
X163403270Y-90553294D01*
X163403279Y-90553286D01*
X165036160Y-88920404D01*
X165098471Y-88886380D01*
X165125254Y-88883500D01*
X168946200Y-88883500D01*
X168955099Y-88883815D01*
X169014059Y-88887990D01*
X169014062Y-88887990D01*
X169019387Y-88888367D01*
X169077098Y-88882657D01*
X169125733Y-88877846D01*
X169127484Y-88877685D01*
X169188536Y-88872504D01*
X169233948Y-88868651D01*
X169239115Y-88867310D01*
X169243402Y-88866577D01*
X169247722Y-88865777D01*
X169253035Y-88865251D01*
X169258179Y-88863839D01*
X169258184Y-88863838D01*
X169356090Y-88836962D01*
X169357790Y-88836508D01*
X169390259Y-88828081D01*
X169461206Y-88809667D01*
X169466067Y-88807477D01*
X169470095Y-88806059D01*
X169474293Y-88804515D01*
X169479447Y-88803100D01*
X169484282Y-88800840D01*
X169484288Y-88800838D01*
X169576258Y-88757854D01*
X169577856Y-88757120D01*
X169623475Y-88736570D01*
X169675278Y-88713234D01*
X169679709Y-88710251D01*
X169683550Y-88708113D01*
X169687316Y-88705948D01*
X169692151Y-88703688D01*
X169696532Y-88700649D01*
X169696542Y-88700643D01*
X169780017Y-88642734D01*
X169781469Y-88641742D01*
X169865614Y-88585093D01*
X169865618Y-88585089D01*
X169870041Y-88582112D01*
X169873898Y-88578433D01*
X169877920Y-88575199D01*
X169878412Y-88574828D01*
X169878402Y-88574815D01*
X169881656Y-88572224D01*
X169885064Y-88569860D01*
X169903279Y-88553286D01*
X169964814Y-88491750D01*
X169966938Y-88489676D01*
X170036063Y-88423735D01*
X170039927Y-88420049D01*
X170043110Y-88415770D01*
X170043116Y-88415764D01*
X170044355Y-88414098D01*
X170056349Y-88400216D01*
X172670234Y-85786330D01*
X172676749Y-85780260D01*
X172721394Y-85741519D01*
X172725432Y-85738015D01*
X172793240Y-85655317D01*
X172794268Y-85654081D01*
X172863209Y-85572356D01*
X172865912Y-85567758D01*
X172868420Y-85564215D01*
X172870914Y-85560586D01*
X172874301Y-85556456D01*
X172927172Y-85463574D01*
X172927986Y-85462166D01*
X172982196Y-85369953D01*
X172984089Y-85364955D01*
X172985980Y-85361009D01*
X172987809Y-85357051D01*
X172990451Y-85352410D01*
X172992270Y-85347398D01*
X172992274Y-85347390D01*
X173026932Y-85251908D01*
X173027544Y-85250259D01*
X173063488Y-85155386D01*
X173065380Y-85150392D01*
X173066404Y-85145148D01*
X173067606Y-85140928D01*
X173068738Y-85136734D01*
X173070561Y-85131711D01*
X173089575Y-85026564D01*
X173089900Y-85024835D01*
X173109359Y-84925192D01*
X173109359Y-84925188D01*
X173110381Y-84919957D01*
X173110507Y-84914623D01*
X173111063Y-84909500D01*
X173111162Y-84908885D01*
X173111133Y-84908882D01*
X173111602Y-84904752D01*
X173112340Y-84900670D01*
X173113500Y-84876071D01*
X173113500Y-84789076D01*
X173113535Y-84786108D01*
X173115786Y-84690570D01*
X173115912Y-84685233D01*
X173114836Y-84677901D01*
X173113500Y-84659604D01*
X173113500Y-81558777D01*
X173575777Y-81558777D01*
X173585074Y-81570793D01*
X173628069Y-81600898D01*
X173637555Y-81606376D01*
X173828993Y-81695645D01*
X173839285Y-81699391D01*
X174043309Y-81754059D01*
X174054104Y-81755962D01*
X174264525Y-81774372D01*
X174275475Y-81774372D01*
X174485896Y-81755962D01*
X174496691Y-81754059D01*
X174700715Y-81699391D01*
X174711007Y-81695645D01*
X174902445Y-81606376D01*
X174911931Y-81600898D01*
X174955764Y-81570207D01*
X174964139Y-81559729D01*
X174957071Y-81546281D01*
X174282812Y-80872022D01*
X174268868Y-80864408D01*
X174267035Y-80864539D01*
X174260420Y-80868790D01*
X173582207Y-81547003D01*
X173575777Y-81558777D01*
X173113500Y-81558777D01*
X173113500Y-81321122D01*
X173133502Y-81253001D01*
X173180876Y-81209591D01*
X173223718Y-81187072D01*
X173897978Y-80512812D01*
X173904356Y-80501132D01*
X174634408Y-80501132D01*
X174634539Y-80502965D01*
X174638790Y-80509580D01*
X175317003Y-81187793D01*
X175328777Y-81194223D01*
X175340793Y-81184926D01*
X175370897Y-81141932D01*
X175376377Y-81132441D01*
X175465645Y-80941007D01*
X175469391Y-80930715D01*
X175524059Y-80726691D01*
X175525962Y-80715896D01*
X175544372Y-80505475D01*
X175544372Y-80494525D01*
X175525962Y-80284104D01*
X175524059Y-80273309D01*
X175469391Y-80069285D01*
X175465645Y-80058993D01*
X175376377Y-79867559D01*
X175370897Y-79858068D01*
X175340206Y-79814235D01*
X175329729Y-79805860D01*
X175316282Y-79812928D01*
X174642022Y-80487188D01*
X174634408Y-80501132D01*
X173904356Y-80501132D01*
X173905592Y-80498868D01*
X173905461Y-80497035D01*
X173901210Y-80490420D01*
X173222997Y-79812207D01*
X173211223Y-79805777D01*
X173199208Y-79815073D01*
X173167889Y-79859802D01*
X173112432Y-79904131D01*
X173041813Y-79911440D01*
X172978452Y-79879410D01*
X172949792Y-79839281D01*
X172945423Y-79829581D01*
X172945422Y-79829579D01*
X172943234Y-79824722D01*
X172930480Y-79805777D01*
X172871508Y-79718183D01*
X172812112Y-79629959D01*
X172650049Y-79460073D01*
X172640539Y-79452997D01*
X172623435Y-79440271D01*
X173575860Y-79440271D01*
X173582928Y-79453718D01*
X174257188Y-80127978D01*
X174271132Y-80135592D01*
X174272965Y-80135461D01*
X174279580Y-80131210D01*
X174957793Y-79452997D01*
X174964223Y-79441223D01*
X174954926Y-79429207D01*
X174911931Y-79399102D01*
X174902445Y-79393624D01*
X174711007Y-79304355D01*
X174700715Y-79300609D01*
X174496691Y-79245941D01*
X174485896Y-79244038D01*
X174275475Y-79225628D01*
X174264525Y-79225628D01*
X174054104Y-79244038D01*
X174043309Y-79245941D01*
X173839285Y-79300609D01*
X173828993Y-79304355D01*
X173637559Y-79393623D01*
X173628068Y-79399103D01*
X173584235Y-79429794D01*
X173575860Y-79440271D01*
X172623435Y-79440271D01*
X172544584Y-79381605D01*
X172461679Y-79319922D01*
X172456928Y-79317506D01*
X172456924Y-79317504D01*
X172257144Y-79215931D01*
X172257143Y-79215931D01*
X172252388Y-79213513D01*
X172028160Y-79143889D01*
X172001132Y-79140307D01*
X171800690Y-79113739D01*
X171800687Y-79113739D01*
X171795407Y-79113039D01*
X171790078Y-79113239D01*
X171790077Y-79113239D01*
X171705362Y-79116420D01*
X171560784Y-79121848D01*
X171475978Y-79139642D01*
X171336226Y-79168965D01*
X171336223Y-79168966D01*
X171330999Y-79170062D01*
X171112623Y-79256302D01*
X171108059Y-79259071D01*
X171108060Y-79259071D01*
X170916461Y-79375336D01*
X170916458Y-79375338D01*
X170911900Y-79378104D01*
X170734568Y-79531985D01*
X170731180Y-79536117D01*
X170589083Y-79709416D01*
X170589079Y-79709422D01*
X170585699Y-79713544D01*
X170583060Y-79718180D01*
X170583058Y-79718183D01*
X170522413Y-79824722D01*
X170469549Y-79917590D01*
X170389439Y-80138289D01*
X170388490Y-80143538D01*
X170388489Y-80143541D01*
X170380028Y-80190333D01*
X170347660Y-80369330D01*
X170346500Y-80393929D01*
X170346500Y-84144745D01*
X170326498Y-84212866D01*
X170309595Y-84233840D01*
X168463841Y-86079595D01*
X168401529Y-86113620D01*
X168374746Y-86116500D01*
X164553800Y-86116500D01*
X164544901Y-86116185D01*
X164485941Y-86112010D01*
X164485938Y-86112010D01*
X164480613Y-86111633D01*
X164422902Y-86117343D01*
X164374267Y-86122154D01*
X164372516Y-86122315D01*
X164311464Y-86127496D01*
X164266052Y-86131349D01*
X164260885Y-86132690D01*
X164256598Y-86133423D01*
X164252280Y-86134223D01*
X164246965Y-86134749D01*
X164143868Y-86163050D01*
X164142280Y-86163474D01*
X164038794Y-86190333D01*
X164033921Y-86192528D01*
X164029828Y-86193969D01*
X164025702Y-86195487D01*
X164020553Y-86196901D01*
X163923790Y-86242125D01*
X163922214Y-86242849D01*
X163824722Y-86286766D01*
X163820291Y-86289749D01*
X163816374Y-86291929D01*
X163812679Y-86294054D01*
X163807848Y-86296312D01*
X163719998Y-86357255D01*
X163718579Y-86358225D01*
X163634390Y-86414904D01*
X163634383Y-86414909D01*
X163629959Y-86417888D01*
X163626100Y-86421570D01*
X163622083Y-86424799D01*
X163621588Y-86425172D01*
X163621598Y-86425185D01*
X163618344Y-86427776D01*
X163614936Y-86430140D01*
X163611868Y-86432932D01*
X163611865Y-86432934D01*
X163597827Y-86445707D01*
X163597813Y-86445721D01*
X163596721Y-86446714D01*
X163535229Y-86508206D01*
X163533106Y-86510281D01*
X163460073Y-86579951D01*
X163456890Y-86584230D01*
X163455649Y-86585898D01*
X163443651Y-86599785D01*
X161596731Y-88446704D01*
X161463840Y-88579595D01*
X161401528Y-88613621D01*
X161374745Y-88616500D01*
X157126000Y-88616500D01*
X157057879Y-88596498D01*
X157011386Y-88542842D01*
X157000000Y-88490500D01*
X157000000Y-84500000D01*
X99508000Y-84500000D01*
X99508000Y-82000000D01*
X132454647Y-82000000D01*
X132474022Y-82221463D01*
X132475446Y-82226776D01*
X132528221Y-82423733D01*
X132531560Y-82436196D01*
X132533882Y-82441177D01*
X132533883Y-82441178D01*
X132623186Y-82632689D01*
X132623189Y-82632694D01*
X132625512Y-82637676D01*
X132628668Y-82642183D01*
X132628669Y-82642185D01*
X132749861Y-82815265D01*
X132753023Y-82819781D01*
X132910219Y-82976977D01*
X132914727Y-82980134D01*
X132914730Y-82980136D01*
X132936575Y-82995432D01*
X133092323Y-83104488D01*
X133097305Y-83106811D01*
X133097310Y-83106814D01*
X133288822Y-83196117D01*
X133293804Y-83198440D01*
X133299112Y-83199862D01*
X133299114Y-83199863D01*
X133357189Y-83215424D01*
X133508537Y-83255978D01*
X133730000Y-83275353D01*
X133951463Y-83255978D01*
X134102811Y-83215424D01*
X134160886Y-83199863D01*
X134160888Y-83199862D01*
X134166196Y-83198440D01*
X134171178Y-83196117D01*
X134362690Y-83106814D01*
X134362695Y-83106811D01*
X134367677Y-83104488D01*
X134523425Y-82995432D01*
X134545270Y-82980136D01*
X134545273Y-82980134D01*
X134549781Y-82976977D01*
X134706977Y-82819781D01*
X134710140Y-82815265D01*
X134834488Y-82637676D01*
X134836645Y-82639186D01*
X134880114Y-82597805D01*
X134949839Y-82584425D01*
X135015728Y-82610865D01*
X135049268Y-82651177D01*
X135100254Y-82748084D01*
X135103500Y-82752322D01*
X135107175Y-82757120D01*
X135243021Y-82934480D01*
X135246931Y-82938107D01*
X135388964Y-83069860D01*
X135415153Y-83094154D01*
X135419608Y-83097064D01*
X135419611Y-83097066D01*
X135482488Y-83138133D01*
X135611728Y-83222544D01*
X135673849Y-83249491D01*
X135822224Y-83313854D01*
X135822229Y-83313856D01*
X135827124Y-83315979D01*
X135915618Y-83337633D01*
X136050000Y-83370516D01*
X136050006Y-83370517D01*
X136055184Y-83371784D01*
X136060508Y-83372161D01*
X136284059Y-83387990D01*
X136284062Y-83387990D01*
X136289387Y-83388367D01*
X136406211Y-83376809D01*
X136517722Y-83365777D01*
X136517726Y-83365776D01*
X136523035Y-83365251D01*
X136749447Y-83303100D01*
X136754276Y-83300843D01*
X136754279Y-83300842D01*
X136864150Y-83249491D01*
X136962151Y-83203688D01*
X137047758Y-83144301D01*
X137151655Y-83072225D01*
X137151656Y-83072224D01*
X137155064Y-83069860D01*
X137164206Y-83061542D01*
X137172173Y-83054293D01*
X137172187Y-83054279D01*
X137173279Y-83053286D01*
X140045905Y-80180660D01*
X140108217Y-80146634D01*
X140179032Y-80151699D01*
X140224095Y-80180660D01*
X142483669Y-82440234D01*
X142489739Y-82446749D01*
X142527889Y-82490712D01*
X142531985Y-82495432D01*
X142536116Y-82498819D01*
X142614591Y-82563165D01*
X142615943Y-82564289D01*
X142628876Y-82575199D01*
X142697643Y-82633208D01*
X142702232Y-82635906D01*
X142705760Y-82638404D01*
X142709419Y-82640919D01*
X142713544Y-82644301D01*
X142718180Y-82646940D01*
X142806406Y-82697161D01*
X142807844Y-82697992D01*
X142900047Y-82752196D01*
X142905045Y-82754090D01*
X142908985Y-82755977D01*
X142912945Y-82757807D01*
X142917590Y-82760451D01*
X142922610Y-82762273D01*
X142922614Y-82762275D01*
X143018067Y-82796922D01*
X143019695Y-82797525D01*
X143119607Y-82835379D01*
X143124852Y-82836403D01*
X143129171Y-82837633D01*
X143133271Y-82838739D01*
X143138289Y-82840561D01*
X143213504Y-82854162D01*
X143243499Y-82859586D01*
X143245228Y-82859911D01*
X143319534Y-82874422D01*
X143350043Y-82880380D01*
X143355377Y-82880506D01*
X143360496Y-82881062D01*
X143361117Y-82881147D01*
X143361119Y-82881133D01*
X143365247Y-82881602D01*
X143369330Y-82882340D01*
X143373469Y-82882535D01*
X143373476Y-82882536D01*
X143392440Y-82883430D01*
X143392449Y-82883430D01*
X143393929Y-82883500D01*
X143480941Y-82883500D01*
X143483910Y-82883535D01*
X143584766Y-82885912D01*
X143590933Y-82885007D01*
X143592098Y-82884836D01*
X143610395Y-82883500D01*
X144058950Y-82883500D01*
X144140299Y-82876597D01*
X144228637Y-82869102D01*
X144228641Y-82869101D01*
X144233948Y-82868651D01*
X144239103Y-82867313D01*
X144239109Y-82867312D01*
X144439618Y-82815270D01*
X144461206Y-82809667D01*
X144466072Y-82807475D01*
X144466075Y-82807474D01*
X144670417Y-82715424D01*
X144670420Y-82715423D01*
X144675278Y-82713234D01*
X144870041Y-82582112D01*
X144877677Y-82574828D01*
X144920739Y-82533749D01*
X144978237Y-82502514D01*
X144985316Y-82501745D01*
X145121705Y-82450615D01*
X145238261Y-82363261D01*
X145325615Y-82246705D01*
X145376745Y-82110316D01*
X145383500Y-82048134D01*
X145383500Y-81599836D01*
X145384592Y-81583280D01*
X145386261Y-81570690D01*
X145386261Y-81570687D01*
X145386961Y-81565407D01*
X145383589Y-81475595D01*
X145383500Y-81470868D01*
X145383500Y-81434593D01*
X152613039Y-81434593D01*
X152613239Y-81439922D01*
X152613239Y-81439923D01*
X152616411Y-81524405D01*
X152616500Y-81529132D01*
X152616500Y-82048134D01*
X152623255Y-82110316D01*
X152674385Y-82246705D01*
X152761739Y-82363261D01*
X152878295Y-82450615D01*
X152886703Y-82453767D01*
X152985254Y-82490712D01*
X153014684Y-82501745D01*
X153020769Y-82502406D01*
X153070624Y-82527114D01*
X153213544Y-82644301D01*
X153218180Y-82646940D01*
X153218183Y-82646942D01*
X153358676Y-82726915D01*
X153417590Y-82760451D01*
X153638289Y-82840561D01*
X153643538Y-82841510D01*
X153643541Y-82841511D01*
X153724615Y-82856171D01*
X153869330Y-82882340D01*
X153873469Y-82882535D01*
X153873476Y-82882536D01*
X153892440Y-82883430D01*
X153892449Y-82883430D01*
X153893929Y-82883500D01*
X154446200Y-82883500D01*
X154455099Y-82883815D01*
X154514059Y-82887990D01*
X154514062Y-82887990D01*
X154519387Y-82888367D01*
X154580306Y-82882340D01*
X154625733Y-82877846D01*
X154627484Y-82877685D01*
X154688536Y-82872504D01*
X154733948Y-82868651D01*
X154739115Y-82867310D01*
X154743402Y-82866577D01*
X154747722Y-82865777D01*
X154753035Y-82865251D01*
X154758179Y-82863839D01*
X154758184Y-82863838D01*
X154856090Y-82836962D01*
X154857790Y-82836508D01*
X154907222Y-82823678D01*
X154961206Y-82809667D01*
X154966067Y-82807477D01*
X154970095Y-82806059D01*
X154974293Y-82804515D01*
X154979447Y-82803100D01*
X154984282Y-82800840D01*
X154984288Y-82800838D01*
X155076258Y-82757854D01*
X155077856Y-82757120D01*
X155144907Y-82726915D01*
X155175278Y-82713234D01*
X155179709Y-82710251D01*
X155183550Y-82708113D01*
X155187316Y-82705948D01*
X155192151Y-82703688D01*
X155196532Y-82700649D01*
X155196542Y-82700643D01*
X155280017Y-82642734D01*
X155281469Y-82641742D01*
X155365614Y-82585093D01*
X155365618Y-82585089D01*
X155370041Y-82582112D01*
X155373900Y-82578431D01*
X155377920Y-82575199D01*
X155378412Y-82574828D01*
X155378402Y-82574815D01*
X155381656Y-82572224D01*
X155385064Y-82569860D01*
X155391187Y-82564289D01*
X155402173Y-82554293D01*
X155402187Y-82554279D01*
X155403279Y-82553286D01*
X155464772Y-82491793D01*
X155466895Y-82489718D01*
X155504581Y-82453767D01*
X155539927Y-82420049D01*
X155544355Y-82414098D01*
X155556349Y-82400216D01*
X157910905Y-80045660D01*
X157973217Y-80011634D01*
X158044032Y-80016699D01*
X158089095Y-80045660D01*
X160983670Y-82940234D01*
X160989740Y-82946749D01*
X161031985Y-82995432D01*
X161036117Y-82998820D01*
X161114634Y-83063200D01*
X161115986Y-83064324D01*
X161197644Y-83133208D01*
X161202244Y-83135913D01*
X161205832Y-83138453D01*
X161209414Y-83140915D01*
X161213544Y-83144301D01*
X161304572Y-83196117D01*
X161306388Y-83197151D01*
X161307912Y-83198032D01*
X161395445Y-83249491D01*
X161395449Y-83249493D01*
X161400047Y-83252196D01*
X161405044Y-83254089D01*
X161408987Y-83255978D01*
X161412946Y-83257807D01*
X161417590Y-83260451D01*
X161422610Y-83262273D01*
X161422614Y-83262275D01*
X161518067Y-83296922D01*
X161519695Y-83297525D01*
X161619607Y-83335379D01*
X161624852Y-83336403D01*
X161629171Y-83337633D01*
X161633271Y-83338739D01*
X161638289Y-83340561D01*
X161713504Y-83354162D01*
X161743499Y-83359586D01*
X161745228Y-83359911D01*
X161819534Y-83374422D01*
X161850043Y-83380380D01*
X161855377Y-83380506D01*
X161860496Y-83381062D01*
X161861117Y-83381147D01*
X161861119Y-83381133D01*
X161865247Y-83381602D01*
X161869330Y-83382340D01*
X161873469Y-83382535D01*
X161873476Y-83382536D01*
X161892440Y-83383430D01*
X161892449Y-83383430D01*
X161893929Y-83383500D01*
X161980941Y-83383500D01*
X161983910Y-83383535D01*
X162084766Y-83385912D01*
X162090933Y-83385007D01*
X162092098Y-83384836D01*
X162110395Y-83383500D01*
X162518950Y-83383500D01*
X162600299Y-83376597D01*
X162688637Y-83369102D01*
X162688641Y-83369101D01*
X162693948Y-83368651D01*
X162699103Y-83367313D01*
X162699109Y-83367312D01*
X162891997Y-83317248D01*
X162921206Y-83309667D01*
X162926072Y-83307475D01*
X162926075Y-83307474D01*
X163130417Y-83215424D01*
X163130420Y-83215423D01*
X163135278Y-83213234D01*
X163330041Y-83082112D01*
X163340406Y-83072225D01*
X163425138Y-82991394D01*
X163499927Y-82920049D01*
X163640078Y-82731679D01*
X163642496Y-82726923D01*
X163642501Y-82726915D01*
X163680087Y-82652990D01*
X163728790Y-82601332D01*
X163797690Y-82584206D01*
X163864911Y-82607049D01*
X163895616Y-82637825D01*
X164019860Y-82815265D01*
X164019864Y-82815270D01*
X164023023Y-82819781D01*
X164180219Y-82976977D01*
X164184727Y-82980134D01*
X164184730Y-82980136D01*
X164206575Y-82995432D01*
X164362323Y-83104488D01*
X164367305Y-83106811D01*
X164367310Y-83106814D01*
X164558822Y-83196117D01*
X164563804Y-83198440D01*
X164569112Y-83199862D01*
X164569114Y-83199863D01*
X164627189Y-83215424D01*
X164778537Y-83255978D01*
X165000000Y-83275353D01*
X165221463Y-83255978D01*
X165372811Y-83215424D01*
X165430886Y-83199863D01*
X165430888Y-83199862D01*
X165436196Y-83198440D01*
X165441178Y-83196117D01*
X165632690Y-83106814D01*
X165632695Y-83106811D01*
X165637677Y-83104488D01*
X165793425Y-82995432D01*
X165815270Y-82980136D01*
X165815273Y-82980134D01*
X165819781Y-82976977D01*
X165976977Y-82819781D01*
X165980140Y-82815265D01*
X166101331Y-82642185D01*
X166101332Y-82642183D01*
X166104488Y-82637676D01*
X166106811Y-82632694D01*
X166106814Y-82632689D01*
X166196117Y-82441178D01*
X166196118Y-82441177D01*
X166198440Y-82436196D01*
X166201780Y-82423733D01*
X166254554Y-82226776D01*
X166255978Y-82221463D01*
X166275353Y-82000000D01*
X166255978Y-81778537D01*
X166209335Y-81604464D01*
X166199863Y-81569114D01*
X166199862Y-81569112D01*
X166198440Y-81563804D01*
X166180068Y-81524405D01*
X166106814Y-81367311D01*
X166106811Y-81367306D01*
X166104488Y-81362324D01*
X166098254Y-81353421D01*
X165980136Y-81184730D01*
X165980134Y-81184727D01*
X165976977Y-81180219D01*
X165819781Y-81023023D01*
X165815273Y-81019866D01*
X165815270Y-81019864D01*
X165739505Y-80966813D01*
X165637677Y-80895512D01*
X165632695Y-80893189D01*
X165632690Y-80893186D01*
X165441178Y-80803883D01*
X165441177Y-80803882D01*
X165436196Y-80801560D01*
X165430888Y-80800138D01*
X165430886Y-80800137D01*
X165365051Y-80782497D01*
X165221463Y-80744022D01*
X165000000Y-80724647D01*
X164778537Y-80744022D01*
X164634949Y-80782497D01*
X164569114Y-80800137D01*
X164569112Y-80800138D01*
X164563804Y-80801560D01*
X164558823Y-80803882D01*
X164558822Y-80803883D01*
X164367311Y-80893186D01*
X164367306Y-80893189D01*
X164362324Y-80895512D01*
X164357817Y-80898668D01*
X164357815Y-80898669D01*
X164184730Y-81019864D01*
X164184727Y-81019866D01*
X164180219Y-81023023D01*
X164023023Y-81180219D01*
X164019866Y-81184727D01*
X164019864Y-81184730D01*
X163896910Y-81360327D01*
X163841453Y-81404655D01*
X163770834Y-81411964D01*
X163707473Y-81379933D01*
X163685978Y-81353421D01*
X163584667Y-81186466D01*
X163584665Y-81186464D01*
X163581896Y-81181900D01*
X163428015Y-81004568D01*
X163367908Y-80955283D01*
X163250584Y-80859083D01*
X163250578Y-80859079D01*
X163246456Y-80855699D01*
X163241820Y-80853060D01*
X163241817Y-80853058D01*
X163053934Y-80746109D01*
X163042410Y-80739549D01*
X162821711Y-80659439D01*
X162816462Y-80658490D01*
X162816459Y-80658489D01*
X162609390Y-80621045D01*
X162542716Y-80586151D01*
X159781017Y-77824453D01*
X159746991Y-77762141D01*
X159744458Y-77744687D01*
X159744408Y-77744017D01*
X159744408Y-77744016D01*
X159744061Y-77739348D01*
X159732725Y-77689248D01*
X159687408Y-77488980D01*
X159686377Y-77484423D01*
X159591647Y-77240823D01*
X159461951Y-77013902D01*
X159300138Y-76808643D01*
X159109763Y-76629557D01*
X158895009Y-76480576D01*
X158890816Y-76478508D01*
X158664781Y-76367040D01*
X158664778Y-76367039D01*
X158660593Y-76364975D01*
X158614449Y-76350204D01*
X158416123Y-76286720D01*
X158411665Y-76285293D01*
X158153693Y-76243279D01*
X158039942Y-76241790D01*
X157897022Y-76239919D01*
X157897019Y-76239919D01*
X157892345Y-76239858D01*
X157633362Y-76275104D01*
X157382433Y-76348243D01*
X157378180Y-76350203D01*
X157378179Y-76350204D01*
X157341659Y-76367040D01*
X157145072Y-76457668D01*
X157106067Y-76483241D01*
X156930404Y-76598410D01*
X156930399Y-76598414D01*
X156926491Y-76600976D01*
X156731494Y-76775018D01*
X156564363Y-76975970D01*
X156428771Y-77199419D01*
X156327697Y-77440455D01*
X156263359Y-77693783D01*
X156259231Y-77734782D01*
X156258198Y-77745038D01*
X156231472Y-77810812D01*
X156221927Y-77821509D01*
X153958188Y-80085248D01*
X153895876Y-80119274D01*
X153879746Y-80121702D01*
X153771363Y-80130898D01*
X153771359Y-80130899D01*
X153766052Y-80131349D01*
X153760897Y-80132687D01*
X153760891Y-80132688D01*
X153583177Y-80178814D01*
X153538794Y-80190333D01*
X153533928Y-80192525D01*
X153533925Y-80192526D01*
X153329583Y-80284576D01*
X153329580Y-80284577D01*
X153324722Y-80286766D01*
X153129959Y-80417888D01*
X153126102Y-80421567D01*
X153126100Y-80421569D01*
X153079261Y-80466251D01*
X153021763Y-80497486D01*
X153014684Y-80498255D01*
X152878295Y-80549385D01*
X152761739Y-80636739D01*
X152674385Y-80753295D01*
X152623255Y-80889684D01*
X152616500Y-80951866D01*
X152616500Y-81400164D01*
X152615408Y-81416719D01*
X152613039Y-81434593D01*
X145383500Y-81434593D01*
X145383500Y-80951866D01*
X145376745Y-80889684D01*
X145325615Y-80753295D01*
X145238261Y-80636739D01*
X145121705Y-80549385D01*
X145024147Y-80512812D01*
X144992716Y-80501029D01*
X144992715Y-80501029D01*
X144985316Y-80498255D01*
X144979231Y-80497594D01*
X144929375Y-80472885D01*
X144921285Y-80466251D01*
X144786456Y-80355699D01*
X144781820Y-80353060D01*
X144781817Y-80353058D01*
X144587053Y-80242192D01*
X144582410Y-80239549D01*
X144361711Y-80159439D01*
X144356462Y-80158490D01*
X144356459Y-80158489D01*
X144273794Y-80143541D01*
X144130670Y-80117660D01*
X144126530Y-80117465D01*
X144126523Y-80117464D01*
X144121901Y-80117246D01*
X144120126Y-80117163D01*
X144053023Y-80093977D01*
X144036962Y-80080398D01*
X141781017Y-77824453D01*
X141746991Y-77762141D01*
X141744458Y-77744687D01*
X141744408Y-77744017D01*
X141744408Y-77744016D01*
X141744061Y-77739348D01*
X141732725Y-77689248D01*
X141687408Y-77488980D01*
X141686377Y-77484423D01*
X141591647Y-77240823D01*
X141461951Y-77013902D01*
X141300138Y-76808643D01*
X141109763Y-76629557D01*
X140895009Y-76480576D01*
X140890816Y-76478508D01*
X140664781Y-76367040D01*
X140664778Y-76367039D01*
X140660593Y-76364975D01*
X140614449Y-76350204D01*
X140416123Y-76286720D01*
X140411665Y-76285293D01*
X140153693Y-76243279D01*
X140039942Y-76241790D01*
X139897022Y-76239919D01*
X139897019Y-76239919D01*
X139892345Y-76239858D01*
X139633362Y-76275104D01*
X139382433Y-76348243D01*
X139378180Y-76350203D01*
X139378179Y-76350204D01*
X139341659Y-76367040D01*
X139145072Y-76457668D01*
X139106067Y-76483241D01*
X138930404Y-76598410D01*
X138930399Y-76598414D01*
X138926491Y-76600976D01*
X138731494Y-76775018D01*
X138564363Y-76975970D01*
X138428771Y-77199419D01*
X138327697Y-77440455D01*
X138263359Y-77693783D01*
X138262891Y-77698434D01*
X138262890Y-77698438D01*
X138258771Y-77739348D01*
X138237173Y-77953839D01*
X138237397Y-77958505D01*
X138237397Y-77958511D01*
X138240108Y-78014948D01*
X138223397Y-78083950D01*
X138203348Y-78110088D01*
X135250034Y-81063402D01*
X135136791Y-81197644D01*
X135134085Y-81202248D01*
X135134083Y-81202250D01*
X135045564Y-81352826D01*
X134993798Y-81401414D01*
X134923981Y-81414303D01*
X134858279Y-81387399D01*
X134833730Y-81361241D01*
X134710140Y-81184735D01*
X134710135Y-81184729D01*
X134706977Y-81180219D01*
X134549781Y-81023023D01*
X134545273Y-81019866D01*
X134545270Y-81019864D01*
X134469505Y-80966813D01*
X134367677Y-80895512D01*
X134362695Y-80893189D01*
X134362690Y-80893186D01*
X134171178Y-80803883D01*
X134171177Y-80803882D01*
X134166196Y-80801560D01*
X134160888Y-80800138D01*
X134160886Y-80800137D01*
X134095051Y-80782497D01*
X133951463Y-80744022D01*
X133730000Y-80724647D01*
X133508537Y-80744022D01*
X133364949Y-80782497D01*
X133299114Y-80800137D01*
X133299112Y-80800138D01*
X133293804Y-80801560D01*
X133288823Y-80803882D01*
X133288822Y-80803883D01*
X133097311Y-80893186D01*
X133097306Y-80893189D01*
X133092324Y-80895512D01*
X133087817Y-80898668D01*
X133087815Y-80898669D01*
X132914730Y-81019864D01*
X132914727Y-81019866D01*
X132910219Y-81023023D01*
X132753023Y-81180219D01*
X132749866Y-81184727D01*
X132749864Y-81184730D01*
X132631746Y-81353421D01*
X132625512Y-81362324D01*
X132623189Y-81367306D01*
X132623186Y-81367311D01*
X132549932Y-81524405D01*
X132531560Y-81563804D01*
X132530138Y-81569112D01*
X132530137Y-81569114D01*
X132520665Y-81604464D01*
X132474022Y-81778537D01*
X132454647Y-82000000D01*
X99508000Y-82000000D01*
X99508000Y-74544669D01*
X136492001Y-74544669D01*
X136492371Y-74551490D01*
X136497895Y-74602352D01*
X136501521Y-74617604D01*
X136546676Y-74738054D01*
X136555214Y-74753649D01*
X136631715Y-74855724D01*
X136644276Y-74868285D01*
X136746351Y-74944786D01*
X136761946Y-74953324D01*
X136882394Y-74998478D01*
X136897649Y-75002105D01*
X136948514Y-75007631D01*
X136955328Y-75008000D01*
X139727885Y-75008000D01*
X139743124Y-75003525D01*
X139744329Y-75002135D01*
X139746000Y-74994452D01*
X139746000Y-74989884D01*
X140254000Y-74989884D01*
X140258475Y-75005123D01*
X140259865Y-75006328D01*
X140267548Y-75007999D01*
X143044669Y-75007999D01*
X143051490Y-75007629D01*
X143102352Y-75002105D01*
X143117604Y-74998479D01*
X143238054Y-74953324D01*
X143253649Y-74944786D01*
X143355724Y-74868285D01*
X143368285Y-74855724D01*
X143444786Y-74753649D01*
X143453324Y-74738054D01*
X143498478Y-74617606D01*
X143502105Y-74602351D01*
X143507631Y-74551486D01*
X143508000Y-74544672D01*
X143508000Y-74544669D01*
X154492001Y-74544669D01*
X154492371Y-74551490D01*
X154497895Y-74602352D01*
X154501521Y-74617604D01*
X154546676Y-74738054D01*
X154555214Y-74753649D01*
X154631715Y-74855724D01*
X154644276Y-74868285D01*
X154746351Y-74944786D01*
X154761946Y-74953324D01*
X154882394Y-74998478D01*
X154897649Y-75002105D01*
X154948514Y-75007631D01*
X154955328Y-75008000D01*
X157727885Y-75008000D01*
X157743124Y-75003525D01*
X157744329Y-75002135D01*
X157746000Y-74994452D01*
X157746000Y-74989884D01*
X158254000Y-74989884D01*
X158258475Y-75005123D01*
X158259865Y-75006328D01*
X158267548Y-75007999D01*
X161044669Y-75007999D01*
X161051490Y-75007629D01*
X161102352Y-75002105D01*
X161117604Y-74998479D01*
X161238054Y-74953324D01*
X161253649Y-74944786D01*
X161355724Y-74868285D01*
X161368285Y-74855724D01*
X161444786Y-74753649D01*
X161453324Y-74738054D01*
X161498478Y-74617606D01*
X161502105Y-74602351D01*
X161507631Y-74551486D01*
X161508000Y-74544672D01*
X161508000Y-72772115D01*
X161503525Y-72756876D01*
X161502135Y-72755671D01*
X161494452Y-72754000D01*
X158272115Y-72754000D01*
X158256876Y-72758475D01*
X158255671Y-72759865D01*
X158254000Y-72767548D01*
X158254000Y-74989884D01*
X157746000Y-74989884D01*
X157746000Y-72772115D01*
X157741525Y-72756876D01*
X157740135Y-72755671D01*
X157732452Y-72754000D01*
X154510116Y-72754000D01*
X154494877Y-72758475D01*
X154493672Y-72759865D01*
X154492001Y-72767548D01*
X154492001Y-74544669D01*
X143508000Y-74544669D01*
X143508000Y-72772115D01*
X143503525Y-72756876D01*
X143502135Y-72755671D01*
X143494452Y-72754000D01*
X140272115Y-72754000D01*
X140256876Y-72758475D01*
X140255671Y-72759865D01*
X140254000Y-72767548D01*
X140254000Y-74989884D01*
X139746000Y-74989884D01*
X139746000Y-72772115D01*
X139741525Y-72756876D01*
X139740135Y-72755671D01*
X139732452Y-72754000D01*
X136510116Y-72754000D01*
X136494877Y-72758475D01*
X136493672Y-72759865D01*
X136492001Y-72767548D01*
X136492001Y-74544669D01*
X99508000Y-74544669D01*
X99508000Y-72227885D01*
X136492000Y-72227885D01*
X136496475Y-72243124D01*
X136497865Y-72244329D01*
X136505548Y-72246000D01*
X139727885Y-72246000D01*
X139743124Y-72241525D01*
X139744329Y-72240135D01*
X139746000Y-72232452D01*
X139746000Y-72227885D01*
X140254000Y-72227885D01*
X140258475Y-72243124D01*
X140259865Y-72244329D01*
X140267548Y-72246000D01*
X143489884Y-72246000D01*
X143505123Y-72241525D01*
X143506328Y-72240135D01*
X143507999Y-72232452D01*
X143507999Y-72227885D01*
X154492000Y-72227885D01*
X154496475Y-72243124D01*
X154497865Y-72244329D01*
X154505548Y-72246000D01*
X157727885Y-72246000D01*
X157743124Y-72241525D01*
X157744329Y-72240135D01*
X157746000Y-72232452D01*
X157746000Y-72227885D01*
X158254000Y-72227885D01*
X158258475Y-72243124D01*
X158259865Y-72244329D01*
X158267548Y-72246000D01*
X161489884Y-72246000D01*
X161505123Y-72241525D01*
X161506328Y-72240135D01*
X161507999Y-72232452D01*
X161507999Y-70455331D01*
X161507629Y-70448510D01*
X161502105Y-70397648D01*
X161498479Y-70382396D01*
X161453324Y-70261946D01*
X161444786Y-70246351D01*
X161368285Y-70144276D01*
X161355724Y-70131715D01*
X161253649Y-70055214D01*
X161238054Y-70046676D01*
X161117606Y-70001522D01*
X161102351Y-69997895D01*
X161051486Y-69992369D01*
X161044672Y-69992000D01*
X158272115Y-69992000D01*
X158256876Y-69996475D01*
X158255671Y-69997865D01*
X158254000Y-70005548D01*
X158254000Y-72227885D01*
X157746000Y-72227885D01*
X157746000Y-70010116D01*
X157741525Y-69994877D01*
X157740135Y-69993672D01*
X157732452Y-69992001D01*
X154955331Y-69992001D01*
X154948510Y-69992371D01*
X154897648Y-69997895D01*
X154882396Y-70001521D01*
X154761946Y-70046676D01*
X154746351Y-70055214D01*
X154644276Y-70131715D01*
X154631715Y-70144276D01*
X154555214Y-70246351D01*
X154546676Y-70261946D01*
X154501522Y-70382394D01*
X154497895Y-70397649D01*
X154492369Y-70448514D01*
X154492000Y-70455328D01*
X154492000Y-72227885D01*
X143507999Y-72227885D01*
X143507999Y-70455331D01*
X143507629Y-70448510D01*
X143502105Y-70397648D01*
X143498479Y-70382396D01*
X143453324Y-70261946D01*
X143444786Y-70246351D01*
X143368285Y-70144276D01*
X143355724Y-70131715D01*
X143253649Y-70055214D01*
X143238054Y-70046676D01*
X143117606Y-70001522D01*
X143102351Y-69997895D01*
X143051486Y-69992369D01*
X143044672Y-69992000D01*
X140272115Y-69992000D01*
X140256876Y-69996475D01*
X140255671Y-69997865D01*
X140254000Y-70005548D01*
X140254000Y-72227885D01*
X139746000Y-72227885D01*
X139746000Y-70010116D01*
X139741525Y-69994877D01*
X139740135Y-69993672D01*
X139732452Y-69992001D01*
X136955331Y-69992001D01*
X136948510Y-69992371D01*
X136897648Y-69997895D01*
X136882396Y-70001521D01*
X136761946Y-70046676D01*
X136746351Y-70055214D01*
X136644276Y-70131715D01*
X136631715Y-70144276D01*
X136555214Y-70246351D01*
X136546676Y-70261946D01*
X136501522Y-70382394D01*
X136497895Y-70397649D01*
X136492369Y-70448514D01*
X136492000Y-70455328D01*
X136492000Y-72227885D01*
X99508000Y-72227885D01*
X99508000Y-45134000D01*
X99528002Y-45065879D01*
X99581658Y-45019386D01*
X99634000Y-45008000D01*
X198366000Y-45008000D01*
X198434121Y-45028002D01*
G37*
%TD.AperFunction*%
%TD*%
%TA.AperFunction,Conductor*%
%TO.N,GNDREF*%
G36*
X141000000Y-85500000D02*
G01*
X99508000Y-85500000D01*
X99508000Y-84500000D01*
X141000000Y-84500000D01*
X141000000Y-85500000D01*
G37*
%TD.AperFunction*%
%TD*%
M02*
